<?xml version="1.0" standalone="no"?>
<!DOCTYPE svg PUBLIC "-//W3C//DTD SVG 1.1//EN" "http://www.w3.org/Graphics/SVG/1.1/DTD/svg11.dtd" >
<svg xmlns="http://www.w3.org/2000/svg">
<metadata>
This is a custom SVG webfont generated by Font Squirrel.
Copyright   :  1990 1991 2002 Adobe Systems Incorporated All rights reserved
Designer    : Unknown
Foundry URL : httpwwwadobecomtype
</metadata>
<defs>
<font id="HelveticaRoundedLTStdBold" horiz-adv-x="1200" >
<font-face units-per-em="2048" ascent="1501" descent="-547" />
<missing-glyph horiz-adv-x="600" />
<glyph unicode=" "  horiz-adv-x="600" />
<glyph unicode="&#x09;" horiz-adv-x="600" />
<glyph unicode="&#xa0;" horiz-adv-x="600" />
<glyph unicode="!" horiz-adv-x="621" d="M150 147.5q0 66.5 47 114t113.5 47.5t114 -47.5t47.5 -114t-47.5 -113.5t-114 -47t-113.5 47t-47 113.5zM156 1062v227q0 152 155 152t155 -152v-227q0 -30 -8 -92l-61 -461q-5 -41 -26 -56.5t-60 -15.5t-60 15.5t-27 56.5l-61 461q-7 63 -7 92z" />
<glyph unicode="&#x22;" horiz-adv-x="1055" d="M208 983v321q0 60 35.5 98.5t94.5 38.5t94.5 -38.5t35.5 -98.5v-321q0 -60 -35.5 -98.5t-94.5 -38.5t-94.5 38.5t-35.5 98.5zM588 983v321q0 60 35.5 98.5t94.5 38.5t94.5 -38.5t35.5 -98.5v-321q0 -60 -35.5 -98.5t-94.5 -38.5t-94.5 38.5t-35.5 98.5z" />
<glyph unicode="#" horiz-adv-x="1202" d="M102 474.5q0 39.5 24 66.5t71 27h102l31 236h-75q-47 0 -70.5 27.5t-23.5 67t23.5 67t70.5 27.5h103l41 303q14 102 110 102q37 0 64 -22.5t27 -58.5q0 -11 -7 -69l-34 -255h173l41 303q13 102 110 102q38 0 64 -22.5t26 -58.5q0 -11 -5 -69l-36 -255h75q47 0 70.5 -27.5 t23.5 -67t-23.5 -67t-70.5 -27.5h-103l-31 -236h75q47 0 70.5 -27t23.5 -66.5t-23.5 -67.5t-70.5 -28h-102l-42 -302q-13 -102 -110 -103q-37 0 -63.5 22.5t-26.5 58.5q0 11 6 69l35 255h-173l-41 -302q-13 -102 -110 -103q-38 0 -64.5 22.5t-26.5 58.5q0 11 6 69l36 255 h-75q-47 0 -71 28t-24 67.5zM499 568h173l32 236h-173z" />
<glyph unicode="$" horiz-adv-x="1202" d="M49 336q0 59 32.5 91.5t89.5 32.5q51 0 81.5 -20.5t41 -51t25.5 -66t34 -67t67.5 -54t125.5 -26.5v411q-467 84 -467 399q0 191 135.5 299t331.5 114v45q0 26 18 46.5t41.5 20.5t41 -20.5t17.5 -46.5v-45q61 -2 137.5 -22t152.5 -54.5t127.5 -91t51.5 -125.5 q0 -55 -35.5 -88.5t-88.5 -33.5q-41 0 -76.5 33.5t-61 73t-80 72.5t-127.5 35v-373q115 -24 189.5 -49.5t150 -73.5t113 -126t37.5 -185q0 -193 -130.5 -297.5t-359.5 -118.5v-122q0 -26 -17.5 -46t-41 -20t-41.5 20.5t-18 45.5v122q-232 6 -364.5 118t-132.5 244zM326 1030 q0 -141 220 -184v351q-96 -2 -158 -52t-62 -115zM664 175q100 5 171 53.5t71 139.5q0 47 -21.5 82.5t-62 58t-75 33.5t-83.5 22v-389z" />
<glyph unicode="%" horiz-adv-x="1966" d="M156 1022.5q0 170.5 80.5 273t249.5 102.5t249.5 -102.5t80.5 -273t-80.5 -273t-249.5 -102.5t-249.5 102.5t-80.5 273zM368 1022.5q0 -221.5 118 -221.5t118 221.5t-118 221.5t-118 -221.5zM542 -10q0 27 22 67l708 1337q30 55 77 55q31 0 54 -21t23 -46q0 -27 -22 -67 l-708 -1337q-30 -55 -77 -55q-31 0 -54 20.5t-23 46.5zM1150 350q0 171 80.5 273.5t249.5 102.5t250 -102.5t81 -273.5t-81 -273.5t-250 -102.5t-249.5 102.5t-80.5 273.5zM1362 350q0 -222 118 -222t118 222t-118 222t-118 -222z" />
<glyph unicode="&#x26;" horiz-adv-x="1383" d="M86 366q0 281 310 432q-68 75 -102.5 137.5t-34.5 143.5q0 163 114.5 256.5t279.5 93.5q110 0 193.5 -32.5t128 -84.5t65 -109t20.5 -115q0 -113 -68 -207.5t-178 -147.5l197 -230q8 15 23.5 47t28 55.5t25.5 39.5q45 61 101 61q49 0 88.5 -33.5t39.5 -79.5 q0 -51 -45 -131.5t-100 -131.5l117 -141q28 -33 28 -79q0 -49 -40.5 -86t-106.5 -37q-49 0 -97 54l-90 105q-177 -171 -456 -172q-216 0 -328.5 117t-112.5 275zM373 390q0 -85 52.5 -138t140.5 -53q126 0 260 120l-258 304q-195 -108 -195 -233zM519 1103q0 -47 21 -86.5 t42.5 -61t68.5 -60.5q49 29 73.5 46.5t56 62t31.5 95.5q0 53 -42 91.5t-105 38.5t-104.5 -36.5t-41.5 -89.5z" />
<glyph unicode="'" horiz-adv-x="621" d="M180 983v321q0 60 36 98.5t95 38.5t94.5 -38.5t35.5 -98.5v-321q0 -60 -35.5 -98.5t-94.5 -38.5t-95 38.5t-36 98.5z" />
<glyph unicode="(" horiz-adv-x="653" d="M132 527q0 295 140 627q82 195 119 245t91 50q43 0 72.5 -26.5t29.5 -64.5q0 -31 -44.5 -153t-88.5 -307t-44 -371.5t44 -371.5t88.5 -307t44.5 -152q0 -38 -29.5 -65t-72.5 -27q-53 0 -90.5 50.5t-119.5 245.5q-140 332 -140 627z" />
<glyph unicode=")" horiz-adv-x="653" d="M71 -304q0 31 44 152.5t88.5 306.5t44.5 371.5t-44.5 371.5t-88.5 307t-44 153q0 38 29.5 64.5t72.5 26.5q53 0 90 -50t120 -245q140 -332 140 -627t-140 -627q-83 -195 -119.5 -245.5t-90.5 -50.5q-43 0 -72.5 27t-29.5 65z" />
<glyph unicode="*" horiz-adv-x="912" d="M88 1156q0 41 28 64.5t53 23.5q19 0 51 -11l153 -55v175q0 88 83 88t83 -88v-175l153 55q32 11 51 11q26 0 53.5 -23.5t27.5 -64.5q0 -57 -69 -77l-173 -51l118 -153q24 -30 24 -57q0 -43 -31 -63t-57 -20q-48 0 -68 32l-112 167l-112 -167q-20 -32 -67 -32 q-27 0 -57.5 20t-30.5 63q0 28 23 57l118 153l-173 51q-69 19 -69 77z" />
<glyph unicode="+" horiz-adv-x="1178" d="M34 557q0 53 38 85t99 32h301v301q0 61 32.5 99.5t85.5 38.5t85.5 -38.5t32.5 -99.5v-301h301q60 0 98.5 -32t38.5 -85.5t-38.5 -85.5t-98.5 -32h-301v-302q0 -60 -32.5 -98.5t-85.5 -38.5t-85.5 38.5t-32.5 98.5v302h-301q-59 0 -98 35t-39 83z" />
<glyph unicode="," horiz-adv-x="600" d="M139 148q0 67 47.5 114t113.5 47q91 0 138.5 -70t47.5 -179q0 -94 -24.5 -152t-76.5 -111q-28 -25 -82.5 -54.5t-96.5 -29.5q-31 0 -49 17t-18 42q0 27 32 46t69 32t70.5 54t37.5 109q-32 -17 -67 -17q-65 0 -103.5 44t-38.5 108z" />
<glyph unicode="-" horiz-adv-x="799" d="M79 543q0 136 159 136h325q159 0 159 -136t-159 -136h-325q-159 0 -159 136z" />
<glyph unicode="." horiz-adv-x="600" d="M139 147.5q0 66.5 47.5 114t114.5 47.5t114 -47.5t47 -114t-47 -113.5t-114 -47t-114.5 47t-47.5 113.5z" />
<glyph unicode="/" horiz-adv-x="726" d="M15 67q1 21 17 65l469 1236q30 81 109 81q37 0 69 -28.5t32 -71.5q0 -22 -15 -65l-469 -1237q-30 -81 -109 -81q-37 0 -70 29t-33 72z" />
<glyph unicode="0" horiz-adv-x="1202" d="M77 704q0 340 139.5 517t385.5 177t385.5 -177t139.5 -517q0 -113 -15 -210.5t-51.5 -195t-94.5 -168t-151 -113.5t-213 -43t-213.5 43t-151.5 113.5t-94 168t-51 195t-15 210.5zM364 686q0 -255 60 -365.5t178 -110.5t177.5 110.5t59.5 365.5q0 477 -237.5 477 t-237.5 -477z" />
<glyph unicode="1" horiz-adv-x="799" d="M-17 998q0 53 30 75t111 38l73 16q73 15 119 61.5t63 91.5t52 81.5t90 36.5q115 0 115 -134v-1116q0 -173 -150 -173t-150 173v747h-253q-51 0 -75.5 22.5t-24.5 80.5z" />
<glyph unicode="2" horiz-adv-x="1165" d="M60 146q0 216 371 450l93 58l80 51l62 41q38 27 52 41l36 37q21 22 26.5 40.5t11.5 44t6 55.5q0 92 -59.5 145t-147.5 53q-98 0 -159.5 -47t-93.5 -162q-15 -58 -41.5 -83.5t-82.5 -25.5q-144 0 -143 131q0 179 153 301t372 122q222 0 361.5 -120t139.5 -267 q0 -183 -76.5 -283.5t-251.5 -198.5q-193 -110 -280 -170t-104 -111h590q130 0 130 -124t-146 -124h-737q-79 0 -120.5 43t-41.5 103z" />
<glyph unicode="3" horiz-adv-x="1165" d="M60 315q0 60 39.5 98.5t101.5 38.5q41 0 68.5 -17.5t40.5 -45t31.5 -58.5t38 -58t65 -45t107.5 -18q108 0 167.5 59t59.5 153q0 160 -177 178q-32 4 -50.5 7t-50.5 13.5t-47 32t-15 53.5q0 73 40 99t131 30q149 10 149 154q0 84 -56 128.5t-140 44.5q-66 0 -111 -23 t-67.5 -56t-41.5 -66.5t-47 -56t-72 -22.5q-57 0 -94.5 28.5t-37.5 89.5q0 112 81.5 193.5t186 115t208.5 33.5q238 0 352 -110t114 -271q0 -186 -167 -276q210 -58 210 -306q0 -222 -150 -341.5t-381 -119.5q-129 0 -229.5 36.5t-152.5 92.5t-78 110.5t-26 101.5z" />
<glyph unicode="4" d="M26 450q0 67 37 116l605 777q41 55 128 55q148 0 148 -141v-718h98q49 0 79.5 -31.5t30.5 -81t-30 -80.5t-80 -31h-98v-203q0 -137 -138 -137t-138 137v203h-493q-71 0 -110 41t-39 94zM285 539h383v509h-4z" />
<glyph unicode="5" horiz-adv-x="1165" d="M63 253q0 59 39 98t102 39q40 0 73.5 -30t58 -66.5t75.5 -65.5t122 -29q108 0 179.5 75.5t71.5 175.5q0 120 -73.5 181t-191.5 61q-84 0 -172 -48t-129 -48q-59 0 -97 32t-38 98q0 49 9 103l71 419q10 51 44.5 88t81.5 37h589q130 0 130.5 -124.5t-125.5 -124.5h-502 l-53 -295l4 -3q105 90 274 90q197 0 331 -117.5t134 -334.5q0 -233 -150 -361.5t-392 -128.5q-230 0 -348 91.5t-118 187.5z" />
<glyph unicode="6" horiz-adv-x="1202" d="M77 610q0 418 151 603t440 185q167 0 280.5 -79t113.5 -175q0 -52 -36.5 -89.5t-87.5 -37.5q-43 0 -78.5 26t-58 58t-64 58.5t-94.5 26.5q-141 0 -210 -112t-69 -268v-35q131 126 306 126q214 0 335.5 -124t121.5 -311q0 -234 -142.5 -361t-367.5 -127 q-120 0 -215.5 36.5t-155 97.5t-99 144.5t-55 171t-15.5 186.5zM381 443q0 -115 62 -179.5t168.5 -64.5t167 64.5t60.5 179.5q0 120 -63 180.5t-164 60.5q-100 0 -165.5 -64.5t-65.5 -176.5z" />
<glyph unicode="7" horiz-adv-x="1128" d="M20 1248.5q0 124.5 130 124.5h798q135 0 135 -142q0 -42 -34 -88t-93 -116t-125 -170.5t-142 -291t-130 -435.5q-19 -91 -49 -123.5t-97 -32.5q-144 0 -143 150q0 155 166 495t344 505h-634q-126 0 -126 124.5z" />
<glyph unicode="8" horiz-adv-x="1202" d="M77 415q0 116 57 200.5t165 119.5q-85 40 -134 118.5t-49 170.5q0 165 130.5 269.5t355 104.5t355.5 -104.5t131 -269.5q0 -92 -49.5 -170.5t-134.5 -118.5q109 -35 166 -119.5t57 -200.5q0 -118 -47.5 -207.5t-126 -139t-167 -72t-185 -22.5t-185 22.5t-167 72 t-125.5 139t-47 207.5zM364 413q0 -100 65.5 -157t172 -57t172 57t65.5 157q0 80 -58.5 151.5t-178.5 71.5t-179 -71.5t-59 -151.5zM392 1005q0 -88 57.5 -134.5t152 -46.5t152.5 46t58 135q0 85 -59 133t-151.5 48t-151 -48t-58.5 -133z" />
<glyph unicode="9" horiz-adv-x="1202" d="M77 910q0 234 142.5 361t366.5 127q120 0 215.5 -36.5t155.5 -97.5t99 -144.5t55 -171t16 -185.5q0 -418 -151.5 -603.5t-440.5 -185.5q-167 0 -280.5 79t-113.5 175q0 53 36.5 90.5t87.5 37.5q43 0 78.5 -27t58 -58t64 -57.5t95.5 -26.5q141 0 209.5 112t68.5 267v36 q-131 -126 -306 -126q-214 0 -335 124t-121 310zM364 930q0 -120 63 -181t164 -61q100 0 165.5 65t65.5 177q0 114 -62 179t-168 65t-167 -65t-61 -179z" />
<glyph unicode=":" horiz-adv-x="600" d="M139 147.5q0 66.5 47.5 114t114.5 47.5t114 -47.5t47 -114t-47 -113.5t-114 -47t-114.5 47t-47.5 113.5zM139 867.5q0 66.5 47.5 113.5t114.5 47t114 -47t47 -113.5t-47 -114t-114 -47.5t-114.5 47.5t-47.5 114z" />
<glyph unicode=";" horiz-adv-x="600" d="M139 148q0 67 47.5 114t113.5 47q91 0 138.5 -70t47.5 -179q0 -94 -24.5 -152t-76.5 -111q-28 -25 -82.5 -54.5t-96.5 -29.5q-31 0 -49 17t-18 42q0 27 32 46t69 32t70.5 54t37.5 109q-32 -17 -67 -17q-65 0 -103.5 44t-38.5 108zM139 867.5q0 66.5 47.5 113.5t114.5 47 t114 -47t47 -113.5t-47 -114t-114 -47.5t-114.5 47.5t-47.5 114z" />
<glyph unicode="&#x3c;" horiz-adv-x="1178" d="M45 556.5q0 76.5 73 111.5l800 368q56 28 108 28q47 0 78 -29.5t31 -77.5q-1 -84 -93 -124l-633 -276l633 -278q92 -39 93 -123q0 -48 -31 -77.5t-78 -29.5q-51 0 -108 28l-800 367q-73 36 -73 112.5z" />
<glyph unicode="=" horiz-adv-x="1178" d="M34 324q0 53 38 86t99 33h838q60 0 98.5 -33t38.5 -85.5t-38.5 -85.5t-98.5 -33h-838q-59 0 -98 35.5t-39 82.5zM34 788q0 53 38 85.5t99 32.5h838q60 0 98.5 -32t38.5 -85.5t-38.5 -86t-98.5 -32.5h-838q-59 0 -98 35.5t-39 82.5z" />
<glyph unicode="&#x3e;" horiz-adv-x="1178" d="M45 156q0 84 92 123l634 278l-634 276q-92 40 -92 124q0 47 31 77t78 30q50 0 107 -28l801 -368q73 -35 73 -111.5t-73 -112.5l-801 -367q-57 -28 -107 -28q-47 0 -78 29.5t-31 77.5z" />
<glyph unicode="?" horiz-adv-x="1128" d="M84 1077q0 144 140 254t320 110q209 0 354.5 -99.5t145.5 -293.5q0 -88 -48 -165t-106 -120l-122 -89q-62 -47 -80 -72q-11 -17 -30 -68.5t-45.5 -74t-85.5 -22.5t-92.5 40t-33.5 91q0 79 54 146.5t118 109t118 101.5t54 123q0 79 -50 124t-138 45q-69 0 -113.5 -26.5 t-63 -64.5t-35.5 -76.5t-48.5 -65.5t-84.5 -27q-55 0 -91.5 31.5t-36.5 88.5zM373 147.5q0 66.5 47.5 114t114.5 47.5t114 -47.5t47 -114t-47 -113.5t-114 -47t-114.5 47t-47.5 113.5z" />
<glyph unicode="@" horiz-adv-x="1572" d="M59 706q0 316 222 529.5t541 213.5q291 0 491.5 -168t200.5 -442q0 -155 -60 -274t-146.5 -178t-162.5 -86t-128 -27q-117 0 -118 99h-4q-87 -99 -205 -99q-124 0 -206.5 99t-82.5 246q0 199 112 335t262 136q88 0 144 -30t100 -92l7 34q16 71 94 71q38 0 62.5 -22.5 t24.5 -61.5q0 -19 -8 -57l-60 -343q-12 -52 -12 -70q0 -39 37 -39q63 0 118 78.5t55 223.5q0 233 -143.5 361.5t-377.5 128.5q-227 0 -385.5 -166t-158.5 -400q0 -258 158.5 -410t402.5 -152q100 0 180 20.5t119 43.5l71 45q33 21 54 21q29 0 51.5 -23t22.5 -54 q0 -77 -172 -154t-326 -77q-324 0 -549 209.5t-225 530.5zM613 660q0 -82 44.5 -128t113.5 -46q82 0 136 63.5t54 158.5q0 76 -39 122t-112 46q-84 0 -140.5 -63.5t-56.5 -152.5z" />
<glyph unicode="A" horiz-adv-x="1311" d="M17 116q0 40 32 124l417 1103q37 98 157 98h77q131 0 173 -118l389 -1083q32 -84 32 -124q0 -58 -44.5 -100t-107.5 -42q-112 0 -146 89l-82 236h-518l-85 -236q-30 -88 -144 -89q-67 0 -108.5 38.5t-41.5 103.5zM466 523h378l-184 569h-3z" />
<glyph unicode="B" horiz-adv-x="1418" d="M150 189v1038q0 102 48 145.5t140 43.5h429q517 0 517 -366q0 -94 -51 -170.5t-148 -116.5v-4q247 -65 248 -340q0 -211 -147.5 -315t-373.5 -104h-474q-92 0 -140 43.5t-48 145.5zM472 248h271q268 0 268 189q0 80 -47.5 125.5t-107.5 56t-152 10.5h-232v-381zM472 833 h265q224 0 224 173.5t-233 173.5h-256v-347z" />
<glyph unicode="C" horiz-adv-x="1418" d="M105 708q0 204 75 369t235.5 268.5t380.5 103.5q253 0 412.5 -124t159.5 -246q0 -69 -37 -107t-108 -38q-51 0 -86.5 26.5t-60 64t-55 75t-87 63.5t-138.5 26q-158 0 -264 -129.5t-106 -351.5q0 -213 93 -347t289 -134q71 0 124 27t84.5 67.5t58 81t61 67.5t76.5 27 q63 0 109.5 -33t46.5 -91q0 -157 -165 -282t-395 -125q-336 0 -519.5 190t-183.5 552z" />
<glyph unicode="D" horiz-adv-x="1491" d="M150 189v1038q0 102 48 145.5t140 43.5h394q112 0 206 -19.5t183 -70t149.5 -129.5t97.5 -203.5t37 -285.5q0 -336 -178.5 -522t-500.5 -186h-388q-92 0 -140 43.5t-48 145.5zM472 259h271q122 0 201.5 69t109 165t29.5 215q0 214 -84.5 331t-257.5 117h-269v-897z" />
<glyph unicode="E" horiz-adv-x="1345" d="M157 189v1038q0 102 48 145.5t141 43.5h757q163 0 163 -130t-163 -130h-623v-306h546q152 0 152 -124t-152 -124h-546v-343h638q164 0 164 -129.5t-164 -129.5h-772q-93 0 -141 43.5t-48 145.5z" />
<glyph unicode="F" horiz-adv-x="1238" d="M157 135v1092q0 102 48 145.5t141 43.5h710q163 0 163 -130t-163 -130h-576v-330h488q151 0 151 -123q0 -125 -151 -125h-488v-443q0 -73 -44 -117t-117 -44t-117.5 44t-44.5 117z" />
<glyph unicode="G" horiz-adv-x="1602" d="M105 708q0 352 200 546.5t537 194.5q244 0 396 -114t152 -226q0 -77 -44 -109t-108 -32q-43 0 -72 22.5t-51.5 54.5t-52.5 65.5t-91 56t-147 22.5q-179 0 -288.5 -123.5t-109.5 -379.5q0 -214 105 -343t297 -129q131 0 227.5 80.5t108.5 208.5h-211q-145 0 -145 122 q0 60 32.5 93t93.5 33h397q132 0 132 -136v-532q0 -46 -31.5 -77.5t-78.5 -31.5q-68 0 -95 41.5t-43 141.5q-151 -191 -421 -191q-181 0 -317.5 59t-216.5 163.5t-117.5 234t-37.5 285.5z" />
<glyph unicode="H" horiz-adv-x="1529" d="M150 135v1145q0 73 44 117t116.5 44t117 -44t44.5 -117v-402h586v402q0 73 44 117t117 44t117 -44t44 -117v-1145q0 -73 -44 -117t-117 -44t-117 44.5t-44 116.5v473h-586v-473q0 -73 -44.5 -117t-117 -44t-116.5 44t-44 117z" />
<glyph unicode="I" horiz-adv-x="621" d="M150 135v1145q0 73 44 117t116.5 44t117 -44t44.5 -117v-1145q0 -73 -44.5 -117t-117 -44t-116.5 44t-44 117z" />
<glyph unicode="J" horiz-adv-x="1128" d="M36 364q0 90 40 143.5t113 53.5q146 0 145 -188q0 -159 158 -159q165 0 165 232v834q0 73 44 117t117 44t117 -44t44 -117v-837q0 -227 -123.5 -352t-360.5 -125q-135 0 -232.5 41.5t-143.5 107t-64.5 126.5t-18.5 123z" />
<glyph unicode="K" horiz-adv-x="1345" d="M150 135v1145q0 73 44 117t116.5 44t117 -44t44.5 -117v-468l507 558q67 71 128 71t107 -35.5t46 -94.5q0 -56 -53 -110l-331 -348l392 -596q61 -94 61 -127q0 -83 -48 -119.5t-117 -36.5q-51 0 -81.5 18t-62.5 67l-371 574l-177 -177v-321q0 -73 -44.5 -117t-117 -44 t-116.5 44t-44 117z" />
<glyph unicode="L" d="M150 189v1091q0 73 44 117t116.5 44t117 -44t44.5 -117v-1008h539q73 0 120 -35.5t47 -100.5t-47.5 -100.5t-119.5 -35.5h-673q-92 0 -140 43.5t-48 145.5z" />
<glyph unicode="M" horiz-adv-x="1745" d="M144 132v1150q0 159 175 159h94q75 0 115 -33t65 -114l282 -909h3l278 909q26 81 66 114t115 33h91q174 0 174 -159v-1150q0 -68 -35.5 -113t-108 -45t-108 45.5t-35.5 112.5v877h-4l-300 -940q-32 -95 -138 -95h-1q-105 0 -137 95l-300 940h-4v-877q0 -68 -35.5 -113 t-108.5 -45t-108 45t-35 113z" />
<glyph unicode="N" horiz-adv-x="1529" d="M144 130v1123q0 98 49 143t153 45q110 0 161 -85l564 -910h4v839q0 156 155.5 156t155.5 -156v-1110q0 -201 -191 -201q-75 0 -110 18t-66 68l-561 886h-4v-816q0 -156 -155 -156t-155 156z" />
<glyph unicode="O" horiz-adv-x="1604" d="M86 726q0 320 189 521.5t527 201.5t527 -201.5t189 -521.5q0 -154 -45 -289t-130.5 -241t-225.5 -168t-314 -62q-362 0 -539.5 209t-177.5 551zM409 726q0 -499 394 -499q206 0 299 137t93 362q0 210 -101 336.5t-291.5 126.5t-292 -126.5t-101.5 -336.5z" />
<glyph unicode="P" horiz-adv-x="1383" d="M150 135v1092q0 102 48 145.5t140 43.5h493q218 0 354 -112.5t136 -335.5q0 -199 -130.5 -324t-361.5 -125h-357v-384q0 -73 -44.5 -117t-117 -44t-116.5 44t-44 117zM472 767h301q98 0 161.5 54.5t63.5 146.5q0 200 -259 200h-267v-401z" />
<glyph unicode="Q" horiz-adv-x="1604" d="M86 726q0 320 189 521.5t527 201.5t527 -201.5t189 -521.5q0 -344 -195 -547l124 -116q26 -22 26 -55q0 -44 -34.5 -82t-76.5 -38q-47 0 -92 41l-124 116q-148 -79 -343 -79q-362 0 -539.5 209t-177.5 551zM409 726q0 -499 394 -499q74 0 129 17l-110 102q-26 22 -26 55 q0 43 34.5 81.5t75.5 38.5q47 0 92 -41l113 -103q84 126 84 349q0 210 -101 336.5t-291.5 126.5t-292 -126.5t-101.5 -336.5z" />
<glyph unicode="R" horiz-adv-x="1456" d="M150 135v1092q0 102 48 145.5t140 43.5h537q137 0 237 -34.5t151.5 -94.5t74 -125t22.5 -140q0 -120 -65.5 -217t-178.5 -122v-4q115 -16 155 -89.5t40 -197.5q0 -94 22 -182t22 -110q0 -53 -46.5 -89.5t-105.5 -36.5q-61 0 -103 27t-59 68t-22.5 71.5t-5.5 62.5 q0 193 -46.5 270t-176.5 77h-318v-415q0 -73 -44.5 -117t-117 -44t-116.5 44t-44 117zM472 786h322q244 0 244 191q0 107 -59 149t-175 42h-332v-382z" />
<glyph unicode="S" horiz-adv-x="1345" d="M86 324q0 59 38.5 96.5t97.5 37.5q47 0 81.5 -26.5t62.5 -64t61 -75t97 -63.5t155 -26q120 0 189.5 56t69.5 131q0 114 -137 147l-364 92q-107 28 -177.5 70t-106 96.5t-49.5 106t-14 115.5q0 149 86.5 250t208.5 141.5t270 40.5q198 0 373 -97t175 -234 q0 -58 -43.5 -92.5t-103.5 -34.5q-41 0 -72 21.5t-56.5 53t-58 62t-93.5 52t-143 21.5q-111 0 -171.5 -46t-60.5 -121q0 -45 37.5 -78t76.5 -46t106 -29l270 -61q369 -85 369 -407q0 -201 -149.5 -324t-431.5 -123t-437.5 112.5t-155.5 245.5z" />
<glyph unicode="T" horiz-adv-x="1313" d="M24 1280q0 65 47 100.5t120 35.5h931q73 0 120 -35.5t47 -100.5t-47 -100.5t-120 -35.5h-304v-1009q0 -73 -44 -117t-117 -44t-117.5 44t-44.5 117v1009h-304q-73 0 -120 35.5t-47 100.5z" />
<glyph unicode="U" horiz-adv-x="1529" d="M150 531v749q0 73 44 117t116.5 44t117 -44t44.5 -117v-775q0 -279 292 -279h1q293 0 293 279v775q0 73 44 117t117 44t117 -44t44 -117v-749q0 -283 -162 -424t-453 -141t-453 141t-162 424z" />
<glyph unicode="V" horiz-adv-x="1273" d="M17 1298q0 75 47.5 109t115.5 34q120 0 164 -141l292 -964h3l303 964q43 141 151 141q70 0 117 -34t47 -109q-1 -42 -21 -95l-408 -1117q-24 -65 -70.5 -88.5t-127 -23.5t-126.5 24t-69 88l-398 1117q-19 53 -20 95z" />
<glyph unicode="W" horiz-adv-x="1820" d="M17 1296q0 69 47.5 107t108.5 38q124 0 151 -132l192 -939h3l220 951q14 63 49.5 91.5t119.5 28.5q92 0 128.5 -37.5t55.5 -116.5l214 -917h3l193 939q28 132 145 132q61 0 108.5 -38.5t47.5 -106.5q0 -35 -15 -93l-278 -1075q-22 -85 -65 -119.5t-130 -34.5 q-88 0 -129.5 37.5t-63.5 121.5l-210 863h-4l-210 -863q-19 -84 -62 -121.5t-131 -37.5q-86 0 -129.5 34.5t-64.5 119.5l-277 1075q-16 58 -17 93z" />
<glyph unicode="X" horiz-adv-x="1163" d="M22 112q0 61 43 124l338 494l-309 461q-34 51 -34 98q0 64 47 108t115 44q86 0 134 -79l233 -403l250 403q28 43 54.5 61t78.5 18q65 0 110 -36.5t45 -108.5q0 -45 -30 -86l-328 -480l321 -482q52 -81 52 -115q0 -74 -47 -116.5t-118 -42.5q-90 0 -135 75l-260 435 l-280 -447q-37 -63 -125 -63q-71 0 -113 39.5t-42 98.5z" />
<glyph unicode="Y" horiz-adv-x="1202" d="M17 1294q0 75 52.5 111t110.5 36q55 0 87.5 -22.5t58.5 -71.5l282 -518l279 518q28 53 58 73.5t81 20.5q57 0 108.5 -36.5t51.5 -110.5q0 -39 -28 -84l-395 -658v-417q0 -73 -44.5 -117t-117 -44t-116.5 44t-44 117v417l-396 658q-28 45 -28 84z" />
<glyph unicode="Z" horiz-adv-x="1345" d="M59 159q1 61 53 124l730 861h-563q-73 0 -120 35.5t-47 100.5t47 100.5t120 35.5h850q149 0 149 -146q0 -67 -45 -118l-741 -880h628q73 0 120 -35.5t47 -100.5t-47 -100.5t-120 -35.5h-874q-92 0 -139.5 36.5t-47.5 122.5z" />
<glyph unicode="[" horiz-adv-x="691" d="M171 -197v1448q0 165 159 165h238q120 0 120 -106.5t-120 -106.5h-137v-1353h137q120 0 120 -106t-120 -106h-238q-159 0 -159 165z" />
<glyph unicode="\" horiz-adv-x="726" d="M15 1349q0 43 33 71.5t70 28.5q79 0 109 -81l469 -1236q15 -44 15 -65q0 -43 -32 -72t-69 -29q-79 0 -109 81l-469 1237q-16 43 -17 65z" />
<glyph unicode="]" horiz-adv-x="691" d="M4 -256q0 106 120 106h137v1353h-137q-120 0 -120 106.5t120 106.5h238q159 0 159 -165v-1448q0 -165 -159 -165h-238q-120 0 -120 106z" />
<glyph unicode="^" horiz-adv-x="1178" d="M132 651q0 37 25 86l303 550q45 85 129.5 85.5t130.5 -85.5l302 -550q26 -49 26 -86q0 -71 -100 -71q-49 0 -79.5 16.5t-56.5 62.5l-223 407l-221 -407q-26 -46 -56.5 -62.5t-79.5 -16.5q-100 0 -100 71z" />
<glyph unicode="_" horiz-adv-x="983" d="M-57 -197q0 49 57 49h983q57 0 57 -49t-57 -49h-983q-57 0 -57 49z" />
<glyph unicode="`" horiz-adv-x="546" d="M0 1388q0 38 26.5 73.5t80.5 35.5q47 0 131 -68l145 -112q57 -47 57.5 -94t-30.5 -71.5t-70.5 -24.5t-89.5 35l-177 120q-73 49 -73 106z" />
<glyph unicode="a" d="M81 268q0 86 30 147t88 97t125.5 56t157.5 30l175 19q60 8 91.5 28.5t31.5 78.5t-50.5 88t-129.5 30q-73 0 -126.5 -25t-77.5 -54.5t-58 -54t-70 -24.5q-53 0 -87.5 32.5t-34.5 77.5q0 96 125 178t331 82q216 0 341 -72.5t125 -222.5v-482q0 -69 14.5 -124t14.5 -69 q0 -47 -38.5 -78.5t-90.5 -31.5q-162 0 -170 167q-152 -167 -393 -167q-129 0 -226.5 81.5t-97.5 212.5zM368 281q0 -49 43 -83.5t116 -34.5q114 0 183.5 62t69.5 147v112q-31 -30 -123 -45l-105 -17q-94 -13 -139 -45.5t-45 -95.5z" />
<glyph unicode="b" d="M114 110v1188q0 69 38.5 106t105 37t105 -37.5t38.5 -105.5v-390h4q90 146 283 146q214 0 328.5 -154.5t114.5 -378.5q0 -265 -129 -406t-321 -141q-233 0 -304 182h-4v-46q0 -135 -129.5 -135t-129.5 135zM385 511q0 -136 56 -224t174 -88q111 2 170 90t59 222 q0 54 -11 106.5t-34.5 102t-70.5 79.5t-113 30h-5q-116 0 -170 -93q-55 -95 -55 -225z" />
<glyph unicode="c" horiz-adv-x="1055" d="M59 493q0 254 140.5 407.5t398.5 153.5q175 0 297 -82.5t122 -187.5q0 -58 -38.5 -91t-95.5 -33q-45 0 -74.5 26.5t-45.5 58.5t-60 58t-114 26q-99 0 -171 -79.5t-72 -256.5q0 -135 63 -214.5t179 -79.5q67 0 111 28t62 63.5t52.5 64t83.5 28.5q52 0 86 -32t34 -77 q0 -109 -116.5 -204.5t-320.5 -95.5q-256 0 -388.5 141.5t-132.5 377.5z" />
<glyph unicode="d" d="M71 521q0 224 114 378.5t329 154.5q193 0 282 -146h5v390q0 69 37.5 106t105 37t106 -37t38.5 -106v-1188q0 -136 -130 -136h-1q-129 0 -129 136v46h-4q-71 -181 -303 -182q-193 0 -321.5 140.5t-128.5 406.5zM358 511q0 -134 59 -222t169 -90q118 0 174 88t56 224 q0 129 -55 225q-54 94 -170 93h-5q-66 0 -113 -30t-70.5 -79.5t-34 -102t-10.5 -106.5z" />
<glyph unicode="e" horiz-adv-x="1202" d="M71 495q0 254 145.5 406.5t396.5 152.5q237 0 378.5 -140.5t141.5 -329.5q0 -73 -26.5 -98.5t-99.5 -25.5h-649q0 -116 70.5 -188.5t194.5 -72.5q73 0 126.5 22.5t78 48t57.5 48t70 22.5q49 0 83.5 -35t34.5 -77q0 -80 -78.5 -141t-177.5 -87t-194 -26q-144 0 -255 45.5 t-173 122t-93 166t-31 187.5zM358 625h503q-11 100 -79.5 164t-162.5 64q-210 0 -261 -228z" />
<glyph unicode="f" horiz-adv-x="726" d="M139 1028h65v144q0 130 93 203.5t224 73.5q83 0 135.5 -34.5t52.5 -103.5q0 -39 -27 -68.5t-65 -29.5q-11 0 -31 3t-31 3q-63 0 -63 -67v-124h88q129 0 129 -94.5t-129 -94.5h-88v-721q0 -69 -38.5 -106.5t-105.5 -37.5t-105.5 37.5t-38.5 106.5v721h-65q-114 0 -114 94 q0 95 114 95z" />
<glyph unicode="g" d="M71 507q0 265 128.5 406t321.5 141q105 0 184 -45t119 -126h4v35q0 135 130 135t130 -135v-834q0 -249 -139 -376.5t-373 -127.5q-169 0 -300.5 67.5t-131.5 170.5q0 52 34 87t83.5 35t92 -36.5t93 -74t119.5 -37.5q132 0 189 72.5t57 242.5v58h-4q-39 -58 -117 -97.5 t-160 -39.5q-222 0 -341 130.5t-119 348.5zM358 517q0 -112 57 -194.5t171 -82.5q101 0 163.5 71.5t62.5 217.5q0 300 -212 300h-2q-240 0 -240 -312z" />
<glyph unicode="h" d="M114 118v1180q0 69 38.5 106t105 37t105 -37.5t38.5 -105.5v-396h4q116 152 321 152q69 0 129.5 -18.5t114.5 -60t86 -118.5t32 -180v-559q0 -144 -143.5 -144t-143.5 144v501q0 90 -46 144.5t-136 54.5q-82 0 -150 -63t-68 -164v-473q0 -144 -143.5 -144t-143.5 144z " />
<glyph unicode="i" horiz-adv-x="546" d="M124 1299q0 61 44 105.5t105 44.5t105 -44.5t44 -105.5t-44 -105t-105 -44t-105 44t-44 105zM130 118v792q0 144 143.5 144t143.5 -144v-792q0 -144 -143.5 -144t-143.5 144z" />
<glyph unicode="j" horiz-adv-x="546" d="M-34 -283q0 100 91 101h31q42 0 42 50v1042q0 144 143.5 144t143.5 -144v-1012q0 -157 -68 -231t-225.5 -74t-157.5 124zM124 1299q0 61 44 105.5t105 44.5t105 -44.5t44 -105.5t-44 -105t-105 -44t-105 44t-44 105z" />
<glyph unicode="k" horiz-adv-x="1055" d="M114 118v1180q0 69 38.5 106t105 37t105 -37.5t38.5 -105.5v-653l319 353q51 55 109 56q51 0 94 -38.5t43 -91.5q0 -24 -8 -42q-6 -20 -12 -26l-23 -27l-214 -221l300 -402q30 -41 29 -92q0 -54 -39.5 -97t-96.5 -43q-84 0 -129 67l-272 383l-100 -88v-218 q0 -69 -38.5 -106.5t-105 -37.5t-105 37.5t-38.5 106.5z" />
<glyph unicode="l" horiz-adv-x="546" d="M130 118v1180q0 69 38 106t105 37t105.5 -37.5t38.5 -105.5v-1180q0 -69 -38.5 -106.5t-105.5 -37.5t-105 37.5t-38 106.5z" />
<glyph unicode="m" horiz-adv-x="1820" d="M114 118v792q0 65 36.5 104.5t99.5 39.5t99 -39.5t36 -104.5v-37h5q56 86 146.5 133.5t198.5 47.5q85 0 161.5 -43t114.5 -138q129 180 338 181q161 0 259.5 -82.5t98.5 -265.5v-588q0 -144 -143.5 -144t-143.5 144v515q0 82 -38.5 133.5t-119.5 51.5q-84 0 -146 -62 t-62 -160v-478q0 -144 -143.5 -144t-143.5 144v515q0 82 -38.5 133.5t-118.5 51.5q-85 0 -147 -62t-62 -160v-478q0 -144 -143.5 -144t-143.5 144z" />
<glyph unicode="n" d="M114 118v792q0 144 129.5 144t129.5 -144v-37h4q138 180 349 181q69 0 129.5 -18.5t114.5 -60t86 -118.5t32 -180v-559q0 -144 -143.5 -144t-143.5 144v501q0 90 -46 144.5t-136 54.5q-82 0 -150 -63t-68 -164v-473q0 -144 -143.5 -144t-143.5 144z" />
<glyph unicode="o" horiz-adv-x="1202" d="M71 516q0 236 139.5 387t391 151t391.5 -151.5t140 -386.5q0 -113 -29 -207.5t-90 -171.5t-166 -120t-246.5 -43t-246.5 43t-166 120t-89.5 171.5t-28.5 207.5zM358 516q0 -142 61 -235.5t183 -93.5t183 93t61 236q0 147 -62 236.5t-182 89.5t-182 -89.5t-62 -236.5z" />
<glyph unicode="p" d="M114 -263v1181q0 135 130 136q129 0 129 -136v-45h4q71 180 304 181q193 0 321.5 -140.5t128.5 -406.5q0 -224 -114.5 -378.5t-328.5 -154.5q-198 0 -283 146h-4v-383q0 -69 -38.5 -106.5t-105 -37.5t-105 37.5t-38.5 106.5zM385 517q0 -129 55 -225q54 -93 170 -93h5 q66 0 113 30t70.5 79.5t34.5 102t11 106.5q0 134 -59 222.5t-170 89.5q-118 0 -174 -88t-56 -224z" />
<glyph unicode="q" d="M71 507q0 265 128.5 406t321.5 141q233 0 303 -181h4v45q0 135 130 135t130 -135v-1181q0 -69 -38.5 -106.5t-106 -37.5t-105 37.5t-37.5 106.5v383h-5q-85 -146 -282 -146q-214 0 -328.5 154.5t-114.5 378.5zM358 517q0 -54 10.5 -106.5t34 -102t71 -79.5t112.5 -30h5 q116 0 170 93q55 95 55 225q0 136 -56 224t-174 88q-111 -1 -169.5 -89.5t-58.5 -222.5z" />
<glyph unicode="r" horiz-adv-x="799" d="M130 118v802q0 63 36.5 98.5t93.5 35.5t93.5 -35.5t36.5 -98.5v-110h4q69 244 237 244q69 0 113 -39.5t44 -100.5q0 -75 -41 -109t-100 -34h-51q-90 0 -134.5 -73t-44.5 -246v-334q0 -144 -143.5 -144t-143.5 144z" />
<glyph unicode="s" horiz-adv-x="1055" d="M69 232q0 51 29.5 85.5t86.5 34.5q42 0 78 -27.5t62.5 -61t81.5 -61t126 -27.5q75 0 121 29.5t46 74.5q0 36 -24.5 57.5t-48 28.5t-92.5 25l-169 41q-144 36 -220.5 102.5t-76.5 199.5q0 162 129.5 241.5t300.5 79.5t305 -62t134 -157q0 -53 -32.5 -89.5t-87.5 -36.5 q-45 0 -81.5 33t-87.5 66.5t-128 33.5q-165 0 -165 -89q0 -32 22.5 -52t49 -29.5t81.5 -20.5l120 -28q73 -15 127 -36t111 -55.5t88.5 -89.5t31.5 -125q0 -165 -131.5 -254t-311.5 -89q-195 0 -335 76t-140 182z" />
<glyph unicode="t" horiz-adv-x="726" d="M139 1028h50v175q0 69 38 106.5t105 37.5t105.5 -37.5t38.5 -106.5v-175h87q129 0 129 -94.5t-129 -94.5h-87v-574q0 -66 72 -66h2h41q47 0 74 -25.5t27 -71.5q0 -128 -208 -128q-154 0 -224.5 63.5t-70.5 192.5v609h-50q-114 0 -114 94q0 95 114 95z" />
<glyph unicode="u" d="M114 352v558q0 144 143.5 144t143.5 -144v-501q0 -90 45.5 -144.5t135.5 -54.5q82 0 150.5 63t68.5 164v473q0 144 143.5 144t143.5 -144v-792q0 -144 -130 -144t-130 144v38h-4q-138 -181 -348 -182q-69 0 -130 19t-115 60t-85.5 118t-31.5 181z" />
<glyph unicode="v" horiz-adv-x="983" d="M13 904q0 73 41.5 111.5t99.5 38.5q112 0 143 -120l193 -649h3l193 649q32 120 143 120q57 0 99 -38.5t42 -111.5q0 -19 -19 -73l-270 -754q-22 -64 -55 -83.5t-134.5 -19.5t-134.5 19.5t-55 83.5l-270 754q-18 53 -19 73z" />
<glyph unicode="w" horiz-adv-x="1529" d="M26 920q0 54 42 94t97 40q73 0 98.5 -32.5t42.5 -107.5l152 -629h4l122 572q11 51 20 80t28 60t51 45q28 12 70 12h12h7q86 0 122 -46q36 -48 59 -151l124 -572h4l142 629q15 75 42 107.5t99 32.5q55 0 97.5 -39.5t42.5 -94.5q0 -44 -20 -106l-210 -684 q-30 -100 -65 -128t-122 -28t-121 31t-58 119l-141 564h-4l-142 -564q-24 -88 -58 -119t-120.5 -31t-122 28t-65.5 128l-210 684q-19 63 -19 106z" />
<glyph unicode="x" horiz-adv-x="945" d="M32 108q0 36 39 93l220 324l-207 310q-29 41 -29 75q0 53 40 98.5t113 45.5t116 -73l162 -266l155 255q51 84 132 84q51 0 90 -37.5t39 -86.5q0 -53 -29 -97l-209 -308l223 -330q28 -38 27 -87q0 -54 -39.5 -94t-105.5 -40q-73 0 -132 95l-165 263l-189 -300 q-37 -57 -112 -58q-53 0 -96 38.5t-43 95.5z" />
<glyph unicode="y" horiz-adv-x="983" d="M24 916q0 58 40.5 98t98.5 40q118 0 148 -108l184 -670h4l175 650q35 128 138 128q75 0 111 -45t36 -85q0 -31 -21 -91l-332 -941q-55 -158 -127 -228.5t-202 -70.5q-90 0 -135.5 37.5t-45.5 93.5q0 55 36.5 86t95.5 31h29q26 0 40 2.5t32.5 24.5t28.5 63l-299 851 q-36 102 -35 134z" />
<glyph unicode="z" horiz-adv-x="1092" d="M59 112q0 65 37 104l541 588h-415q-47 0 -81 27.5t-34 84.5t34 84.5t81 27.5h682q57 0 87.5 -34.5t30.5 -91.5q0 -47 -45 -96l-531 -582h472q47 0 81.5 -27.5t34.5 -84.5t-34 -84.5t-82 -27.5h-731q-60 0 -94 33.5t-34 78.5z" />
<glyph unicode="{" horiz-adv-x="691" d="M4 527q0 39 24.5 66.5t69.5 27.5q30 0 49.5 7.5t35.5 37.5t16 87v401q0 133 62.5 197.5t192.5 64.5h146q39 0 63.5 -24t24.5 -65q0 -89 -88 -89h-50q-92 0 -92 -118v-392q0 -64 -20.5 -106t-59 -60t-64 -23.5t-62.5 -9.5v-4q37 -4 62.5 -10t64 -23.5t59 -59.5t20.5 -106 v-393q0 -118 92 -118h50q88 0 88 -89q0 -41 -24.5 -64.5t-63.5 -23.5h-146q-130 0 -192.5 64t-62.5 198v400q0 81 -26.5 107t-74.5 26q-45 0 -69.5 27.5t-24.5 66.5z" />
<glyph unicode="|" horiz-adv-x="435" d="M100 94v1227q0 55 30.5 91.5t88 36.5t87.5 -36t30 -92v-1227q0 -55 -30 -91.5t-87.5 -36.5t-88 36.5t-30.5 91.5z" />
<glyph unicode="}" horiz-adv-x="691" d="M4 -274q0 89 88 89h49q93 0 93 118v393q0 64 21 106t59 59.5t63.5 23.5t63.5 10v4q-38 4 -63.5 9.5t-63.5 23.5t-59 60t-21 106v392q0 118 -93 118h-49q-88 0 -88 89q0 41 24.5 65t63.5 24h146q130 0 192.5 -64.5t62.5 -197.5v-401q0 -81 26.5 -106.5t73.5 -25.5 q45 0 70 -27.5t25 -66.5t-24.5 -66.5t-70.5 -27.5q-29 0 -48.5 -7t-35.5 -37.5t-16 -88.5v-400q0 -133 -62.5 -197.5t-192.5 -64.5h-146q-39 0 -63.5 23.5t-24.5 64.5z" />
<glyph unicode="~" horiz-adv-x="1178" d="M81 482q0 96 78.5 177.5t198.5 81.5q92 0 244.5 -66.5t193.5 -66.5q56 0 118.5 59t100.5 59q43 0 63.5 -28t20.5 -67q0 -96 -80.5 -177.5t-208.5 -81.5q-84 0 -234 66.5t-193 66.5q-57 0 -118.5 -59t-99.5 -59q-43 0 -63.5 28t-20.5 67z" />
<glyph unicode="&#xa1;" horiz-adv-x="621" d="M150 886.5q0 66.5 47 114t113.5 47.5t114 -47.5t47.5 -114t-47.5 -113.5t-114 -47t-113.5 47t-47 113.5zM156 -28q0 30 7 93l61 460q5 41 26.5 57t60.5 16t60 -16t26 -57l61 -460q8 -63 8 -93v-227q0 -152 -155 -152t-155 152v227z" />
<glyph unicode="&#xa2;" horiz-adv-x="1202" d="M132 493q0 235 120 384t341 171v130q0 26 18 46t42 20t41 -20.5t17 -45.5v-126q162 -11 270.5 -91t108.5 -177q0 -58 -38.5 -91t-96.5 -33q-41 0 -68.5 22t-42.5 50.5t-49 56t-84 35.5v-620q47 10 82 41t50.5 61t48 53.5t78.5 23.5q52 0 86 -32t34 -77q0 -98 -100.5 -189 t-278.5 -107v-137q0 -26 -17 -47t-41 -21t-42 21t-18 47v137q-228 15 -344.5 155.5t-116.5 359.5zM419 493q0 -114 45 -189.5t129 -95.5v610q-77 -22 -125.5 -100.5t-48.5 -224.5z" />
<glyph unicode="&#xa3;" horiz-adv-x="1202" d="M74.5 678.5q0.5 94.5 92.5 94.5h41q-58 84 -58 210q0 181 141.5 298t351.5 117q240 0 375.5 -104.5t135.5 -233.5q0 -65 -40.5 -101t-106.5 -36q-47 0 -75 24.5t-42.5 59.5t-32.5 70.5t-64 60t-119 24.5q-92 0 -159 -53t-67 -143q0 -71 66 -193h214q122 0 122 -94.5 t-122 -94.5h-156q10 -26 10 -47q0 -158 -201 -309l4 -4l49 20l54 22q15 6 48.5 12.5t67.5 6.5q67 0 159 -19.5t139 -19.5q18 0 74 11t72 11q53 0 83.5 -35.5t30.5 -91.5q0 -84 -67 -125.5t-159 -41.5q-63 0 -212.5 37.5t-239.5 37.5q-94 0 -158 -37l-23 -13 q-16 -9 -24.5 -12.5t-22.5 -8t-28 -4.5q-58 0 -92 38.5t-34 97.5q0 36 21 69t51 63l60 63q31 33 51.5 80.5t20.5 100.5q0 45 -21 98h-105q-106 0 -105.5 94.5z" />
<glyph unicode="&#xa4;" horiz-adv-x="1202" d="M100 289q0 39 32 69l53 51q-84 126 -85 277q0 150 82 278l-52 49q-30 31 -30 70t31.5 72t71.5 33q49 0 82 -34l45 -47q128 81 272 81q148 0 271 -81l45 47q33 34 82 34q42 0 72.5 -32t30.5 -73q0 -39 -30 -68l-53 -51q83 -128 83 -277.5t-83 -277.5l53 -51q30 -30 30 -69 q0 -41 -30.5 -72.5t-72.5 -31.5q-49 0 -82 33l-47 47q-124 -81 -269.5 -80.5t-269.5 80.5l-47 -47q-33 -34 -82 -33q-40 0 -71.5 32.5t-31.5 71.5zM336 686.5q0 -116.5 78 -197t187.5 -80.5t187.5 80.5t78 197t-78 197t-187.5 80.5t-187.5 -80.5t-78 -197z" />
<glyph unicode="&#xa5;" horiz-adv-x="1202" d="M36 1255q0 73 52.5 108t115.5 35q87 0 134 -92l264 -502l263 502q47 92 133 92q64 0 117 -35.5t53 -107.5q0 -34 -28 -81l-259 -427h119q34 0 55.5 -21.5t21.5 -55t-21.5 -55.5t-55.5 -22h-210l-34 -56v-57h244q34 0 55.5 -21.5t21.5 -55t-21.5 -55.5t-55.5 -22h-244 v-194q0 -72 -41 -115t-113.5 -43t-114 43t-41.5 115v194h-243q-34 0 -55.5 22t-21.5 55.5t21.5 55t55.5 21.5h243v57l-33 56h-210q-34 0 -55.5 22t-21.5 55.5t21.5 55t55.5 21.5h120l-260 427q-27 47 -27 81z" />
<glyph unicode="&#xa6;" horiz-adv-x="435" d="M100 88v372q0 53 30.5 87.5t88 34.5t87.5 -34t30 -88v-372q0 -52 -30 -87t-87.5 -35t-88 35t-30.5 87zM100 955v372q0 53 30.5 87.5t88 34.5t87.5 -34.5t30 -87.5v-372q0 -53 -30 -87.5t-87.5 -34.5t-88 34.5t-30.5 87.5z" />
<glyph unicode="&#xa7;" d="M110 572q0 111 53 180.5t158 125.5q-55 36 -87.5 93t-32.5 119q0 172 118 265.5t292.5 93.5t284 -92.5t109.5 -192.5q0 -48 -31.5 -82t-78.5 -34q-45 0 -75 33.5t-43.5 72.5t-56.5 72.5t-114 33.5q-75 0 -116.5 -39t-41.5 -88q0 -17 6 -35.5t12 -31t22 -26.5l23 -22 q8 -7 30 -20t29 -16l32 -15q25 -12 27 -14l167 -86q153 -77 224.5 -157.5t71.5 -200.5q0 -107 -53.5 -184t-145.5 -119q120 -69 120 -225q0 -161 -118 -253t-283 -92q-209 0 -318 94.5t-109 192.5q0 47 30.5 80t81.5 33q43 0 74.5 -33t50.5 -73t65 -72.5t115 -32.5 q63 0 113 31.5t50 96.5q0 15 -4.5 29t-13 28t-17 24.5t-26.5 22.5l-31 21q-13 8 -38 22t-41 22l-47 24l-52 25q-191 94 -249 142q-136 105 -136 259zM334 617q0 -35 21.5 -73.5t55.5 -55.5l334 -182q47 12 84.5 55.5t37.5 106.5q0 50 -27.5 85.5t-96.5 71.5l-289 154 q-39 -26 -57 -40.5t-40.5 -48t-22.5 -73.5z" />
<glyph unicode="&#xa8;" horiz-adv-x="546" d="M-71 1301q0 59 42 101.5t101.5 42.5t101.5 -42.5t42 -101.5t-42 -101t-101.5 -42t-101.5 42t-42 101zM330 1301q0 59 42.5 101.5t101.5 42.5t101 -42.5t42 -101.5t-42 -101t-101 -42t-101.5 42t-42.5 101z" />
<glyph unicode="&#xa9;" horiz-adv-x="1572" d="M45 708q0 226 106 398t272 257.5t363 85.5q195 0 362 -85.5t273 -257.5t106 -398t-106 -398.5t-273 -258t-362 -85.5q-197 0 -363 85.5t-272 258t-106 398.5zM270 707.5q0 -247.5 148 -405.5t368 -158q218 0 368 159t150 404.5t-149.5 405t-368.5 159.5 q-220 0 -368 -158.5t-148 -406zM420 713q0 187 106.5 308t285.5 121q146 0 237 -76.5t91 -163.5q0 -49 -27.5 -73.5t-54.5 -24.5q-43 0 -66.5 25.5t-33.5 55t-46.5 55.5t-99.5 26q-80 0 -129.5 -67.5t-49.5 -180.5q0 -112 50 -183t133 -71q57 0 93.5 26.5t49.5 57t39 57 t68 26.5q37 0 59.5 -23.5t22.5 -63.5q0 -73 -94.5 -165t-237.5 -92q-175 0 -285.5 122t-110.5 304z" />
<glyph unicode="&#xaa;" horiz-adv-x="780" d="M51 926q0 98 68 139.5t194 56.5l113 15q24 3 38 7t23.5 18t9.5 37q0 69 -107 69q-57 0 -95 -22.5t-64.5 -46t-57.5 -23.5q-38 0 -60.5 18.5t-22.5 45.5q0 57 81.5 107.5t220.5 50.5q141 0 223.5 -44.5t82.5 -132.5v-289q0 -41 10 -74.5t10 -41.5q0 -30 -27 -48.5 t-62 -18.5q-107 0 -110 101q-98 -100 -256 -101q-84 0 -148 49.5t-64 127.5zM252 942q0 -64 90 -64q73 0 114 34t41 83v61q-19 -17 -71 -28l-66 -9q-108 -18 -108 -77z" />
<glyph unicode="&#xab;" horiz-adv-x="1165" d="M139 542.5q0 96.5 67 143.5l193 140q45 31 77 31q40 0 66 -30.5t26 -71.5q0 -61 -63 -102l-161 -111l161 -109q63 -41 63 -103q0 -41 -26 -71.5t-66 -30.5q-32 0 -77 31l-193 140q-67 47 -67 143.5zM597.5 542.5q0.5 96.5 66.5 143.5l193 140q45 31 77 31 q39 0 65.5 -30.5t26.5 -71.5q1 -61 -62 -102l-161 -111l161 -109q63 -41 62 -103q0 -41 -26.5 -71.5t-65.5 -30.5q-32 0 -77 31l-193 140q-67 47 -66.5 143.5z" />
<glyph unicode="&#xac;" horiz-adv-x="1178" d="M34 788q0 53 38 85.5t99 32.5h818q86 0 121.5 -33.5t35.5 -111.5v-399q0 -61 -32.5 -99.5t-85.5 -38.5t-85.5 38.5t-32.5 99.5v308h-739q-59 0 -98 35.5t-39 82.5z" />
<glyph unicode="&#xad;" horiz-adv-x="799" d="M79 543q0 136 159 136h325q159 0 159 -136t-159 -136h-325q-159 0 -159 136z" />
<glyph unicode="&#xae;" horiz-adv-x="1572" d="M45 708q0 226 106 398t273 257.5t362 85.5t362 -85.5t273 -257.5t106 -398t-106 -398.5t-273 -258t-362 -85.5t-362 85.5t-273 258t-106 398.5zM270 707.5q0 -247.5 148 -405.5t368 -158q218 0 368 159t150 404.5t-149.5 405t-368.5 159.5q-220 0 -368 -158.5t-148 -406z M493 413v604q0 41 25.5 64.5t63.5 23.5h249q141 0 213 -53.5t72 -184.5q0 -102 -53.5 -161t-128.5 -63l130 -174q26 -35 26 -77q0 -26 -25 -47.5t-60 -21.5q-58 0 -103 62l-180 258h-52v-230q0 -43 -24.5 -66.5t-63.5 -23.5q-38 0 -63.5 23.5t-25.5 66.5zM670 784h152 q106 0 106 91q0 88 -106 89h-152v-180z" />
<glyph unicode="&#xaf;" horiz-adv-x="546" d="M-86 1301.5q0 41.5 26 65t72 23.5h523q45 0 71.5 -23.5t26.5 -65t-26.5 -65t-71.5 -23.5h-523q-46 0 -72 23.5t-26 65z" />
<glyph unicode="&#xb0;" horiz-adv-x="786" d="M112 1116.5q0 118.5 82 200t199.5 81.5t199 -81.5t81.5 -200t-81.5 -200t-199 -81.5t-199.5 81.5t-82 200zM253 1117q0 -55 42.5 -97.5t97.5 -42.5t97.5 42.5t42.5 97.5t-42.5 97.5t-97.5 42.5t-97.5 -42.5t-42.5 -97.5z" />
<glyph unicode="&#xb1;" horiz-adv-x="1178" d="M34 118q0 53 38 85.5t99 32.5h838q60 0 98.5 -32.5t38.5 -85.5q0 -47 -39 -82.5t-98 -35.5h-838q-59 0 -98 35.5t-39 82.5zM34 715q0 53 38 85.5t99 32.5h301v142q0 61 32.5 99.5t85.5 38.5t85.5 -38.5t32.5 -99.5v-142h301q60 0 98.5 -32t38.5 -86q0 -47 -39 -82 t-98 -35h-301v-142q0 -60 -32.5 -98.5t-85.5 -38.5t-85.5 38.5t-32.5 98.5v142h-301q-59 0 -98 35t-39 82z" />
<glyph unicode="&#xb2;" horiz-adv-x="756" d="M39 657q0 127 229 259l50 28q30 17 42 25l36 22q23 14 32 21l24 18q14 10 19 18t13 18.5t10.5 20.5t4.5 22.5t2 27.5q0 43 -37.5 69.5t-90.5 26.5q-116 0 -153 -102q-14 -38 -29.5 -52.5t-51.5 -14.5q-94 0 -94 80q0 107 100.5 180.5t241.5 73.5q150 0 238 -66t88 -168 q0 -111 -45 -171.5t-152 -117.5q-205 -107 -229 -130q-6 -6 -10 -12h346q94 0 94.5 -88t-94.5 -88h-479q-51 0 -78 28t-27 72z" />
<glyph unicode="&#xb3;" horiz-adv-x="756" d="M30 747q0 37 26.5 59.5t69.5 22.5q37 0 58.5 -18.5t30.5 -42t42.5 -42t90.5 -18.5q69 0 105.5 29.5t36.5 74.5q0 88 -111 100q-106 12 -105 69q0 49 25 65t86 20q84 5 84 86q0 37 -33 59t-82.5 22t-80.5 -18t-43 -38.5t-34.5 -38.5t-56.5 -18q-90 0 -90 71 q0 98 100.5 152.5t214.5 54.5q161 0 240 -67t79 -163q0 -112 -122 -163v-5q141 -31 141 -180q0 -134 -99.5 -206t-252.5 -72q-163 0 -241.5 68t-78.5 137z" />
<glyph unicode="&#xb4;" horiz-adv-x="546" d="M107 1223q0 47 56 94l146 112q85 68 132 68q52 0 78.5 -35.5t26.5 -73.5q0 -56 -72 -106l-177 -120q-51 -36 -90.5 -35.5t-69.5 25t-30 71.5z" />
<glyph unicode="&#xb5;" d="M114 -263v1173q0 144 143.5 144t143.5 -144v-501q0 -90 45.5 -144.5t135.5 -54.5q82 0 150.5 63t68.5 164v473q0 144 143.5 144t143.5 -144v-792q0 -144 -130 -144t-130 144v38h-4q-61 -81 -144.5 -131.5t-163.5 -50.5q-85 0 -115 26v-263q0 -69 -38.5 -106.5t-105 -37.5 t-105 37.5t-38.5 106.5z" />
<glyph unicode="&#xb6;" horiz-adv-x="1218" d="M19 1066q0 196 127.5 273t356.5 77h499q55 0 86.5 -32.5t31.5 -85.5v-1518q0 -53 -31 -85.5t-86 -32.5t-86.5 32t-31.5 86v1458h-191v-1458q0 -53 -31.5 -85.5t-86.5 -32.5t-86.5 32.5t-31.5 85.5v950q-212 0 -325.5 88t-113.5 248z" />
<glyph unicode="&#xb7;" horiz-adv-x="600" d="M128 570q0 73 50 123t122.5 50t123 -50t50.5 -123t-50.5 -123t-123 -50t-122.5 50t-50 123z" />
<glyph unicode="&#xb8;" horiz-adv-x="546" d="M60 -340q0 19 14 35t34 16q8 0 47.5 -11t60.5 -11q32 0 50.5 17.5t18.5 45.5q0 51 -49 51q-15 0 -36 -3t-27 -3q-45 0 -45 40q0 11 22 47l77 116h109l-73 -108h14q186 0 185 -138q0 -78 -69.5 -126t-168.5 -48q-81 0 -122.5 24t-41.5 56z" />
<glyph unicode="&#xb9;" horiz-adv-x="520" d="M-24 1146q0 40 18.5 53.5t74.5 23.5l47 8q45 7 74.5 36t39.5 57.5t34.5 51t61.5 22.5q87 0 87 -81v-662q0 -105 -106 -105t-106 105v418h-156q-69 0 -69 73z" />
<glyph unicode="&#xba;" horiz-adv-x="782" d="M45 1073.5q0 141.5 91.5 233t255 91.5t254.5 -91.5t91 -233t-83.5 -233t-262.5 -91.5t-262.5 91.5t-83.5 233zM246 1073q0 -84 36.5 -139.5t109 -55.5t109 55.5t36.5 139.5q0 89 -36.5 142t-109 53t-109 -53t-36.5 -142z" />
<glyph unicode="&#xbb;" horiz-adv-x="1165" d="M139 330q0 62 64 103l161 109l-161 111q-64 41 -64 102q0 41 27 71.5t66 30.5q32 0 77 -31l192 -140q67 -47 67 -143.5t-67 -143.5l-192 -140q-45 -31 -77 -31q-39 0 -66 30.5t-27 71.5zM598 330q-1 62 62 103l162 109l-162 111q-63 41 -62 102q0 41 26.5 71.5t65.5 30.5 q32 0 77 -31l192 -140q67 -47 67 -143.5t-67 -143.5l-192 -140q-45 -31 -77 -31q-39 0 -65.5 30.5t-26.5 71.5z" />
<glyph unicode="&#xbc;" horiz-adv-x="1800" d="M-24 1146q0 40 18.5 53.5t74.5 23.5l47 8q45 7 74.5 36t39.5 57.5t34.5 51t61.5 22.5q87 0 87 -81v-662q0 -105 -106 -105t-106 105v418h-156q-69 0 -69 73zM340 -10q0 27 22 67l707 1337q30 55 77 55q32 0 54.5 -21t22.5 -46q0 -27 -22 -67l-708 -1337q-29 -55 -76 -55 q-32 0 -54.5 20.5t-22.5 46.5zM1005 263q0 47 19 71l370 450q45 55 118 55q47 0 77.5 -24.5t30.5 -65.5v-417h48q31 0 50.5 -21.5t19.5 -55t-20 -55t-50 -21.5h-48v-104q0 -83 -100 -83t-100 83v104h-317q-47 0 -72.5 26.5t-25.5 57.5zM1191 332h229v285h-4z" />
<glyph unicode="&#xbd;" horiz-adv-x="1800" d="M-24 1146q0 40 18.5 53.5t74.5 23.5l47 8q45 7 74.5 36t39.5 57.5t34.5 51t61.5 22.5q87 0 87 -81v-662q0 -105 -106 -105t-106 105v418h-156q-69 0 -69 73zM340 -10q0 27 22 67l707 1337q30 55 77 55q32 0 54.5 -21t22.5 -46q0 -27 -22 -67l-708 -1337q-29 -55 -76 -55 q-32 0 -54.5 20.5t-22.5 46.5zM1060 100q0 128 227 260q20 12 51 28l43 24l35 22q23 14 32 21l24 18q14 11 20 19l12 18q8 11 11 20.5t5 22.5t2 27q0 43 -37.5 70t-90.5 27q-116 0 -154 -103q-13 -37 -29 -52t-51 -15q-94 0 -94 81q0 106 100 180t241 74q150 0 238.5 -66.5 t88.5 -167.5q0 -111 -45 -172t-154 -117q-204 -107 -227 -130l-10 -12h346q94 0 94 -88.5t-94 -88.5h-480q-51 0 -77.5 28.5t-26.5 71.5z" />
<glyph unicode="&#xbe;" horiz-adv-x="1800" d="M30 747q0 37 26.5 59.5t69.5 22.5q37 0 58.5 -18.5t30.5 -42t42.5 -42t90.5 -18.5q69 0 105.5 29.5t36.5 74.5q0 88 -111 100q-106 12 -105 69q0 49 25 65t86 20q84 5 84 86q0 37 -33 59t-82.5 22t-80.5 -18t-43 -38.5t-34.5 -38.5t-56.5 -18q-90 0 -90 71 q0 98 100.5 152.5t214.5 54.5q161 0 240 -67t79 -163q0 -112 -122 -163v-5q141 -31 141 -180q0 -134 -99.5 -206t-252.5 -72q-163 0 -241.5 68t-78.5 137zM480 -10q-1 27 21 67l709 1337q29 55 75 55q32 0 54.5 -21t22.5 -46q0 -27 -21 -67l-708 -1337q-30 -55 -76 -55 q-32 0 -54.5 20.5t-22.5 46.5zM1005 263q0 47 19 71l370 450q45 55 118 55q47 0 77.5 -24.5t30.5 -65.5v-417h48q31 0 50.5 -21.5t19.5 -55t-20 -55t-50 -21.5h-48v-104q0 -83 -100 -83t-100 83v104h-317q-47 0 -72.5 26.5t-25.5 57.5zM1191 332h229v285h-4z" />
<glyph unicode="&#xbf;" horiz-adv-x="1128" d="M84 -13q0 88 48 164.5t106 120.5l122 89q62 46 81 72q11 17 30 68t45 74t85 23t93 -40.5t34 -91.5q0 -79 -54.5 -146.5t-118 -109t-118 -101.5t-54.5 -122q0 -79 50.5 -124t138.5 -45q69 0 113.5 26t62.5 64l36 78q17 38 48 64.5t84 26.5q55 0 91.5 -32t36.5 -88 q0 -144 -139.5 -254t-320.5 -110q-209 0 -354.5 99.5t-145.5 294.5zM433 886.5q0 66.5 47 114t113.5 47.5t114 -47.5t47.5 -114t-47.5 -113.5t-114 -47t-113.5 47t-47 113.5z" />
<glyph unicode="&#xc0;" horiz-adv-x="1311" d="M17 116q0 40 32 124l417 1103q37 98 157 98h77q131 0 173 -118l389 -1083q32 -84 32 -124q0 -58 -44.5 -100t-107.5 -42q-112 0 -146 89l-82 236h-518l-85 -236q-30 -88 -144 -89q-67 0 -108.5 38.5t-41.5 103.5zM383 1746q0 38 27 73t80 35q49 1 131 -66l146 -113 q57 -47 57 -94.5t-30.5 -72t-70 -24.5t-90.5 36l-177 120q-73 49 -73 106zM466 523h378l-184 569h-3z" />
<glyph unicode="&#xc1;" horiz-adv-x="1311" d="M17 116q0 40 32 124l417 1103q37 98 157 98h77q131 0 173 -118l389 -1083q32 -84 32 -124q0 -58 -44.5 -100t-107.5 -42q-112 0 -146 89l-82 236h-518l-85 -236q-30 -88 -144 -89q-67 0 -108.5 38.5t-41.5 103.5zM466 523h378l-184 569h-3zM490 1580.5q0 47.5 56 94.5 l146 113q83 67 132 66q52 0 79 -35t27 -73q0 -56 -73 -106l-176 -120q-51 -36 -91 -36t-70 24.5t-30 72z" />
<glyph unicode="&#xc2;" horiz-adv-x="1311" d="M17 116q0 40 32 124l417 1103q37 98 157 98h77q131 0 173 -118l389 -1083q32 -84 32 -124q0 -58 -44.5 -100t-107.5 -42q-112 0 -146 89l-82 236h-518l-85 -236q-30 -88 -144 -89q-67 0 -108.5 38.5t-41.5 103.5zM338 1587q0 37 146 173q53 49 87.5 63.5t85.5 14.5 t85.5 -14.5t86.5 -63.5q146 -136 146 -173q0 -43 -28.5 -73t-59.5 -30q-49 0 -105 58l-125 126l-126 -126q-55 -57 -105 -58q-31 0 -59.5 30t-28.5 73zM466 523h378l-184 569h-3z" />
<glyph unicode="&#xc3;" horiz-adv-x="1311" d="M17 116q0 40 32 124l417 1103q37 98 157 98h77q131 0 173 -118l389 -1083q32 -84 32 -124q0 -58 -44.5 -100t-107.5 -42q-112 0 -146 89l-82 236h-518l-85 -236q-30 -88 -144 -89q-67 0 -108.5 38.5t-41.5 103.5zM306 1634q0 67 59 117t127 50q48 0 141 -34 q86 -35 120 -35q26 0 73 35q45 34 82 34q98 0 99 -88q0 -68 -70 -126t-139 -58q-51 0 -137.5 35.5t-103.5 35.5q-34 0 -81.5 -35.5t-74.5 -35.5q-37 0 -66 26t-29 79zM466 523h378l-184 569h-3z" />
<glyph unicode="&#xc4;" horiz-adv-x="1311" d="M17 116q0 40 32 124l417 1103q37 98 157 98h77q131 0 173 -118l389 -1083q32 -84 32 -124q0 -58 -44.5 -100t-107.5 -42q-112 0 -146 89l-82 236h-518l-85 -236q-30 -88 -144 -89q-67 0 -108.5 38.5t-41.5 103.5zM313 1659q0 59 42 101.5t101.5 42.5t101.5 -42.5 t42 -101.5t-42 -101t-101.5 -42t-101.5 42t-42 101zM466 523h378l-184 569h-3zM713 1659q0 59 42.5 101.5t101.5 42.5t101 -42.5t42 -101.5t-42 -101t-101 -42t-101.5 42t-42.5 101z" />
<glyph unicode="&#xc5;" horiz-adv-x="1311" d="M17 116q0 40 32 124l417 1103q37 98 157 98h77q131 0 173 -118l389 -1083q32 -84 32 -124q0 -58 -44.5 -100t-107.5 -42q-112 0 -146 89l-82 236h-518l-85 -236q-30 -88 -144 -89q-67 0 -108.5 38.5t-41.5 103.5zM444 1681q0 88 62 150t150.5 62t150.5 -62t62 -150 t-62 -150t-150.5 -62t-150.5 62t-62 150zM466 523h378l-184 569h-3zM555 1681q0 -43 29 -72.5t72.5 -29.5t73 29.5t29.5 72.5t-29.5 73t-73 30t-72.5 -30t-29 -73z" />
<glyph unicode="&#xc6;" horiz-adv-x="1893" d="M4 105q0 51 24 113l381 1078q24 67 58 93.5t97 26.5h1085q163 0 163 -130t-163 -130h-509v-306h464q152 0 152 -124t-152 -124h-464v-343h526q163 0 163 -129.5t-163 -129.5h-659q-92 0 -140.5 43.5t-48.5 145.5v126h-439l-80 -238q-34 -102 -149 -103q-57 0 -101.5 34.5 t-44.5 96.5zM452 539h366v629h-152z" />
<glyph unicode="&#xc7;" horiz-adv-x="1418" d="M105 708q0 204 75 369t235.5 268.5t380.5 103.5q253 0 412.5 -124t159.5 -246q0 -69 -37 -107t-108 -38q-51 0 -86.5 26.5t-60 64t-55 75t-87 63.5t-138.5 26q-158 0 -264 -129.5t-106 -351.5q0 -213 93 -347t289 -134q71 0 124 27t84.5 67.5t58 81t61 67.5t76.5 27 q63 0 109.5 -33t46.5 -91q0 -155 -163 -280t-391 -127l-51 -74h14q185 0 184 -138q0 -78 -69.5 -126t-167.5 -48q-81 0 -122 24t-41 56q0 19 13.5 35t33.5 16q7 0 46.5 -11t60.5 -11q32 0 50.5 17.5t18.5 45.5q0 51 -49 51q-15 0 -35.5 -3t-27.5 -3q-45 0 -45 40q0 11 22 47 l59 88q-289 28 -446 214.5t-157 521.5z" />
<glyph unicode="&#xc8;" horiz-adv-x="1345" d="M157 189v1038q0 102 48 145.5t141 43.5h757q163 0 163 -130t-163 -130h-623v-306h546q152 0 152 -124t-152 -124h-546v-343h638q164 0 164 -129.5t-164 -129.5h-772q-93 0 -141 43.5t-48 145.5zM441 1746q0 38 26 73t79 35q48 1 133 -66l145 -113q56 -47 56.5 -94.5 t-30 -72t-70 -24.5t-90.5 36l-176 120q-73 49 -73 106z" />
<glyph unicode="&#xc9;" horiz-adv-x="1345" d="M157 189v1038q0 102 48 145.5t141 43.5h757q163 0 163 -130t-163 -130h-623v-306h546q152 0 152 -124t-152 -124h-546v-343h638q164 0 164 -129.5t-164 -129.5h-772q-93 0 -141 43.5t-48 145.5zM546.5 1580.5q0.5 47.5 57.5 94.5l145 113q84 67 132 66q53 0 79.5 -35 t26.5 -73q0 -56 -73 -106l-177 -120q-51 -36 -90 -36t-70 24.5t-30.5 72z" />
<glyph unicode="&#xca;" horiz-adv-x="1345" d="M157 189v1038q0 102 48 145.5t141 43.5h757q163 0 163 -130t-163 -130h-623v-306h546q152 0 152 -124t-152 -124h-546v-343h638q164 0 164 -129.5t-164 -129.5h-772q-93 0 -141 43.5t-48 145.5zM396 1587q0 37 144 173q53 49 87.5 63.5t86 14.5t85.5 -14.5t88 -63.5 q146 -136 145 -173q0 -43 -28.5 -73t-59.5 -30q-49 0 -105 58l-126 126l-125 -126q-55 -57 -104 -58q-32 0 -60 30t-28 73z" />
<glyph unicode="&#xcb;" horiz-adv-x="1345" d="M157 189v1038q0 102 48 145.5t141 43.5h757q163 0 163 -130t-163 -130h-623v-306h546q152 0 152 -124t-152 -124h-546v-343h638q164 0 164 -129.5t-164 -129.5h-772q-93 0 -141 43.5t-48 145.5zM370 1659q0 59 42 101.5t101 42.5t101.5 -42.5t42.5 -101.5t-42.5 -101 t-101.5 -42t-101 42t-42 101zM771 1659q0 59 42 101.5t101 42.5t101.5 -42.5t42.5 -101.5t-42.5 -101t-101.5 -42t-101 42t-42 101z" />
<glyph unicode="&#xcc;" horiz-adv-x="621" d="M37 1746q0 38 26.5 73t80.5 35q49 1 132 -66l144 -113q57 -47 57.5 -94.5t-30 -72t-70 -24.5t-90.5 36l-177 120q-73 49 -73 106zM150 135v1145q0 73 44 117t116.5 44t117 -44t44.5 -117v-1145q0 -73 -44.5 -117t-117 -44t-116.5 44t-44 117z" />
<glyph unicode="&#xcd;" horiz-adv-x="621" d="M144 1580.5q0 47.5 57 94.5l145 113q82 67 132 66q53 0 79.5 -35t26.5 -73q0 -56 -73 -106l-177 -120q-51 -36 -90.5 -36t-69.5 24.5t-30 72zM150 135v1145q0 73 44 117t116.5 44t117 -44t44.5 -117v-1145q0 -73 -44.5 -117t-117 -44t-116.5 44t-44 117z" />
<glyph unicode="&#xce;" horiz-adv-x="621" d="M-8 1587q0 37 145 173q53 49 87.5 63.5t86 14.5t86 -14.5t87.5 -63.5q146 -136 145 -173q0 -43 -28.5 -73t-60.5 -30q-48 0 -103 58l-126 126l-126 -126q-54 -57 -104 -58q-32 0 -60.5 30t-28.5 73zM150 135v1145q0 73 44 117t116.5 44t117 -44t44.5 -117v-1145 q0 -73 -44.5 -117t-117 -44t-116.5 44t-44 117z" />
<glyph unicode="&#xcf;" horiz-adv-x="621" d="M-34 1659q0 59 42.5 101.5t101.5 42.5t101 -42.5t42 -101.5t-42 -101t-101 -42t-101.5 42t-42.5 101zM150 135v1145q0 73 44 117t116.5 44t117 -44t44.5 -117v-1145q0 -73 -44.5 -117t-117 -44t-116.5 44t-44 117zM368 1659q0 59 42 101.5t101 42.5t101.5 -42.5 t42.5 -101.5t-42.5 -101t-101.5 -42t-101 42t-42 101z" />
<glyph unicode="&#xd0;" horiz-adv-x="1491" d="M-12 721.5q0 88.5 93 88.5h69v417q0 102 48 145.5t140 43.5h394q112 0 206 -19.5t183 -70t149.5 -129.5t97.5 -203.5t37 -285.5q0 -336 -178.5 -522t-500.5 -186h-388q-92 0 -140 43.5t-48 145.5v444h-69q-93 0 -93 88.5zM472 259h271q122 0 201.5 69t109 165t29.5 215 q0 214 -84.5 331t-257.5 117h-269v-346h258q92 0 92 -88.5t-92 -88.5h-258v-374z" />
<glyph unicode="&#xd1;" horiz-adv-x="1529" d="M144 130v1123q0 98 49 143t153 45q110 0 161 -85l564 -910h4v839q0 156 155.5 156t155.5 -156v-1110q0 -201 -191 -201q-75 0 -110 18t-66 68l-561 886h-4v-816q0 -156 -155 -156t-155 156zM415 1634q0 67 59 117t126 50q49 0 141 -34q87 -35 120 -35q26 0 73 35 q45 34 83 34q98 0 98 -88q0 -68 -70 -126t-139 -58q-53 0 -139 35.5t-103 35.5q-33 0 -80 -35.5t-75 -35.5q-38 0 -66 26t-28 79z" />
<glyph unicode="&#xd2;" horiz-adv-x="1604" d="M86 726q0 320 189 521.5t527 201.5t527 -201.5t189 -521.5q0 -154 -45 -289t-130.5 -241t-225.5 -168t-314 -62q-362 0 -539.5 209t-177.5 551zM409 726q0 -499 394 -499q206 0 299 137t93 362q0 210 -101 336.5t-291.5 126.5t-292 -126.5t-101.5 -336.5zM529 1746 q0 38 26.5 73t80.5 35q48 1 131 -66l145 -113q57 -47 57.5 -94.5t-30.5 -72t-70.5 -24.5t-89.5 36l-177 120q-73 49 -73 106z" />
<glyph unicode="&#xd3;" horiz-adv-x="1604" d="M86 726q0 320 189 521.5t527 201.5t527 -201.5t189 -521.5q0 -154 -45 -289t-130.5 -241t-225.5 -168t-314 -62q-362 0 -539.5 209t-177.5 551zM409 726q0 -499 394 -499q206 0 299 137t93 362q0 210 -101 336.5t-291.5 126.5t-292 -126.5t-101.5 -336.5zM636 1580.5 q0 47.5 56 94.5l145 113q83 67 133 66q52 0 78.5 -35t26.5 -73q0 -56 -73 -106l-176 -120q-51 -36 -90.5 -36t-69.5 24.5t-30 72z" />
<glyph unicode="&#xd4;" horiz-adv-x="1604" d="M86 726q0 320 189 521.5t527 201.5t527 -201.5t189 -521.5q0 -154 -45 -289t-130.5 -241t-225.5 -168t-314 -62q-362 0 -539.5 209t-177.5 551zM409 726q0 -499 394 -499q206 0 299 137t93 362q0 210 -101 336.5t-291.5 126.5t-292 -126.5t-101.5 -336.5zM484 1587 q0 37 145 173q53 49 87.5 63.5t85.5 14.5t86 -14.5t87 -63.5q146 -136 145 -173q0 -43 -28 -73t-60 -30q-49 0 -104 58l-125 126l-126 -126q-55 -57 -105 -58q-32 0 -60 30t-28 73z" />
<glyph unicode="&#xd5;" horiz-adv-x="1604" d="M86 726q0 320 189 521.5t527 201.5t527 -201.5t189 -521.5q0 -154 -45 -289t-130.5 -241t-225.5 -168t-314 -62q-362 0 -539.5 209t-177.5 551zM409 726q0 -499 394 -499q206 0 299 137t93 362q0 210 -101 336.5t-291.5 126.5t-292 -126.5t-101.5 -336.5zM452 1634 q0 67 59 117t126 50q49 0 142 -34q86 -35 120 -35q25 0 73 35q45 34 82 34q98 0 98 -88q0 -68 -69.5 -126t-138.5 -58q-51 0 -137.5 35.5t-104.5 35.5q-34 0 -81 -35.5t-75 -35.5q-37 0 -65.5 26t-28.5 79z" />
<glyph unicode="&#xd6;" horiz-adv-x="1604" d="M86 726q0 320 189 521.5t527 201.5t527 -201.5t189 -521.5q0 -154 -45 -289t-130.5 -241t-225.5 -168t-314 -62q-362 0 -539.5 209t-177.5 551zM409 726q0 -499 394 -499q206 0 299 137t93 362q0 210 -101 336.5t-291.5 126.5t-292 -126.5t-101.5 -336.5zM458 1659 q0 59 42 101.5t101 42.5t101.5 -42.5t42.5 -101.5t-42.5 -101t-101.5 -42t-101 42t-42 101zM859 1659q0 59 42.5 101.5t101.5 42.5t101 -42.5t42 -101.5t-42 -101t-101 -42t-101.5 42t-42.5 101z" />
<glyph unicode="&#xd7;" horiz-adv-x="1178" d="M116 206q0 42 38 79l268 272l-268 271q-38 37 -38 78q0 55 36.5 89.5t91.5 34.5q37 0 75 -37l270 -269l272 269q38 37 75 37q55 0 91.5 -34.5t36.5 -89.5q0 -41 -38 -78l-270 -271l270 -272q38 -37 38 -79q0 -54 -36.5 -88.5t-91.5 -34.5q-37 0 -75 37l-272 270 l-270 -270q-38 -37 -75 -37q-55 0 -91.5 34.5t-36.5 88.5z" />
<glyph unicode="&#xd8;" horiz-adv-x="1604" d="M86 726q0 320 189 521.5t528 201.5q255 0 432 -122l84 95q53 63 103 62q88 0 88 -84q0 -36 -55 -98l-89 -99q152 -187 152 -477q0 -154 -45 -289t-130.5 -241t-225.5 -168t-314 -62q-272 0 -439 122l-103 -114q-39 -43 -84 -43q-40 0 -62.5 29.5t-22.5 58.5q1 41 62 111 l78 86q-146 191 -146 510zM409 726q0 -158 41 -268l592 655q-93 76 -239 76q-191 0 -292.5 -126.5t-101.5 -336.5zM557 302q96 -76 246 -75q206 0 299 137t93 362q0 136 -45 238z" />
<glyph unicode="&#xd9;" horiz-adv-x="1529" d="M150 531v749q0 73 44 117t116.5 44t117 -44t44.5 -117v-775q0 -279 293 -278.5t293 278.5v775q0 73 44 117t117 44t117 -44t44 -117v-749q0 -283 -162 -424t-453 -141t-453 141t-162 424zM492 1746q0 38 26 73t80 35q47 1 132 -66l145 -113q56 -47 56.5 -94.5t-30 -72 t-70 -24.5t-90.5 36l-177 120q-72 49 -72 106z" />
<glyph unicode="&#xda;" horiz-adv-x="1529" d="M150 531v749q0 73 44 117t116.5 44t117 -44t44.5 -117v-775q0 -279 293 -278.5t293 278.5v775q0 73 44 117t117 44t117 -44t44 -117v-749q0 -283 -162 -424t-453 -141t-453 141t-162 424zM598 1580.5q0 47.5 57 94.5l146 113q84 67 131 66q53 0 79.5 -35t26.5 -73 q0 -56 -72 -106l-178 -120q-51 -36 -90 -36t-69.5 24.5t-30.5 72z" />
<glyph unicode="&#xdb;" horiz-adv-x="1529" d="M150 531v749q0 73 44 117t116.5 44t117 -44t44.5 -117v-775q0 -279 293 -278.5t293 278.5v775q0 73 44 117t117 44t117 -44t44 -117v-749q0 -283 -162 -424t-453 -141t-453 141t-162 424zM446 1587q0 37 145 173q53 49 87.5 63.5t86 14.5t86 -14.5t87.5 -63.5 q146 -136 145 -173q0 -43 -28.5 -73t-59.5 -30q-49 0 -104 58l-126 126l-126 -126q-54 -57 -104 -58q-32 0 -60.5 30t-28.5 73z" />
<glyph unicode="&#xdc;" horiz-adv-x="1529" d="M150 531v749q0 73 44 117t116.5 44t117 -44t44.5 -117v-775q0 -279 293 -278.5t293 278.5v775q0 73 44 117t117 44t117 -44t44 -117v-749q0 -283 -162 -424t-453 -141t-453 141t-162 424zM420 1659q0 59 42.5 101.5t101.5 42.5t101.5 -42.5t42.5 -101.5t-42.5 -101 t-101.5 -42t-101.5 42t-42.5 101zM822 1659q0 59 42 101.5t101 42.5t101.5 -42.5t42.5 -101.5t-42.5 -101t-101.5 -42t-101 42t-42 101z" />
<glyph unicode="&#xdd;" horiz-adv-x="1202" d="M17 1294q0 75 52.5 111t110.5 36q55 0 87.5 -22.5t58.5 -71.5l282 -518l279 518q28 53 58 73.5t81 20.5q57 0 108.5 -36.5t51.5 -110.5q0 -39 -28 -84l-395 -658v-417q0 -73 -44.5 -117t-117 -44t-116.5 44t-44 117v417l-396 658q-28 45 -28 84zM435 1580.5 q0 47.5 57 94.5l145 113q83 67 132 66q53 0 79.5 -35t26.5 -73q0 -56 -72 -106l-178 -120q-51 -36 -90.5 -36t-69.5 24.5t-30 72z" />
<glyph unicode="&#xde;" horiz-adv-x="1383" d="M150 135v1145q0 73 44 117t116.5 44t117 -44t44.5 -117v-96h359q218 0 354 -112.5t136 -336.5q0 -198 -130.5 -323t-361.5 -125h-357v-152q0 -73 -44.5 -117t-117 -44t-116.5 44t-44 117zM472 535h301q98 0 161.5 55t63.5 145q0 201 -259 201h-267v-401z" />
<glyph unicode="&#xdf;" d="M114 118v880q0 216 124 332.5t360 116.5q179 0 314.5 -97t135.5 -275q0 -175 -173 -277q121 -34 184 -131t63 -228q0 -203 -123.5 -334t-319.5 -131q-67 0 -112.5 30t-45.5 86q0 38 9.5 60.5t37.5 34.5t44.5 15.5t59.5 9.5q152 24 152 227q0 116 -45.5 167t-157.5 70 q-100 17 -100 99q0 86 89 103q45 10 64.5 16.5t44 24t33.5 48.5t9 81q0 89 -46.5 139t-132.5 50q-98 0 -139.5 -65t-41.5 -159v-893q0 -69 -38.5 -106.5t-105 -37.5t-105 37.5t-38.5 106.5z" />
<glyph unicode="&#xe0;" d="M81 268q0 86 30 147t88 97t125.5 56t157.5 30l175 19q60 8 91.5 28.5t31.5 78.5t-50.5 88t-129.5 30q-73 0 -126.5 -25t-77.5 -54.5t-58 -54t-70 -24.5q-53 0 -87.5 32.5t-34.5 77.5q0 96 125 178t331 82q216 0 341 -72.5t125 -222.5v-482q0 -69 14.5 -124t14.5 -69 q0 -47 -38.5 -78.5t-90.5 -31.5q-162 0 -170 167q-152 -167 -393 -167q-129 0 -226.5 81.5t-97.5 212.5zM328 1388q0 38 26.5 73.5t80.5 35.5q49 0 131 -68l145 -112q57 -47 57.5 -94t-30 -71.5t-70 -24.5t-90.5 35l-177 120q-73 49 -73 106zM368 281q0 -49 43 -83.5 t116 -34.5q114 0 183.5 62t69.5 147v112q-31 -30 -123 -45l-105 -17q-94 -13 -139 -45.5t-45 -95.5z" />
<glyph unicode="&#xe1;" d="M81 268q0 86 30 147t88 97t125.5 56t157.5 30l175 19q60 8 91.5 28.5t31.5 78.5t-50.5 88t-129.5 30q-73 0 -126.5 -25t-77.5 -54.5t-58 -54t-70 -24.5q-53 0 -87.5 32.5t-34.5 77.5q0 96 125 178t331 82q216 0 341 -72.5t125 -222.5v-482q0 -69 14.5 -124t14.5 -69 q0 -47 -38.5 -78.5t-90.5 -31.5q-162 0 -170 167q-152 -167 -393 -167q-129 0 -226.5 81.5t-97.5 212.5zM368 281q0 -49 43 -83.5t116 -34.5q114 0 183.5 62t69.5 147v112q-31 -30 -123 -45l-105 -17q-94 -13 -139 -45.5t-45 -95.5zM435 1223q0 47 57 94l145 112 q83 68 132 68q53 0 79.5 -35.5t26.5 -73.5q0 -56 -72 -106l-178 -120q-51 -36 -90.5 -35.5t-69.5 25t-30 71.5z" />
<glyph unicode="&#xe2;" d="M81 268q0 86 30 147t88 97t125.5 56t157.5 30l175 19q60 8 91.5 28.5t31.5 78.5t-50.5 88t-129.5 30q-73 0 -126.5 -25t-77.5 -54.5t-58 -54t-70 -24.5q-53 0 -87.5 32.5t-34.5 77.5q0 96 125 178t331 82q216 0 341 -72.5t125 -222.5v-482q0 -69 14.5 -124t14.5 -69 q0 -47 -38.5 -78.5t-90.5 -31.5q-162 0 -170 167q-152 -167 -393 -167q-129 0 -226.5 81.5t-97.5 212.5zM283 1229q0 37 145 173q53 49 87.5 63.5t86 14.5t86 -14.5t87.5 -63.5q146 -136 145 -173q0 -43 -28.5 -72.5t-60.5 -29.5q-49 0 -103 57l-126 125l-126 -125 q-55 -57 -104 -57q-32 0 -60.5 29.5t-28.5 72.5zM368 281q0 -49 43 -83.5t116 -34.5q114 0 183.5 62t69.5 147v112q-31 -30 -123 -45l-105 -17q-94 -13 -139 -45.5t-45 -95.5z" />
<glyph unicode="&#xe3;" d="M81 268q0 86 30 147t88 97t125.5 56t157.5 30l175 19q60 8 91.5 28.5t31.5 78.5t-50.5 88t-129.5 30q-73 0 -126.5 -25t-77.5 -54.5t-58 -54t-70 -24.5q-53 0 -87.5 32.5t-34.5 77.5q0 96 125 178t331 82q216 0 341 -72.5t125 -222.5v-482q0 -69 14.5 -124t14.5 -69 q0 -47 -38.5 -78.5t-90.5 -31.5q-162 0 -170 167q-152 -167 -393 -167q-129 0 -226.5 81.5t-97.5 212.5zM252 1276q0 67 59 117t126 50q49 0 141 -34q86 -35 120 -34q26 0 73 34q45 34 82 34q98 0 98 -88q0 -68 -69.5 -125.5t-138.5 -57.5q-51 0 -137.5 35t-104.5 35 q-33 0 -80.5 -35t-74.5 -35q-38 0 -66 25.5t-28 78.5zM368 281q0 -49 43 -83.5t116 -34.5q114 0 183.5 62t69.5 147v112q-31 -30 -123 -45l-105 -17q-94 -13 -139 -45.5t-45 -95.5z" />
<glyph unicode="&#xe4;" d="M81 268q0 86 30 147t88 97t125.5 56t157.5 30l175 19q60 8 91.5 28.5t31.5 78.5t-50.5 88t-129.5 30q-73 0 -126.5 -25t-77.5 -54.5t-58 -54t-70 -24.5q-53 0 -87.5 32.5t-34.5 77.5q0 96 125 178t331 82q216 0 341 -72.5t125 -222.5v-482q0 -69 14.5 -124t14.5 -69 q0 -47 -38.5 -78.5t-90.5 -31.5q-162 0 -170 167q-152 -167 -393 -167q-129 0 -226.5 81.5t-97.5 212.5zM257 1301q0 59 42.5 101.5t101.5 42.5t101 -42.5t42 -101.5t-42 -101t-101 -42t-101.5 42t-42.5 101zM368 281q0 -49 43 -83.5t116 -34.5q114 0 183.5 62t69.5 147v112 q-31 -30 -123 -45l-105 -17q-94 -13 -139 -45.5t-45 -95.5zM659 1301q0 59 42 101.5t101 42.5t101.5 -42.5t42.5 -101.5t-42.5 -101t-101.5 -42t-101 42t-42 101z" />
<glyph unicode="&#xe5;" d="M81 268q0 86 30 147t88 97t125.5 56t157.5 30l175 19q60 8 91.5 28.5t31.5 78.5t-50.5 88t-129.5 30q-73 0 -126.5 -25t-77.5 -54.5t-58 -54t-70 -24.5q-53 0 -87.5 32.5t-34.5 77.5q0 96 125 178t331 82q216 0 341 -72.5t125 -222.5v-482q0 -69 14.5 -124t14.5 -69 q0 -47 -38.5 -78.5t-90.5 -31.5q-162 0 -170 167q-152 -167 -393 -167q-129 0 -226.5 81.5t-97.5 212.5zM368 281q0 -49 43 -83.5t116 -34.5q114 0 183.5 62t69.5 147v112q-31 -30 -123 -45l-105 -17q-94 -13 -139 -45.5t-45 -95.5zM390 1323q0 88 62 150t150 62t150 -62 t62 -150t-62 -150t-150 -62t-150 62t-62 150zM499 1323q0 -43 30 -72.5t73 -29.5t72.5 29.5t29.5 72.5t-29.5 73t-72.5 30t-73 -30t-30 -73z" />
<glyph unicode="&#xe6;" horiz-adv-x="1855" d="M81 268q0 86 30 147t88 97t125.5 56t157.5 30l175 19q60 8 91.5 28.5t31.5 78.5t-50.5 88t-129.5 30q-73 0 -126.5 -25t-77.5 -54.5t-58 -54t-70 -24.5q-53 0 -87.5 32.5t-34.5 77.5q0 96 125 178t331 82q222 0 353 -126q136 126 334 126q220 0 358.5 -141.5 t138.5 -328.5q0 -73 -26.5 -98.5t-99.5 -25.5h-632q0 -116 74 -188.5t174 -72.5q73 0 126 22.5t77.5 48t58 48t70.5 22.5q49 0 83.5 -35t34.5 -77q0 -80 -78.5 -141t-178 -87t-193.5 -26q-132 0 -221 41.5t-172 147.5q-163 -189 -427 -189q-163 0 -269 79.5t-106 214.5z M368 281q0 -49 43 -83.5t116 -34.5q114 0 183.5 62t69.5 147v112q-31 -30 -123 -45l-105 -17q-94 -13 -139 -45.5t-45 -95.5zM1028 625h486q-12 98 -76.5 163t-148.5 65q-210 0 -261 -228z" />
<glyph unicode="&#xe7;" horiz-adv-x="1055" d="M59 493q0 254 140.5 407.5t398.5 153.5q175 0 297 -82.5t122 -187.5q0 -58 -38.5 -91t-95.5 -33q-45 0 -74.5 26.5t-45.5 58.5t-60 58t-114 26q-99 0 -171 -79.5t-72 -256.5q0 -135 63 -214.5t179 -79.5q67 0 111 28t62 63.5t52.5 64t83.5 28.5q52 0 86 -32t34 -77 q0 -98 -98.5 -188t-271.5 -105l-59 -89h14q185 0 184 -138q0 -78 -69.5 -126t-168.5 -48q-80 0 -121.5 24t-41.5 56q0 19 14 35t34 16q8 0 47 -11t60 -11q32 0 51 17.5t19 45.5q0 51 -49 51q-16 0 -37 -3t-27 -3q-45 0 -45 40q0 11 22 47l61 94q-235 11 -355.5 151.5 t-120.5 363.5z" />
<glyph unicode="&#xe8;" horiz-adv-x="1202" d="M71 495q0 254 145.5 406.5t396.5 152.5q237 0 378.5 -140.5t141.5 -329.5q0 -73 -26.5 -98.5t-99.5 -25.5h-649q0 -116 70.5 -188.5t194.5 -72.5q73 0 126.5 22.5t78 48t57.5 48t70 22.5q49 0 83.5 -35t34.5 -77q0 -80 -78.5 -141t-177.5 -87t-194 -26q-144 0 -255 45.5 t-173 122t-93 166t-31 187.5zM328 1388q0 38 26.5 73.5t80.5 35.5q49 0 131 -68l145 -112q57 -47 57.5 -94t-30 -71.5t-70 -24.5t-90.5 35l-177 120q-73 49 -73 106zM358 625h503q-11 100 -79.5 164t-162.5 64q-210 0 -261 -228z" />
<glyph unicode="&#xe9;" horiz-adv-x="1202" d="M71 495q0 254 145.5 406.5t396.5 152.5q237 0 378.5 -140.5t141.5 -329.5q0 -73 -26.5 -98.5t-99.5 -25.5h-649q0 -116 70.5 -188.5t194.5 -72.5q73 0 126.5 22.5t78 48t57.5 48t70 22.5q49 0 83.5 -35t34.5 -77q0 -80 -78.5 -141t-177.5 -87t-194 -26q-144 0 -255 45.5 t-173 122t-93 166t-31 187.5zM358 625h503q-11 100 -79.5 164t-162.5 64q-210 0 -261 -228zM435 1223q0 47 57 94l145 112q83 68 132 68q53 0 79.5 -35.5t26.5 -73.5q0 -56 -72 -106l-178 -120q-51 -36 -90.5 -35.5t-69.5 25t-30 71.5z" />
<glyph unicode="&#xea;" horiz-adv-x="1202" d="M71 495q0 254 145.5 406.5t396.5 152.5q237 0 378.5 -140.5t141.5 -329.5q0 -73 -26.5 -98.5t-99.5 -25.5h-649q0 -116 70.5 -188.5t194.5 -72.5q73 0 126.5 22.5t78 48t57.5 48t70 22.5q49 0 83.5 -35t34.5 -77q0 -80 -78.5 -141t-177.5 -87t-194 -26q-144 0 -255 45.5 t-173 122t-93 166t-31 187.5zM283 1229q0 37 145 173q53 49 87.5 63.5t86 14.5t86 -14.5t87.5 -63.5q146 -136 145 -173q0 -43 -28.5 -72.5t-60.5 -29.5q-49 0 -103 57l-126 125l-126 -125q-55 -57 -104 -57q-32 0 -60.5 29.5t-28.5 72.5zM358 625h503q-11 100 -79.5 164 t-162.5 64q-210 0 -261 -228z" />
<glyph unicode="&#xeb;" horiz-adv-x="1202" d="M71 495q0 254 145.5 406.5t396.5 152.5q237 0 378.5 -140.5t141.5 -329.5q0 -73 -26.5 -98.5t-99.5 -25.5h-649q0 -116 70.5 -188.5t194.5 -72.5q73 0 126.5 22.5t78 48t57.5 48t70 22.5q49 0 83.5 -35t34.5 -77q0 -80 -78.5 -141t-177.5 -87t-194 -26q-144 0 -255 45.5 t-173 122t-93 166t-31 187.5zM257 1301q0 59 42.5 101.5t101.5 42.5t101 -42.5t42 -101.5t-42 -101t-101 -42t-101.5 42t-42.5 101zM358 625h503q-11 100 -79.5 164t-162.5 64q-210 0 -261 -228zM659 1301q0 59 42 101.5t101 42.5t101.5 -42.5t42.5 -101.5t-42.5 -101 t-101.5 -42t-101 42t-42 101z" />
<glyph unicode="&#xec;" horiz-adv-x="546" d="M0 1388q0 38 26.5 73.5t80.5 35.5q47 0 131 -68l145 -112q57 -47 57.5 -94t-30.5 -71.5t-70.5 -24.5t-89.5 35l-177 120q-73 49 -73 106zM130 118v792q0 144 143.5 144t143.5 -144v-792q0 -144 -143.5 -144t-143.5 144z" />
<glyph unicode="&#xed;" horiz-adv-x="546" d="M107 1223q0 47 56 94l146 112q85 68 132 68q52 0 78.5 -35.5t26.5 -73.5q0 -56 -72 -106l-177 -120q-51 -36 -90.5 -35.5t-69.5 25t-30 71.5zM130 118v792q0 144 143.5 144t143.5 -144v-792q0 -144 -143.5 -144t-143.5 144z" />
<glyph unicode="&#xee;" horiz-adv-x="546" d="M-45 1229q0 37 145 173q53 49 87.5 63.5t85.5 14.5t86 -14.5t87 -63.5q146 -136 145 -173q0 -43 -28 -72.5t-60 -29.5q-49 0 -104 57l-125 125l-126 -125q-55 -57 -105 -57q-31 0 -59.5 29.5t-28.5 72.5zM130 118v792q0 144 143.5 144t143.5 -144v-792 q0 -144 -143.5 -144t-143.5 144z" />
<glyph unicode="&#xef;" horiz-adv-x="546" d="M-71 1301q0 59 42 101.5t101.5 42.5t101.5 -42.5t42 -101.5t-42 -101t-101.5 -42t-101.5 42t-42 101zM130 118v792q0 144 143.5 144t143.5 -144v-792q0 -144 -143.5 -144t-143.5 144zM330 1301q0 59 42.5 101.5t101.5 42.5t101 -42.5t42 -101.5t-42 -101t-101 -42 t-101.5 42t-42.5 101z" />
<glyph unicode="&#xf0;" horiz-adv-x="1202" d="M71 516q0 234 140.5 386t379.5 152q132 0 189 -61l4 3q-49 126 -147 209l-202 -90q-28 -12 -52 -12q-26 0 -43 17t-17 44q0 43 56 69l142 63q-35 19 -83 31t-69 22.5t-21 38.5q0 61 93 61q155 0 279 -65l163 73q28 12 51 12q26 0 43.5 -17t17.5 -45q0 -43 -57 -68 l-88 -39q141 -122 212 -321t71 -416q0 -270 -128.5 -429.5t-402.5 -159.5q-141 0 -246.5 43t-166.5 120t-89.5 171.5t-28.5 207.5zM358 516q0 -142 61 -235.5t183 -93.5t183 93t61 236q0 147 -62 236.5t-182 89.5t-182 -89.5t-62 -236.5z" />
<glyph unicode="&#xf1;" d="M114 118v792q0 144 129.5 144t129.5 -144v-37h4q138 180 349 181q69 0 129.5 -18.5t114.5 -60t86 -118.5t32 -180v-559q0 -144 -143.5 -144t-143.5 144v501q0 90 -46 144.5t-136 54.5q-82 0 -150 -63t-68 -164v-473q0 -144 -143.5 -144t-143.5 144zM252 1276q0 67 59 117 t126 50q49 0 141 -34q86 -35 120 -34q26 0 73 34q45 34 82 34q98 0 98 -88q0 -68 -69.5 -125.5t-138.5 -57.5q-51 0 -137.5 35t-104.5 35q-33 0 -80.5 -35t-74.5 -35q-38 0 -66 25.5t-28 78.5z" />
<glyph unicode="&#xf2;" horiz-adv-x="1202" d="M71 516q0 236 139.5 387t391 151t391.5 -151.5t140 -386.5q0 -113 -29 -207.5t-90 -171.5t-166 -120t-246.5 -43t-246.5 43t-166 120t-89.5 171.5t-28.5 207.5zM328 1388q0 38 26.5 73.5t80.5 35.5q49 0 131 -68l145 -112q57 -47 57.5 -94t-30 -71.5t-70 -24.5t-90.5 35 l-177 120q-73 49 -73 106zM358 516q0 -142 61 -235.5t183 -93.5t183 93t61 236q0 147 -62 236.5t-182 89.5t-182 -89.5t-62 -236.5z" />
<glyph unicode="&#xf3;" horiz-adv-x="1202" d="M71 516q0 236 139.5 387t391 151t391.5 -151.5t140 -386.5q0 -113 -29 -207.5t-90 -171.5t-166 -120t-246.5 -43t-246.5 43t-166 120t-89.5 171.5t-28.5 207.5zM358 516q0 -142 61 -235.5t183 -93.5t183 93t61 236q0 147 -62 236.5t-182 89.5t-182 -89.5t-62 -236.5z M435 1223q0 47 57 94l145 112q83 68 132 68q53 0 79.5 -35.5t26.5 -73.5q0 -56 -72 -106l-178 -120q-51 -36 -90.5 -35.5t-69.5 25t-30 71.5z" />
<glyph unicode="&#xf4;" horiz-adv-x="1202" d="M71 516q0 236 139.5 387t391 151t391.5 -151.5t140 -386.5q0 -113 -29 -207.5t-90 -171.5t-166 -120t-246.5 -43t-246.5 43t-166 120t-89.5 171.5t-28.5 207.5zM283 1229q0 37 145 173q53 49 87.5 63.5t86 14.5t86 -14.5t87.5 -63.5q146 -136 145 -173q0 -43 -28.5 -72.5 t-60.5 -29.5q-49 0 -103 57l-126 125l-126 -125q-55 -57 -104 -57q-32 0 -60.5 29.5t-28.5 72.5zM358 516q0 -142 61 -235.5t183 -93.5t183 93t61 236q0 147 -62 236.5t-182 89.5t-182 -89.5t-62 -236.5z" />
<glyph unicode="&#xf5;" horiz-adv-x="1202" d="M71 516q0 236 139.5 387t391 151t391.5 -151.5t140 -386.5q0 -113 -29 -207.5t-90 -171.5t-166 -120t-246.5 -43t-246.5 43t-166 120t-89.5 171.5t-28.5 207.5zM252 1276q0 67 59 117t126 50q49 0 141 -34q86 -35 120 -34q26 0 73 34q45 34 82 34q98 0 98 -88 q0 -68 -69.5 -125.5t-138.5 -57.5q-51 0 -137.5 35t-104.5 35q-33 0 -80.5 -35t-74.5 -35q-38 0 -66 25.5t-28 78.5zM358 516q0 -142 61 -235.5t183 -93.5t183 93t61 236q0 147 -62 236.5t-182 89.5t-182 -89.5t-62 -236.5z" />
<glyph unicode="&#xf6;" horiz-adv-x="1202" d="M71 516q0 236 139.5 387t391 151t391.5 -151.5t140 -386.5q0 -113 -29 -207.5t-90 -171.5t-166 -120t-246.5 -43t-246.5 43t-166 120t-89.5 171.5t-28.5 207.5zM257 1301q0 59 42.5 101.5t101.5 42.5t101 -42.5t42 -101.5t-42 -101t-101 -42t-101.5 42t-42.5 101z M358 516q0 -142 61 -235.5t183 -93.5t183 93t61 236q0 147 -62 236.5t-182 89.5t-182 -89.5t-62 -236.5zM659 1301q0 59 42 101.5t101 42.5t101.5 -42.5t42.5 -101.5t-42.5 -101t-101.5 -42t-101 42t-42 101z" />
<glyph unicode="&#xf7;" horiz-adv-x="1178" d="M34 557q0 53 38 85t99 32h838q60 0 98.5 -32t38.5 -85.5t-38.5 -85.5t-98.5 -32h-838q-59 0 -98 35t-39 83zM417 149.5q0 72.5 50 123t122.5 50.5t123 -50.5t50.5 -123t-50.5 -123t-123 -50.5t-122.5 50.5t-50 123zM417 963.5q0 72.5 50 123t122.5 50.5t123 -50.5 t50.5 -123t-50.5 -123t-123 -50.5t-122.5 50.5t-50 123z" />
<glyph unicode="&#xf8;" horiz-adv-x="1202" d="M43 10q0 33 41 74l81 85q-94 133 -94 347q0 236 139.5 387t391.5 151q193 0 324 -95l83 85q45 45 83 46q27 0 47.5 -21t20.5 -50q0 -34 -42 -75l-86 -91q100 -137 101 -337q0 -113 -29 -207.5t-90 -171.5t-166 -120t-246 -43q-203 0 -330 91l-77 -80q-45 -45 -83 -45 q-28 0 -48.5 20.5t-20.5 49.5zM358 516q0 -76 15 -131l383 397q-63 59 -154 60q-120 0 -182 -90t-62 -236zM448 248q61 -61 154 -61q122 0 183 93t61 236q-1 74 -15 129z" />
<glyph unicode="&#xf9;" d="M114 352v558q0 144 143.5 144t143.5 -144v-501q0 -90 45.5 -144.5t135.5 -54.5q82 0 150.5 63t68.5 164v473q0 144 143.5 144t143.5 -144v-792q0 -144 -130 -144t-130 144v38h-4q-138 -181 -348 -182q-69 0 -130 19t-115 60t-85.5 118t-31.5 181zM328 1388 q0 38 26.5 73.5t80.5 35.5q49 0 131 -68l145 -112q57 -47 57.5 -94t-30 -71.5t-70 -24.5t-90.5 35l-177 120q-73 49 -73 106z" />
<glyph unicode="&#xfa;" d="M114 352v558q0 144 143.5 144t143.5 -144v-501q0 -90 45.5 -144.5t135.5 -54.5q82 0 150.5 63t68.5 164v473q0 144 143.5 144t143.5 -144v-792q0 -144 -130 -144t-130 144v38h-4q-138 -181 -348 -182q-69 0 -130 19t-115 60t-85.5 118t-31.5 181zM435 1223q0 47 57 94 l145 112q83 68 132 68q53 0 79.5 -35.5t26.5 -73.5q0 -56 -72 -106l-178 -120q-51 -36 -90.5 -35.5t-69.5 25t-30 71.5z" />
<glyph unicode="&#xfb;" d="M114 352v558q0 144 143.5 144t143.5 -144v-501q0 -90 45.5 -144.5t135.5 -54.5q82 0 150.5 63t68.5 164v473q0 144 143.5 144t143.5 -144v-792q0 -144 -130 -144t-130 144v38h-4q-138 -181 -348 -182q-69 0 -130 19t-115 60t-85.5 118t-31.5 181zM283 1229q0 37 145 173 q53 49 87.5 63.5t86 14.5t86 -14.5t87.5 -63.5q146 -136 145 -173q0 -43 -28.5 -72.5t-60.5 -29.5q-49 0 -103 57l-126 125l-126 -125q-55 -57 -104 -57q-32 0 -60.5 29.5t-28.5 72.5z" />
<glyph unicode="&#xfc;" d="M114 352v558q0 144 143.5 144t143.5 -144v-501q0 -90 45.5 -144.5t135.5 -54.5q82 0 150.5 63t68.5 164v473q0 144 143.5 144t143.5 -144v-792q0 -144 -130 -144t-130 144v38h-4q-138 -181 -348 -182q-69 0 -130 19t-115 60t-85.5 118t-31.5 181zM257 1301 q0 59 42.5 101.5t101.5 42.5t101 -42.5t42 -101.5t-42 -101t-101 -42t-101.5 42t-42.5 101zM659 1301q0 59 42 101.5t101 42.5t101.5 -42.5t42.5 -101.5t-42.5 -101t-101.5 -42t-101 42t-42 101z" />
<glyph unicode="&#xfd;" horiz-adv-x="983" d="M24 916q0 58 40.5 98t98.5 40q118 0 148 -108l184 -670h4l175 650q35 128 138 128q75 0 111 -45t36 -85q0 -31 -21 -91l-332 -941q-55 -158 -127 -228.5t-202 -70.5q-90 0 -135.5 37.5t-45.5 93.5q0 55 36.5 86t95.5 31h29q26 0 40 2.5t32.5 24.5t28.5 63l-299 851 q-36 102 -35 134zM324 1223q0 47 57 94l146 112q83 68 132 68q52 0 79 -35.5t27 -73.5q0 -56 -73 -106l-176 -120q-51 -36 -91 -35.5t-70.5 25t-30.5 71.5z" />
<glyph unicode="&#xfe;" d="M114 -263v1561q0 69 38.5 106t105 37t105 -37.5t38.5 -105.5v-374h4q32 55 102.5 92.5t173.5 37.5q193 0 321.5 -140.5t128.5 -406.5q0 -224 -114.5 -378.5t-328.5 -154.5q-198 0 -283 146h-4v-383q0 -69 -38.5 -106.5t-105 -37.5t-105 37.5t-38.5 106.5zM385 517 q0 -129 55 -224.5t175 -93.5q66 0 113 30t70.5 79.5t34.5 102t11 106.5q0 134 -59 222.5t-170 89.5q-118 0 -174 -88t-56 -224z" />
<glyph unicode="&#xff;" horiz-adv-x="983" d="M24 916q0 58 40.5 98t98.5 40q118 0 148 -108l184 -670h4l175 650q35 128 138 128q75 0 111 -45t36 -85q0 -31 -21 -91l-332 -941q-55 -158 -127 -228.5t-202 -70.5q-90 0 -135.5 37.5t-45.5 93.5q0 55 36.5 86t95.5 31h29q26 0 40 2.5t32.5 24.5t28.5 63l-299 851 q-36 102 -35 134zM148 1301q0 59 42 101.5t101 42.5t101.5 -42.5t42.5 -101.5t-42.5 -101t-101.5 -42t-101 42t-42 101zM548 1301q0 59 42.5 101.5t101.5 42.5t101 -42.5t42 -101.5t-42 -101t-101 -42t-101.5 42t-42.5 101z" />
<glyph unicode="&#x152;" horiz-adv-x="1966" d="M86 674q0 116 18 222t62 207.5t111 174.5t171 118t236 45q231 0 348 -163q10 77 47 107.5t107 30.5h578q163 0 163 -130t-163 -130h-439v-306h431q152 0 152 -124t-152 -124h-431v-343h454q163 0 163 -129.5t-163 -129.5h-584q-88 0 -119.5 32.5t-43.5 102.5 q-116 -161 -381 -161q-185 0 -316.5 102.5t-190 257t-58.5 340.5zM409 670q0 -220 87.5 -334t227.5 -114q122 0 206.5 92.5t84.5 246.5v292q0 140 -78 240t-207 100q-154 0 -237.5 -135t-83.5 -388z" />
<glyph unicode="&#x153;" horiz-adv-x="1893" d="M71 516q0 236 139.5 387t391.5 151q218 0 353 -163q150 163 372 163q220 0 357.5 -141.5t137.5 -328.5q0 -73 -26.5 -98.5t-99.5 -25.5h-613q0 -116 68 -188.5t162 -72.5q73 0 126 22.5t78 48t58 48t70 22.5q49 0 84 -35t35 -77q0 -80 -79 -141t-178.5 -87t-193.5 -26 q-257 0 -362 167q-135 -167 -385 -167q-129 0 -226.5 43t-154.5 120t-85.5 171.5t-28.5 207.5zM358 516q0 -142 61 -235.5t183 -93.5q116 0 174.5 93t58.5 236q0 147 -58.5 236.5t-174.5 89.5q-120 0 -182 -89.5t-62 -236.5zM1083 625h468q-11 98 -76.5 163t-147.5 65 q-107 0 -162.5 -58t-81.5 -170z" />
<glyph unicode="&#x178;" horiz-adv-x="1202" d="M17 1294q0 75 52.5 111t110.5 36q55 0 87.5 -22.5t58.5 -71.5l282 -518l279 518q28 53 58 73.5t81 20.5q57 0 108.5 -36.5t51.5 -110.5q0 -39 -28 -84l-395 -658v-417q0 -73 -44.5 -117t-117 -44t-116.5 44t-44 117v417l-396 658q-28 45 -28 84zM257 1659 q0 59 42.5 101.5t101.5 42.5t101 -42.5t42 -101.5t-42 -101t-101 -42t-101.5 42t-42.5 101zM659 1659q0 59 42 101.5t101 42.5t101.5 -42.5t42.5 -101.5t-42.5 -101t-101.5 -42t-101 42t-42 101z" />
<glyph unicode="&#x2c6;" horiz-adv-x="546" d="M-45 1229q0 37 145 173q53 49 87.5 63.5t85.5 14.5t86 -14.5t87 -63.5q146 -136 145 -173q0 -43 -28 -72.5t-60 -29.5q-49 0 -104 57l-125 125l-126 -125q-55 -57 -105 -57q-31 0 -59.5 29.5t-28.5 72.5z" />
<glyph unicode="&#x2dc;" horiz-adv-x="546" d="M-77 1276q0 67 59 117t126 50q49 0 142 -34q86 -35 120 -34q26 0 73 34q45 34 82 34q98 0 98 -88q0 -68 -69.5 -125.5t-138.5 -57.5q-53 0 -139.5 35t-102.5 35q-34 0 -81 -35t-75 -35q-37 0 -65.5 25.5t-28.5 78.5z" />
<glyph unicode="&#x2000;" horiz-adv-x="946" />
<glyph unicode="&#x2001;" horiz-adv-x="1893" />
<glyph unicode="&#x2002;" horiz-adv-x="946" />
<glyph unicode="&#x2003;" horiz-adv-x="1893" />
<glyph unicode="&#x2004;" horiz-adv-x="631" />
<glyph unicode="&#x2005;" horiz-adv-x="473" />
<glyph unicode="&#x2006;" horiz-adv-x="315" />
<glyph unicode="&#x2007;" horiz-adv-x="315" />
<glyph unicode="&#x2008;" horiz-adv-x="236" />
<glyph unicode="&#x2009;" horiz-adv-x="378" />
<glyph unicode="&#x200a;" horiz-adv-x="105" />
<glyph unicode="&#x2010;" horiz-adv-x="799" d="M79 543q0 136 159 136h325q159 0 159 -136t-159 -136h-325q-159 0 -159 136z" />
<glyph unicode="&#x2011;" horiz-adv-x="799" d="M79 543q0 136 159 136h325q159 0 159 -136t-159 -136h-325q-159 0 -159 136z" />
<glyph unicode="&#x2012;" horiz-adv-x="799" d="M79 543q0 136 159 136h325q159 0 159 -136t-159 -136h-325q-159 0 -159 136z" />
<glyph unicode="&#x2013;" horiz-adv-x="983" d="M19 543q0 106 116 106h713q116 0 116 -106t-116 -106h-713q-116 0 -116 106z" />
<glyph unicode="&#x2014;" horiz-adv-x="1966" d="M19 543q0 106 116 106h1696q116 0 116 -106t-116 -106h-1696q-116 0 -116 106z" />
<glyph unicode="&#x2018;" horiz-adv-x="621" d="M137 1093q0 95 25 153t76 110q28 26 82.5 55.5t96.5 29.5q31 0 49 -17t18 -42q0 -27 -32 -46t-69 -31.5t-70.5 -53.5t-36.5 -111q31 18 66 18q65 0 103.5 -44t38.5 -107q0 -67 -47 -114t-114 -47q-91 0 -138.5 69.5t-47.5 177.5z" />
<glyph unicode="&#x2019;" horiz-adv-x="621" d="M137 904q0 28 32 47t69.5 31.5t70.5 53.5t37 110q-32 -17 -67 -17q-65 0 -103.5 43.5t-38.5 107.5q0 67 47.5 114t114.5 47q90 0 137.5 -69.5t47.5 -178.5q0 -94 -24.5 -152t-76.5 -111q-28 -26 -82.5 -55t-96.5 -29q-31 0 -49 16t-18 42z" />
<glyph unicode="&#x201a;" horiz-adv-x="621" d="M137 148q0 67 47.5 114t114.5 47q90 0 137.5 -70t47.5 -179q0 -94 -24.5 -152t-76.5 -111q-28 -25 -82.5 -54.5t-96.5 -29.5q-31 0 -49 17t-18 42q0 27 32 46t69.5 32t70.5 54t37 109q-32 -17 -67 -17q-65 0 -103.5 44t-38.5 108z" />
<glyph unicode="&#x201c;" horiz-adv-x="1055" d="M132 1093q0 95 24 153t76 110q28 26 83 55.5t96 29.5q32 0 49.5 -17t17.5 -42q0 -27 -31.5 -46t-69 -31.5t-70.5 -53.5t-37 -111q31 18 66 18q65 0 103.5 -44t38.5 -107q0 -67 -47.5 -114t-113.5 -47q-90 0 -137.5 69.5t-47.5 177.5zM578 1093q0 95 24.5 153t76.5 110 q28 26 82.5 55.5t95.5 29.5q32 0 49.5 -17t17.5 -42q0 -27 -31.5 -46t-69 -31.5t-70.5 -53.5t-38 -111q32 18 67 18q66 0 104 -44t38 -107q0 -67 -47.5 -114t-113.5 -47q-90 0 -137.5 69.5t-47.5 177.5z" />
<glyph unicode="&#x201d;" horiz-adv-x="1055" d="M132 904q0 28 31.5 47t69 31.5t70.5 53.5t37 110q-32 -17 -66 -17q-66 0 -104 43.5t-38 107.5q0 67 47.5 114t113.5 47q90 0 137.5 -69.5t47.5 -178.5q0 -94 -25 -152t-76 -111q-28 -26 -82.5 -55t-95.5 -29q-32 0 -49.5 16t-17.5 42zM578 904q0 28 31.5 47t68.5 31.5 t70.5 53.5t37.5 110q-31 -17 -66 -17q-65 0 -103.5 43.5t-38.5 107.5q0 67 47 114t114 47q90 0 137.5 -69.5t47.5 -178.5q0 -94 -24.5 -152t-75.5 -111q-28 -26 -83 -55t-96 -29q-32 0 -49.5 16t-17.5 42z" />
<glyph unicode="&#x201e;" horiz-adv-x="1055" d="M132 148q0 67 47.5 114t113.5 47q90 0 137.5 -70t47.5 -179q0 -94 -25 -152t-76 -111q-28 -25 -82.5 -54.5t-95.5 -29.5q-32 0 -49.5 17t-17.5 42q0 27 31.5 46t69 32t70.5 54t37 109q-32 -17 -66 -17q-66 0 -104 44t-38 108zM578 148q0 67 47 114t114 47q90 0 137.5 -70 t47.5 -179q0 -94 -24.5 -152t-75.5 -111q-28 -25 -83 -54.5t-96 -29.5q-32 0 -49.5 17t-17.5 42q0 27 31.5 46t68.5 32t70.5 54t37.5 109q-31 -17 -66 -17q-65 0 -103.5 44t-38.5 108z" />
<glyph unicode="&#x2022;" horiz-adv-x="983" d="M137 708q0 145 104.5 249.5t250 104.5t250 -104.5t104.5 -249.5t-104.5 -249.5t-250 -104.5t-250 104.5t-104.5 249.5z" />
<glyph unicode="&#x2026;" horiz-adv-x="1966" d="M167 147.5q0 66.5 47 114t114.5 47.5t114.5 -47.5t47 -114t-47 -113.5t-114.5 -47t-114.5 47t-47 113.5zM822 147.5q0 66.5 47 114t114 47.5t114 -47.5t47 -114t-47 -113.5t-114 -47t-114 47t-47 113.5zM1476 147.5q0 66.5 47.5 114t114.5 47.5t114 -47.5t47 -114 t-47 -113.5t-114 -47t-114.5 47t-47.5 113.5z" />
<glyph unicode="&#x202f;" horiz-adv-x="378" />
<glyph unicode="&#x2039;" horiz-adv-x="726" d="M149.5 542.5q0.5 96.5 66.5 143.5l193 140q45 31 77 31q39 0 65.5 -30.5t26.5 -71.5q1 -61 -62 -102l-162 -111l162 -109q63 -41 62 -103q0 -41 -26.5 -71.5t-65.5 -30.5q-32 0 -77 31l-193 140q-67 47 -66.5 143.5z" />
<glyph unicode="&#x203a;" horiz-adv-x="726" d="M150 330q-1 62 62 103l161 109l-161 111q-63 41 -62 102q0 41 26.5 71.5t65.5 30.5q32 0 77 -31l192 -140q67 -47 67 -143.5t-67 -143.5l-192 -140q-45 -31 -77 -31q-39 0 -65.5 30.5t-26.5 71.5z" />
<glyph unicode="&#x205f;" horiz-adv-x="473" />
<glyph unicode="&#x20ac;" horiz-adv-x="1202" d="M0 833q0 19 5 34.5t17 23.5t21.5 13.5t28 6.5t29.5 2t33 0t29 -1q55 236 210.5 370t393.5 134q59 0 131 -13t147 -38.5t125.5 -74.5t50.5 -114q0 -59 -37.5 -103.5t-95.5 -44.5q-45 0 -92.5 32t-104 63t-122.5 31q-203 0 -287 -242h405q36 0 55 -3t36.5 -20.5t17.5 -51.5 q0 -49 -28 -65t-81 -16h-433q-4 -31 -4 -47v-62h351q35 0 54.5 -3t37 -20.5t17.5 -51.5q0 -49 -28.5 -64.5t-80.5 -15.5h-332q71 -270 304 -270q75 0 178 58t150 58q53 0 84.5 -38.5t31.5 -91.5q0 -67 -51 -117t-129 -74.5t-149.5 -35.5t-134.5 -11q-252 0 -403 136 t-194 386h-46q-50 0 -79 14.5t-29 61.5q0 24 10 39.5t19.5 23.5t34 12t34.5 4h39v55q0 37 2 54h-34q-51 0 -79 15t-28 62z" />
<glyph unicode="&#x2122;" horiz-adv-x="1966" d="M34 1327q0 35 23.5 62t72.5 27h485q49 0 71.5 -27t22.5 -62t-22.5 -62t-71.5 -27h-125v-523q0 -69 -39.5 -98t-79 -29t-79 29t-39.5 98v523h-123q-49 0 -72.5 27t-23.5 62zM812 715v536q0 94 50 135.5t113 41.5q150 0 211 -152l127 -328l128 328q60 152 210 152 q64 0 113.5 -41.5t49.5 -135.5v-536q0 -69 -39 -98t-78.5 -29t-78.5 29t-39 98v366h-5l-143 -389q-39 -104 -117.5 -104t-118.5 104l-143 389h-4v-366q0 -69 -39 -98t-78.5 -29t-79 29.5t-39.5 97.5z" />
<glyph unicode="&#xe000;" horiz-adv-x="1055" d="M0 1055h1055v-1055h-1055v1055z" />
<glyph unicode="&#xfb01;" d="M25.5 933.5q0.5 94.5 113.5 94.5h50v144q0 148 70.5 212.5t230.5 64.5q172 0 172 -130q0 -49 -27 -77.5t-69 -28.5q-7 0 -25 3t-25 3q-40 0 -40 -63v-128h70q116 0 116 -94.5t-116 -94.5h-70v-721q0 -69 -38.5 -106.5t-105.5 -37.5t-105 37.5t-38 106.5v721h-50 q-114 0 -113.5 94.5zM779 1299q0 61 43 105.5t106 44.5t106 -44.5t43 -105.5t-43 -105t-106 -44t-106 44t-43 105zM784 118v792q0 144 143.5 144t143.5 -144v-792q0 -144 -143.5 -144t-143.5 144z" />
<glyph unicode="&#xfb02;" d="M25.5 933.5q0.5 94.5 113.5 94.5h50v144q0 148 70.5 212.5t230.5 64.5q172 0 172 -130q0 -49 -27 -77.5t-69 -28.5q-7 0 -25 3t-25 3q-40 0 -40 -63v-128h70q116 0 116 -94.5t-116 -94.5h-70v-721q0 -69 -38.5 -106.5t-105.5 -37.5t-105 37.5t-38 106.5v721h-50 q-114 0 -113.5 94.5zM784 118v1180q0 69 38.5 106t105.5 37t105 -37.5t38 -105.5v-1180q0 -69 -38 -106.5t-105 -37.5t-105.5 37.5t-38.5 106.5z" />
<glyph unicode="&#xfb03;" horiz-adv-x="1999" d="M1577 1299q0 61 44 105.5t105 44.5t105 -44.5t44 -105.5t-44 -105t-105 -44t-105 44t-44 105zM1583 118v792q0 144 143.5 144t143.5 -144v-792q0 -144 -143.5 -144t-143.5 144zM866 1028h65v144q0 130 93 203.5t224 73.5q83 0 135.5 -34.5t52.5 -103.5q0 -39 -27 -68.5 t-65 -29.5q-11 0 -31 3t-31 3q-63 0 -63 -67v-124h88q129 0 129 -94.5t-129 -94.5h-88v-721q0 -69 -38.5 -106.5t-105.5 -37.5t-105.5 37.5t-38.5 106.5v721h-65q-114 0 -114 94q0 95 114 95zM139 1028h65v144q0 130 93 203.5t224 73.5q83 0 135.5 -34.5t52.5 -103.5 q0 -39 -27 -68.5t-65 -29.5q-11 0 -31 3t-31 3q-63 0 -63 -67v-124h88q129 0 129 -94.5t-129 -94.5h-88v-721q0 -69 -38.5 -106.5t-105.5 -37.5t-105.5 37.5t-38.5 106.5v721h-65q-114 0 -114 94q0 95 114 95z" />
<glyph unicode="&#xfb04;" horiz-adv-x="1999" d="M1583 118v1180q0 69 38 106t105 37t105.5 -37.5t38.5 -105.5v-1180q0 -69 -38.5 -106.5t-105.5 -37.5t-105 37.5t-38 106.5zM866 1028h65v144q0 130 93 203.5t224 73.5q83 0 135.5 -34.5t52.5 -103.5q0 -39 -27 -68.5t-65 -29.5q-11 0 -31 3t-31 3q-63 0 -63 -67v-124h88 q129 0 129 -94.5t-129 -94.5h-88v-721q0 -69 -38.5 -106.5t-105.5 -37.5t-105.5 37.5t-38.5 106.5v721h-65q-114 0 -114 94q0 95 114 95zM139 1028h65v144q0 130 93 203.5t224 73.5q83 0 135.5 -34.5t52.5 -103.5q0 -39 -27 -68.5t-65 -29.5q-11 0 -31 3t-31 3 q-63 0 -63 -67v-124h88q129 0 129 -94.5t-129 -94.5h-88v-721q0 -69 -38.5 -106.5t-105.5 -37.5t-105.5 37.5t-38.5 106.5v721h-65q-114 0 -114 94q0 95 114 95z" />
</font>
</defs>
</svg>
