<svg xmlns="http://www.w3.org/2000/svg"><symbol id="add-to-cart" viewBox="0 0 80 80"><title>add-to-cart</title><circle cx="24.3" cy="69.1" r="6.7"/><circle cx="62.3" cy="69.1" r="6.7"/><path d="M48.3 7.4v16.4H65v10.3H48.3v16.4H37.8V34.1H21.1V23.8h16.7V7.5H1v7h7.8L12.1 50s.8 7.2 7.2 7.2h44.9s6.7.5 8.3-7.2c1.6-7.6 6.6-42.6 6.6-42.6H48.3z"/></symbol><symbol id="check" viewBox="0 0 80 80"><title>check</title><path d="M65.3 7.6l-7 7.3L30 43.3l-8.3-8-7.3-7.3L0 42.4l7.3 7.3L22.7 65l7 7.3L37 65l35.7-35.7L80 22 65.3 7.6z"/></symbol><symbol id="credit-card" viewBox="0 0 80 80"><title>credit-card</title><path d="M75.1 2.4H4.9C2.7 2.4 1 4.1 1 6.3v41c0 2.2 1.7 3.9 3.9 3.9h25.9c.3-.6.5-1.2.9-1.8H4.9c-1.1 0-2-.9-2-2V24h74.2v23.4c0 1.1-.9 2-2 2h-7.3l.9 1.8h6.5c2.2 0 3.9-1.7 3.9-3.9v-41c0-2.1-1.8-3.9-4-3.9zM2.9 10.3V6.4c0-1.1.9-2 2-2h70.2c1.1 0 2 .9 2 2v3.9H2.9z"/><path d="M66.7 49.4c-3.4-5.9-9.7-9.9-16.9-9.9-7.3 0-13.6 4-17 9.9l-.9 1.8c-1 2.4-1.6 5-1.6 7.8 0 1.3.1 2.6.4 3.8 1.8 9 9.6 15.8 19.1 15.8 9.6 0 17.5-6.8 19.2-15.9.2-1.2.3-2.4.3-3.6 0-2.8-.6-5.5-1.7-7.9l-.9-1.8zm.5 12.2c-.2 1.1-.4 2.1-.8 3.1-2.4 6.9-8.9 11.9-16.6 11.9-7.7 0-14.2-5-16.6-11.9-.3-1-.6-2-.8-3.1-.1-.9-.2-1.7-.2-2.6 0-2.8.7-5.5 1.9-7.9.3-.6.7-1.2 1-1.8 3.2-4.8 8.6-7.9 14.7-7.9s11.5 3.1 14.7 7.9c.4.6.7 1.2 1 1.8 1.2 2.4 1.9 5.1 1.9 7.9 0 1-.1 1.8-.2 2.6z"/><path d="M54.7 51.4l-.7 3.2c-.8-.7-1.8-1.1-2.8-1-1.2 0-2.3.5-3 1.3-.5.6-.8 1.2-.9 2h6.3l-.4 1.8H47v1.5h5.9l-.4 1.8h-5.2c.1.7.4 1.4.9 2 .7.9 1.8 1.4 3 1.4 1.3.1 2.6-.4 3.5-1.4v3.5c-1.1.5-2.3.8-3.5.7-2.1.1-4.1-.8-5.5-2.3-1-1.1-1.7-2.4-2-3.9H42l.4-1.8h1.1v-1.5H42l.4-1.8h1.4c.3-1.4 1-2.7 2-3.8 1.5-1.6 3.6-2.4 5.7-2.3 1 0 2.2.2 3.2.6z"/></symbol><symbol id="crown" viewBox="0 0 80 80"><title>crown</title><path d="M65.63 70.95H14.853c-3.869 0-7.254-2.902-7.254-6.77L4.214 33.713c0-.967.484-1.934 1.451-2.418.967-.484 2.418 0 2.902.967 4.352 6.287 10.639 13.541 13.057 13.541 2.902 0 10.639-14.024 15.959-29.016.484-1.934 3.869-1.934 4.352 0 5.32 15.475 13.057 29.016 15.959 29.016 2.418 0 8.705-6.77 13.541-13.541.484-.967 1.934-1.451 2.902-.967.967.484 1.451 1.451 1.451 2.418L72.884 64.18c-.483 3.868-3.868 6.77-7.254 6.77zM9.534 41.934l2.418 21.762c0 1.451 1.451 2.418 2.418 2.418h50.777c1.451 0 2.418-.967 2.418-2.418l2.418-21.762c-3.385 4.352-8.221 8.705-12.09 8.705-6.77-.484-14.508-16.442-18.377-26.598-3.869 10.155-11.606 25.63-17.893 26.598-3.385 0-8.221-4.352-12.089-8.705z"/><circle cx="6.148" cy="33.713" r="4.836"/><circle cx="40" cy="13.886" r="4.836"/><circle cx="73.852" cy="33.713" r="4.836"/><g><circle cx="40" cy="54.991" r="4.836"/></g></symbol><symbol id="download" viewBox="0 0 80 80"><title>download</title><path d="M64 43.5l-24 24-24-24 4.4-4.4 16.5 16.5V0h6.3v55.6l16.5-16.5 4.3 4.4zm16 30.2H0V80h80v-6.3z"/></symbol><symbol id="earphone" viewBox="0 0 15 15"><title>earphone</title><path d="M12.806 9.836a8.546 8.546 0 01-1.207-.227 2.441 2.441 0 00-1.139-.014 2.562 2.562 0 00-1 .46l-.548.413a1.313 1.313 0 01-1.485.071 8.944 8.944 0 01-2.97-2.97 1.312 1.312 0 01.072-1.481l.4-.531a2.227 2.227 0 00.42-.841l.066-.275a2.211 2.211 0 00-.026-1.072 8.57 8.57 0 01-.208-1.1A2.523 2.523 0 002.702 0h-.147a2.512 2.512 0 00-2.54 2.747 13.887 13.887 0 0012.238 12.238A2.506 2.506 0 0015 12.469v-.168a2.48 2.48 0 00-2.194-2.465z" fill="#333"/></symbol><symbol id="envelope" viewBox="0 0 15.001 10.001"><title>envelope</title><path data-name="Tracé 412" d="M.3 2.1C1.759 3.185 5.9 6 7.5 6s5.743-2.816 7.2-3.9A.5.5 0 0115 2V1a1 1 0 00-1-1H1a1 1 0 00-1 1v1.009a.491.491 0 01.3.091z" fill="#333"/><path data-name="Tracé 413" d="M12.501 4.812l2.5 2.857V3.12a47 47 0 01-2.5 1.692z" fill="#333"/><path data-name="Tracé 414" d="M0 3.12v4.55l2.5-2.858A46.807 46.807 0 010 3.12z" fill="#333"/><path data-name="Tracé 415" d="M11.633 5.34a10.266 10.266 0 01-4.132 1.661A10.265 10.265 0 013.368 5.34L.017 9.169a1 1 0 00.983.832h13a1 1 0 00.983-.832z" fill="#333"/></symbol><symbol id="euro" viewBox="0 0 80 80"><title>euro</title><path d="M52.4 5.6c7.3 0 14.4 2.3 20.2 6.7l1.5 1.1V6.5l-.4-.3C55.2-5.6 30.6-.1 18.8 18.4c-2.2 3.5-3.9 7.4-5 11.4H5.9v5.6h6.9c-.2 1.5-.3 3.1-.3 4.6v1.1H6.3v5.6h6.8c3.5 21.7 24 36.4 45.7 32.9 5.3-.9 10.4-2.8 14.9-5.7l.4-.3v-6.9l-1.5 1.1c-5.9 4.3-13 6.7-20.2 6.7-16.4 0-30.5-11.7-33.7-27.8H57v-5.6H18.1V40c0-1.5.1-3.1.3-4.6h38.2v-5.6h-37C24 15.4 37.3 5.6 52.4 5.6z"/></symbol><symbol id="facebook" viewBox="0 0 25 25"><title>facebook</title><path d="M25 12.5a12.5 12.5 0 10-14.45 12.35v-8.74H7.37V12.5h3.18V9.75c0-3.14 1.86-4.87 4.72-4.87a18.78 18.78 0 012.8.25V8.2h-1.58a1.82 1.82 0 00-2 2v2.3h3.47l-.55 3.61h-2.96v8.74A12.51 12.51 0 0025 12.5z"/><path d="M17.37 16.11l.55-3.61h-3.47v-2.34a1.82 1.82 0 012-2h1.58V5.13a18.78 18.78 0 00-2.8-.25c-2.86 0-4.72 1.73-4.72 4.87v2.75H7.37v3.61h3.18v8.74a12.75 12.75 0 003.9 0v-8.74z" fill="#fff"/></symbol><symbol id="film" viewBox="0 0 80 80"><title>film</title><path d="M1 6v68h78V6H1zm61 6h11v8H62v-8zM6 12h12v8H6v-8zm12 56H6v-8h12v8zm0-14H6v-7h12v7zm0-11H6v-6h12v6zm0-11H6v-6h12v6zm39 36H23V52h34v16zm0-23H23V34h34v11zm0-16H23V12h34v17zm16 39H62v-8h11v8zm1-14H62v-7h12v7zm0-11H62v-6h12v6zm0-11H62v-6h12v6z"/></symbol><symbol id="flash" viewBox="0 0 75 75"><title>flash</title><path d="M39.68 1.05a2.79 2.79 0 00-4.36 0L18 22.94a5.7 5.7 0 00-1.31 3.67v42.87A5.37 5.37 0 0021.88 75h31.24a5.37 5.37 0 005.21-5.52V26.61A5.7 5.7 0 0057 22.94z"/><circle fill="currentColor" cx="37.5" cy="10.97" r="3.47"/><path fill="currentColor" d="M49 32.34l-2.42 14.21a.54.54 0 00.54.64h4.78a.56.56 0 01.47.84L41.29 66.25a.32.32 0 01-.59-.25l2.42-14.62a.54.54 0 00-.54-.64h-4.34a.55.55 0 01-.47-.83l10.59-17.79a.32.32 0 01.64.22zM35.46 43.75H23A1.39 1.39 0 1123 41h12.46a1.39 1.39 0 010 2.78zm-4.12 8.11H23a1.39 1.39 0 110-2.77h8.35a1.39 1.39 0 110 2.77zm3.71 7.58H23a1.39 1.39 0 110-2.78h12.05a1.39 1.39 0 010 2.78z"/></symbol><symbol id="follow_delivery" viewBox="0 0 80 80"><title>follow_delivery</title><path d="M56.7 64.1V38.3c0-.5-.3-.9-.7-1.1L29 22.4c-.3-.2-.8-.2-1.1 0-2 1.1-22.9 12.3-27 14.3-.4.3-.6.6-.6 1.1v23.7c0 .4.2.8.6 1l26.9 16.9c.2.1.4.2.6.2h.6l27.1-14.4c.4-.2.6-.6.6-1.1zM28.4 24.8L53 38.3l-6.8 3.8-24.6-13.5 6.8-3.8zM19 29.9L45 44v7.6L40.8 54v-7.3c0-.1 0-.3-.1-.4-.1-.1-.1-.2-.2-.4l-.1-.1-.1-.1-25.5-13.5 4.2-2.3zm8.2 46.4L2.7 60.9v-21l24.5 13.8v22.6zm1.2-24.6L4 37.8l8.2-4.3L37 47l-8.6 4.7zm25.9 11.5L29.6 76.5V53.8l8.8-4.8v7c0 .4.2.9.6 1.1.2.1.4.1.6.1.2 0 .4 0 .6-.1l6.6-3.6c.4-.2.6-.6.6-1.1V44l6.9-3.9v23.1z"/><path d="M22.2 60.7c.6.3 1.4 0 1.6-.6.4-.6.2-1.3-.3-1.6L7.7 49.4c-.6-.3-1.4 0-1.6.6-.3.6-.1 1.2.4 1.6l15.7 9.1zM6.5 57.4l15.7 9.1c.6.3 1.3.1 1.7-.5.2-.5.1-1.2-.5-1.5L7.6 55.2c-.6-.2-1.3 0-1.6.5-.3.6-.1 1.3.5 1.7zm61.2-18.3c.4 0 .8-.2 1.1-.6.5-.7 10.9-18 10.9-26.2C79.6 5.7 74.2.5 67.7.5S55.8 5.7 55.8 12.3v.1c0 8.5 10.4 25.5 10.9 26.2.1.4.5.5 1 .5zm-5-27c0-2.8 2.2-5 5-5s5 2.2 5 5c-.1 2.7-2.3 4.9-5 5-2.7 0-5-2.2-5-5zm9.6 30.5c-.2-.2-.5-.4-.8-.4s-.6.1-.8.4l-6.9 6.9c-.5.5-.5 1.2 0 1.7s1.2.5 1.7 0l5-5V75H49.4c-.7 0-1.2.5-1.2 1.2s.5 1.2 1.2 1.2h22c.6 0 1.2-.4 1.2-1.1V46.4l5 5c.5.5 1.2.5 1.7 0s.5-1.2 0-1.7l-7-7.1zM10.4 28.2c.6 0 1.2-.4 1.2-1.1V9.8h37.2l-5 5c-.4.5-.4 1.2.1 1.7.5.4 1.1.4 1.6 0l6.9-6.9c.1-.1.2-.2.2-.4.1-.2.2-.3.2-.5s0-.3-.1-.5c0-.1-.1-.2-.2-.4L45.6.9c-.4-.5-1.2-.5-1.6 0-.5.4-.5 1.2 0 1.6l5 5H10.4c-.6 0-1.1.5-1.2 1.1V27c0 .7.6 1.2 1.2 1.2z"/></symbol><symbol id="home-delivery" viewBox="0 0 80 80"><title>home-delivery</title><path d="M190 9.8c.4 0 .8.1 1.1.4l35.7 28.3c.8.6 1 1.8.4 2.7-.6.8-1.8 1-2.7.4l-.1-.1L190 14.1l-34.5 27.4c-.8.6-2 .5-2.7-.3-.6-.8-.5-2 .3-2.7l13.4-10.6V11.7c0-1 .8-1.9 1.9-1.9h7.5c1 0 1.9.8 1.9 1.9V19l11-8.8c.4-.3.8-.4 1.2-.4zm-16 3.8h-3.8v11.3l3.8-3v-8.3zm39.5 21.6l3.8 3v30.2c0 1-.8 1.9-1.9 1.9h-16c-1 0-1.9-.8-1.9-1.9v-17h-15v17c0 1-.8 1.9-1.9 1.9h-16c-1 0-1.9-.8-1.9-1.9V38.2l3.8-3v31.2h12.2v-17c0-1 .8-1.9 1.9-1.9h18.8c1 0 1.9.8 1.9 1.9v17h12.2V35.2z" transform="translate(-150)"/></symbol><symbol id="home" viewBox="0 0 80 80"><title>home</title><path d="M65.757 79.474H14.243a3.57 3.57 0 01-3.565-3.565V35.727a3.57 3.57 0 013.565-3.565h51.514a3.57 3.57 0 013.565 3.565v40.182a3.57 3.57 0 01-3.565 3.565zM14.243 34.161c-.863 0-1.565.702-1.565 1.565v40.182c0 .863.702 1.565 1.565 1.565h51.514c.863 0 1.565-.702 1.565-1.565V35.727c0-.863-.702-1.565-1.565-1.565H14.243z"/><path d="M65.757 79.974H14.243a4.07 4.07 0 01-4.065-4.065V35.727a4.07 4.07 0 014.065-4.065h51.514a4.07 4.07 0 014.065 4.065v40.182a4.07 4.07 0 01-4.065 4.065zM14.243 32.661a3.069 3.069 0 00-3.065 3.065v40.182a3.069 3.069 0 003.065 3.065h51.514a3.069 3.069 0 003.065-3.065V35.727a3.069 3.069 0 00-3.065-3.065H14.243zm51.514 45.313H14.243a2.068 2.068 0 01-2.065-2.065V35.727c0-1.139.927-2.065 2.065-2.065h51.514c1.139 0 2.065.927 2.065 2.065v40.182a2.068 2.068 0 01-2.065 2.065zM14.243 34.661c-.588 0-1.065.478-1.065 1.065v40.182c0 .588.478 1.065 1.065 1.065h51.514c.588 0 1.065-.478 1.065-1.065V35.727c0-.588-.478-1.065-1.065-1.065H14.243z"/><g><path d="M6.786 40.602l-1.537-1.279L36.011 2.397A5.184 5.184 0 0140.003.526h.001a5.182 5.182 0 013.991 1.871l30.756 36.917-1.537 1.279L42.458 3.677a3.19 3.19 0 00-2.454-1.15h-.001c-.951 0-1.847.42-2.455 1.15L6.786 40.602z"/><path d="M6.851 41.306l-2.306-1.919 31.082-37.31A5.683 5.683 0 0140.003.026a5.687 5.687 0 014.377 2.051l31.075 37.302-2.306 1.919L42.074 3.997a2.694 2.694 0 00-4.142 0L6.851 41.306zm-.898-2.048l.769.64L37.164 3.356a3.684 3.684 0 012.839-1.33 3.688 3.688 0 012.839 1.33L73.278 39.89l.769-.64L43.611 2.718a4.686 4.686 0 00-3.607-1.691 4.684 4.684 0 00-3.609 1.691L5.953 39.258z"/></g></symbol><symbol id="instagram" viewBox="0 0 25 25"><title>instagram</title><path d="M12.5 2.25c3.34 0 3.73 0 5.05.08a6.55 6.55 0 012.32.43 3.73 3.73 0 011.44.93 3.73 3.73 0 01.93 1.44 6.55 6.55 0 01.43 2.32c.07 1.32.08 1.71.08 5.05s0 3.73-.08 5.05a6.55 6.55 0 01-.43 2.32 4.07 4.07 0 01-2.37 2.37 6.55 6.55 0 01-2.32.43c-1.32.07-1.71.08-5.05.08s-3.73 0-5-.08a6.55 6.55 0 01-2.32-.43 3.73 3.73 0 01-1.44-.93 3.73 3.73 0 01-.93-1.44 6.55 6.55 0 01-.43-2.32c-.07-1.32-.08-1.71-.08-5.05s0-3.73.08-5a6.55 6.55 0 01.43-2.32 3.73 3.73 0 01.93-1.44 3.73 3.73 0 011.44-.93 6.55 6.55 0 012.32-.43c1.32-.07 1.71-.08 5.05-.08M12.5 0C9.11 0 8.68 0 7.35.08a9.2 9.2 0 00-3 .58A6 6 0 002.1 2.1 6 6 0 00.66 4.31a9.2 9.2 0 00-.58 3C0 8.68 0 9.11 0 12.5s0 3.82.08 5.15a9.2 9.2 0 00.58 3A6 6 0 002.1 22.9a6 6 0 002.21 1.44 9.2 9.2 0 003 .58c1.37.08 1.8.08 5.19.08s3.82 0 5.15-.08a9.2 9.2 0 003-.58 6.39 6.39 0 003.65-3.65 9.2 9.2 0 00.58-3c.07-1.33.08-1.76.08-5.15s0-3.82-.08-5.15a9.2 9.2 0 00-.58-3 6 6 0 00-1.4-2.29A6 6 0 0020.69.66a9.2 9.2 0 00-3-.58C16.32 0 15.89 0 12.5 0z"/><path d="M12.5 6.08a6.42 6.42 0 106.42 6.42 6.41 6.41 0 00-6.42-6.42zm0 10.59a4.17 4.17 0 114.17-4.17 4.17 4.17 0 01-4.17 4.17z"/><circle cx="19.17" cy="5.83" r="1.5"/></symbol><symbol id="linkedin" viewBox="0 0 25 25"><title>linkedin</title><path d="M12.49 0h10.65A1.83 1.83 0 0125 1.5v21.72A1.78 1.78 0 0123.3 25H1.87a1.75 1.75 0 01-1.79-1.28 2 2 0 01-.08-.53V1.82A1.77 1.77 0 011.78 0h10.71z"/><path d="M21.34 21.35h-3.76v-6.2a7.67 7.67 0 00-.16-1.51 1.53 1.53 0 00-1.62-1.26 3.92 3.92 0 00-.84.07 1.87 1.87 0 00-1.37 1.68 6.75 6.75 0 00-.1 1.19v6H9.7v-12h3.64v1.64a3.86 3.86 0 012.31-1.76 5.19 5.19 0 013.51.3 3.54 3.54 0 011.94 2.65 11 11 0 01.24 2.57zM3.66 9.34h3.78v12.01H3.66zm1.89-1.59a2.18 2.18 0 112.17-2.16 2.15 2.15 0 01-2.17 2.16z" fill="#fff"/></symbol><symbol id="lock" viewBox="0 0 80 80"><title>lock</title><path d="M62.7 73.4c0 1-.8 1.7-1.7 1.7H5.7c-1 0-1.7-.8-1.7-1.7V33.2c0-1 .8-1.7 1.7-1.7H61c1 0 1.7.8 1.7 1.7v13.2l1.9-2V33.2c.1-2-1.6-3.6-3.6-3.6h-2.9C58.1 14.9 46.6 2 33.4 2S8.7 14.9 8.7 29.6h-3c-2 0-3.6 1.6-3.6 3.6v40.2c0 2 1.6 3.6 3.6 3.6H61c2 0 3.6-1.6 3.6-3.6V65l-1.9 2v6.4zM33.4 4c12.1 0 22.7 12 22.7 25.6H10.7C10.7 16 21.3 4 33.4 4z"/><path d="M40 47.4c0-1.4-.4-2.7-1.3-3.9-1.3-1.6-3.3-2.6-5.3-2.6-3.7 0-6.6 3-6.6 6.7 0 2.1 1 4 2.6 5.2l-1 7.7-.3 2.1h10l-1.9-1.8h-5.9l1.2-8.9C29 50.8 27.9 48 29 45.6c.8-1.7 2.5-2.8 4.4-2.8 2.6 0 4.7 2.1 4.8 4.7v.6c.5-.4 1.2-.7 1.8-.7z"/><path d="M77.1 44.9l-3.8-3.5c-1-1-2.6-.9-3.6.1L53.6 58.6c-.4.4-.9.5-1.4.3-.1 0-.2-.1-.2-.1-.1-.1-.2-.1-.3-.2l-9.4-8.8c-.3-.4-.8-.6-1.3-.7H40.2c-.5.1-1.1.3-1.5.8l-3.5 3.8c-1 1-.9 2.6.1 3.6l16 15.1c1 1 2.6.9 3.6-.1l5.3-5.6 17.1-18.2c.9-1.1.9-2.7-.2-3.6z"/></symbol><symbol id="logout" viewBox="0 0 80 80"><title>logout</title><path d="M40 73C21.8 73 7 58.2 7 40c0-15.1 8.2-27.1 21.3-31.2l1.8 5.7C19.6 17.9 13 27.6 13 40c0 14.9 12.1 27 27 27s27-12.1 27-27c0-12.6-6.5-22.1-17.4-25.3L51.2 9C64.6 12.9 73 24.8 73 40c0 18.2-14.8 33-33 33z"/><path d="M37 0h6v30h-6z"/></symbol><symbol id="map-and-map-marker" viewBox="0 0 80 80"><title>map-and-map-marker</title><path d="M79.94 21.36a1.23 1.23 0 00-.8-.8l-5.25-1.62-3.56-.83-1.32-2a1.2 1.2 0 00-.92-.55l-3.15-.27h-2.39L60 12.78v-2.35a1.22 1.22 0 00-2-1l-1.7 1.35h-.46l-.41-1.68a1.22 1.22 0 00-.63-.79l-3.28-1.7a1.26 1.26 0 00-.52-.14h-1.1L49.59 5a1.25 1.25 0 00-1.2-1h-1.45l-.72-.23-.4-2.44A1.23 1.23 0 0044 .52l-5.59 2.9a1.22 1.22 0 00-.64.87l-1.17 6.23-3.9 1.74-3.7 2.31a1.24 1.24 0 00-.47 1.55l.36.79-1.84.63-3.83-.91-.19-1.22a1.22 1.22 0 00-1.21-1H21l-2.52-.66A1.22 1.22 0 0017 15.13l.53 2.73a1.26 1.26 0 00.13.37l.73 1.28v3.31a.66.66 0 000 .14l-.24-.09a1.24 1.24 0 00-1 .08l-1.81 1h-1.58l-.57-.68a1.53 1.53 0 00-.31-.26l-2.05-1.2a1.23 1.23 0 00-1.15-.06L7.41 22.8H4.8a1 1 0 00-.36.06L.86 24A1.22 1.22 0 000 25.13v1.78a1.23 1.23 0 001.22 1.23h.5l-.92.32a1.26 1.26 0 00-.78.84 1.22 1.22 0 00.25 1.1l1.18 1.4.74 1.39a1.24 1.24 0 001.5.57l1.77-.65 7.59 2.41v.9a1.23 1.23 0 001.23 1.23h.6l.49.95v1.9a1.25 1.25 0 00.3.81l3 3.39a1.29 1.29 0 00.38.28l2.44 1.21v.7h-.63a1.23 1.23 0 00-1 .56 1.19 1.19 0 00-.08 1.17l1.71 3.76-1.78 15.1-1.71 1.1a1.22 1.22 0 00-.55 1 1.19 1.19 0 00.47 1l3.37 2.59 5.3 2.52a1.4 1.4 0 00.4.11l6.23.63a1.22 1.22 0 001.24-.71l.17-.37 5.85 2.12 2.52 1.9a1.27 1.27 0 00.75.25 1.07 1.07 0 00.25 0l5.16-1.09a1.23 1.23 0 00.87-.71 1.2 1.2 0 00-.03-1.15l-1.09-1.8v-1.44l4.68-3.67 2.45 2a1.23 1.23 0 001.21.21l2.11-.79 5.74 2.74a1.21 1.21 0 001.08 0l4-2a1.17 1.17 0 00.35-.27l4.11-4.47 2-3a1.22 1.22 0 00-1-1.9h-1.6l-1.84-1.12.74-2.59a1.23 1.23 0 00-.62-1.42l-1.52-.79v-.46l1.84-1.08a1.22 1.22 0 00.52-1.5L71.9 50l.84-1.15a1.22 1.22 0 000-1.51L71.6 46l-.87-2.51a1.22 1.22 0 00-1.16-.83h-1.23l.51-.51a1.23 1.23 0 00.36-.87v-1.35l2.23-1.45a1.19 1.19 0 00.55-.9l.11-1.06.22.07a1.22 1.22 0 001.16-.23l1.73-1.47a1.23 1.23 0 00.41-.7l1.67-8.54 2.45-3.17a1.22 1.22 0 00.2-1.12zM66.76 39.27v1.53l-1.51 1.5a1.23 1.23 0 00-.36.87v1.09l-1 1.39a1.22 1.22 0 001.49 1.83l2-.91a1.29 1.29 0 00.49-.41l.73-1h.08l.65 1.9a1.11 1.11 0 00.22.38l.63.77-.67.92a1.21 1.21 0 00-.16 1.16l1.14 3-1.49.86a1.23 1.23 0 00-.6 1.05v1.9a1.22 1.22 0 00.6 1.09l1.3.67-.71 2.49a1.21 1.21 0 00.5 1.36l2.78 1.85a1.13 1.13 0 00.39.17l-.66 1-3.78 4.11-3.25 1.63-5.67-2.71a1.23 1.23 0 00-1 0l-1.9.69-2.65-2.2a1.22 1.22 0 00-1.54 0l-5.93 4.65a1.22 1.22 0 00-.46 1v2.37a1.27 1.27 0 00.17.63l.38.62-2.93.62-2.2-1.68a1.14 1.14 0 00-.32-.18l-7.09-2.56a1.24 1.24 0 00-.41-.08 1.22 1.22 0 00-1.12.72l-.28.6-5.14-.53L22.54 71l-1.73-1.34.72-.48a1.23 1.23 0 00.55-.88l1.85-16a1.31 1.31 0 00-.1-.65l-1.07-2.34a1.22 1.22 0 001.18-1.22v-2.64a1.21 1.21 0 00-.69-1.1l-2.9-1.43-2.51-2.86v-1.73a1.22 1.22 0 00-.14-.56l-1-1.88a1.21 1.21 0 00-1.09-.67h-.13v-.58a1.22 1.22 0 00-.85-1.17l-8.85-2.8a1.23 1.23 0 00-.78 0l-1.18.43-.42-.74-.1-.16 1-.37a1.22 1.22 0 00.47-2l-1.64-1.77a1.84 1.84 0 00-.22-.17L5 25.25h2.7a1.21 1.21 0 00.53-.12l1.94-.92 1.3.77.81.95a1.22 1.22 0 00.93.43h2.46a1.19 1.19 0 00.58-.15l1.6-.85 2.62.93a1.23 1.23 0 001.48-1.75l-1.11-2v-3.35a1.25 1.25 0 00-.16-.6l-.78-1.39-.12-.62c.79.2 1 .24 1.06.25l.16 1a1.23 1.23 0 00.92 1l5 1.19a1.21 1.21 0 00.68 0l3.4-1.23a1.24 1.24 0 00.72-.68 1.18 1.18 0 000-1l-.47-1 2.68-1.68 4.29-1.9a1.23 1.23 0 00.71-.9l1.18-6.28 3.57-1.85.25 1.5a1.21 1.21 0 00.82 1l1.61.52a1.21 1.21 0 00.38.06h.67L47.72 8a1.22 1.22 0 001.2 1h1.73l2.58 1.34.51 2.08a1.21 1.21 0 001.19.93h1.85a1.26 1.26 0 00.76-.27v.33a1.22 1.22 0 00.37.87l3.24 3.18a1.25 1.25 0 00.86.35h2.79l2.44.21 1.27 1.94a1.2 1.2 0 00.75.53l4 .93 3.47 1.07-1.55 2a1.36 1.36 0 00-.23.52L73.3 33.3l-.89.75-1-.32a1.19 1.19 0 00-1 .15 1.22 1.22 0 00-.55.9l-.2 2-2.3 1.49a1.23 1.23 0 00-.6 1z"/><path d="M44 29.44a9.21 9.21 0 00-9.25 9.26c0 6.63 8.13 19.81 8.51 20.37.09.28.37.37.74.37a1 1 0 00.8-.44c.38-.57 8.51-14 8.51-20.38A9.34 9.34 0 0044 29.44zm0 12.93a3.84 3.84 0 01-3.86-3.86A3.86 3.86 0 1144 42.37z"/></symbol><symbol id="map-marker" viewBox="0 0 10.501 15"><title>map-marker</title><path d="M5.251 0a5.249 5.249 0 00-5.25 5.247 6.048 6.048 0 00.983 3.3L5.251 15l4.267-6.45a6.008 6.008 0 00.983-3.3A5.249 5.249 0 005.254 0zm0 7.249a2 2 0 112-2 2 2 0 01-2 2z" fill="#333"/></symbol><symbol id="mda" viewBox="0 0 80 80"><title>mda</title><path d="M14.2 38c0-.5 0-1.1.1-1.7 0-.6 0-1.2.1-1.8 0 .6.2 1.2.3 1.8.1.6.3 1.3.5 2l2.2 7.5h4.1l2.2-7.5c.2-.7.4-1.4.5-2 .1-.7.2-1.3.3-1.8 0 .6.1 1.2.1 1.8 0 .6 0 1.2.1 1.8l.9 7.7 7.2.1-3.1-19.4h-7.2L21 31.2c-.4 1.1-.7 2.2-.9 3.1-.2.9-.4 1.8-.5 2.6h-.1c-.2-1.7-.6-3.3-1.1-5l-.2-.7-1.4-4.8H9.6L6.3 45.7h7l.9-7.7zm30.4 7.4c1-.1 2.1-.4 3.1-.9 1.6-.8 3-2 3.9-3.5 1.8-3 1.8-6.8 0-9.9-1-1.5-2.3-2.7-3.9-3.5-1-.4-2-.8-3.1-.9-1.5-.2-3.1-.3-4.6-.3h-5.7v19.4l5.2-.1c1.7 0 3.4-.1 5.1-.3zm-3.4-13h.3c1.1-.1 2.3.2 3.2.9.8.7 1.1 1.7 1.1 2.8.1 1.1-.3 2.2-1.1 2.9-1 .7-2.3 1-3.5.9v-7.5zm18.9 13.4l.6-2.5H66l.6 2.5h7.6l-6.8-19.4h-7.8l-6.9 19.4h7.4zm2.4-9.3c.3-1.1.5-2 .6-2.6.1-.6.2-1.1.2-1.7h.1c0 .6.1 1.2.2 1.7.1.6.3 1.5.6 2.6l.6 2.2h-2.9l.6-2.2zM49.3 47.8c-7.3-.6-14.7-.4-22 .5-7.4.8-14.5 2.4-21.6 4.5l.3.9c6.9-2.2 14.1-3.6 21.4-4.3 7.2-.9 14.5-1.1 21.8-.6 8.4.6 16.8 2.2 24.8 4.9l.5-.9c-8.2-2.8-16.6-4.5-25.2-5z"/></symbol><symbol id="menu-dots" viewBox="0 0 80 80"><title>menu-dots</title><path d="M.957.816h9.614v9.614H.957zm22.824 0h9.614v9.614h-9.614zm22.824 0h9.614v9.614h-9.614zm22.823 0h9.614v9.614h-9.614zM.957 23.734h9.614v9.614H.957zm22.824 0h9.614v9.614h-9.614zm22.824 0h9.614v9.614h-9.614zm22.823 0h9.614v9.614h-9.614zM.957 46.652h9.614v9.614H.957zm22.824 0h9.614v9.614h-9.614zm22.824 0h9.614v9.614h-9.614zm22.823 0h9.614v9.614h-9.614zM.957 69.569h9.614v9.614H.957zm22.824 0h9.614v9.614h-9.614zm22.824 0h9.614v9.614h-9.614zm22.823 0h9.614v9.614h-9.614z"/></symbol><symbol id="menu-down" viewBox="0 0 80 80"><title>menu-down</title><path d="M40.376 60.573L1.659 21.478l1.366-1.353 37.338 37.703 36.599-37.695 1.379 1.337z"/><path d="M40.383 62.002L.245 21.471l2.787-2.76 37.323 37.688 36.585-37.68 2.815 2.73z"/></symbol><symbol id="menu-hamburger" viewBox="0 0 80 80"><title>menu-hamburger</title><path d="M.428 7.204h79.551v7.525H.428zm0 19.356h79.551v7.525H.428zM.021 45.916h79.551v7.525H.021zm0 19.355h79.551v7.525H.021z" fill="currentColor"/></symbol><symbol id="menu-left-double" viewBox="0 0 80 80"><title>menu-left-double</title><path d="M50.408 79.756L9.855 40.381 50.385.244l2.76 2.787-37.687 37.323 37.679 36.585z"/><path d="M67.408 79.756L26.855 40.381 67.385.244l2.76 2.787-37.687 37.323 37.679 36.585z"/></symbol><symbol id="menu-left" viewBox="0 0 80 80"><title>menu-left</title><path d="M58.879 78.345L19.776 40.379 58.871 1.663l1.353 1.366-37.703 37.337 37.695 36.6z"/><path d="M58.9 79.761L18.348 40.386 58.878.249l2.76 2.787L23.95 40.359l37.68 36.585z"/></symbol><symbol id="menu-right-double" viewBox="0 0 80 80"><title>menu-right-double</title><path d="M29.592.244l40.553 39.375-40.53 40.137-2.76-2.787 37.687-37.323L26.863 3.061z"/><path d="M12.592.244l40.553 39.375-40.53 40.137-2.76-2.787 37.687-37.323L9.863 3.061z"/></symbol><symbol id="menu-right" viewBox="0 0 80 80"><title>menu-right</title><path d="M21.129 78.382l-1.353-1.366 37.703-37.337-37.695-36.6L21.121 1.7l39.103 37.966z"/><path d="M21.122 79.796l-2.76-2.787L56.05 39.686 18.37 3.101 21.1.284l40.552 39.375z"/></symbol><symbol id="menu-up" viewBox="0 0 80 80"><title>menu-up</title><path d="M76.975 59.877L39.638 22.174l-36.6 37.695-1.379-1.338 37.966-39.102 38.716 39.095z"/><path d="M76.968 61.291L39.646 23.603 3.06 61.283l-2.815-2.73L39.618 18l40.137 40.53z"/></symbol><symbol id="off" viewBox="0 0 80 80"><title>off</title><path d="M40.073 79.684c-10.04 0-19.48-3.909-26.581-11.009-14.657-14.657-14.657-38.506 0-53.163 3.614-3.613 7.343-6.146 11.734-7.975l.511-.212.16.528a29.9 29.9 0 00.637 1.878l.436 1.201-.429.188a33.667 33.667 0 00-10.36 7.078c-13.175 13.176-13.175 34.614 0 47.789 6.381 6.382 14.866 9.896 23.893 9.896 9.025 0 17.511-3.515 23.895-9.897 6.37-6.37 9.879-14.855 9.879-23.893 0-9.035-3.509-17.521-9.881-23.893a33.614 33.614 0 00-11.052-7.379l-.403-.166.109-.422c.181-.697.319-1.248.45-1.771l.382-1.509.526.205c4.768 1.859 8.913 4.592 12.675 8.354 14.656 14.659 14.656 38.506 0 53.161-7.1 7.1-16.54 11.011-26.581 11.011z"/><path d="M38 1h4v28h-4z"/></symbol><symbol id="ok-circle" viewBox="0 0 80 80"><title>ok-circle</title><path d="M40.001 79.739C18.088 79.739.26 61.911.26 39.998.26 18.087 18.088.261 40.001.261c21.912 0 39.739 17.826 39.739 39.737 0 21.913-17.827 39.741-39.739 39.741zm0-76.478c-20.259 0-36.741 16.48-36.741 36.737 0 20.259 16.482 36.741 36.741 36.741 20.258 0 36.739-16.482 36.739-36.741 0-20.257-16.481-36.737-36.739-36.737z"/><path d="M36.983 54.591L18.448 39.034l2.571-3.063 15.663 13.147L58.746 26.04l2.891 2.766-24.654 25.785z"/></symbol><symbol id="ok-sign" viewBox="0 0 80 80"><title>ok-sign</title><path d="M40.001.76C18.329.76.76 18.327.76 39.998c0 21.672 17.57 39.241 39.241 39.241 21.67 0 39.24-17.569 39.24-39.241C79.24 18.327 61.671.76 40.001.76zm-4.353 53.309L17.112 38.514l2.571-3.063 15.663 13.146L57.41 25.52l2.891 2.766-24.653 25.783z"/></symbol><symbol id="payment-method" viewBox="0 0 80 80"><title>payment-method</title><path d="M77.8 45.4l-7.6-30.3c-.6-2.5-3.2-4-5.6-3.4L17.9 23.3c-2.1.5-3.5 2.4-3.5 4.5H6.7c-2.6 0-4.7 2.1-4.7 4.7v31.3c0 2.6 2.1 4.7 4.7 4.7h48.1c2.6 0 4.7-2.1 4.7-4.7v-9l14.9-3.7c2.5-.7 4-3.2 3.4-5.7zm-8.7-23.6l.8 3.3-13 3.3c-.6-.3-1.3-.5-2-.5H44.6l24.5-6.1zm-50.6 4.1l46.7-11.6c1-.3 2.1.4 2.4 1.4l.8 3.4-35.1 8.7H17.1c0-.8.5-1.6 1.4-1.9zM4.8 32.5c0-1.1.9-2 2-2h48c.6 0 1.1.3 1.5.7.3.3.4.8.4 1.2V36H4.8v-3.5zm0 6.2h52v3.4h-52v-3.4zm52 25.1c0 1.1-.9 1.9-2 1.9H6.7c-1.1 0-2-.9-2-2V44.9h52.1v18.9zm16.9-15.4L59.5 52V32.5c0-.7-.2-1.3-.4-1.9l11.5-2.9L75.2 46c.2 1.1-.4 2.2-1.5 2.4z"/></symbol><symbol id="pdf-file" viewBox="0 0 80 80"><title>pdf-file</title><path d="M56.525 79.678H.154V.127h79.765v55.616l-23.286.084-.108 23.851zm-51.871-4.5h47.391l.107-23.833 23.267-.084V4.627H4.654v70.551z"/><path d="M78.182 53.133l1.605 1.577-24.43 24.856-1.606-1.577zM18.756 43.331h-3.284V23.092h9.069c3.836 0 6.314 2.396 6.314 6.104S28.377 35.3 24.541 35.3h-5.785v8.031zm0-11.054h5.392c1.562 0 3.423-.534 3.423-3.081s-1.861-3.082-3.423-3.082h-5.392v6.163zM33.753 43.331h-.75V23.092h7.232c6.128.143 9.358 3.643 9.358 10.12 0 6.479-3.23 9.978-9.341 10.119h-6.499zm2.534-3.022h3.143c2.459 0 4.172-.516 5.238-1.577 1.104-1.099 1.642-2.904 1.642-5.52s-.537-4.422-1.642-5.521c-1.066-1.062-2.779-1.577-5.234-1.577h-3.147v14.195zM55.262 43.331h-3.284V23.092h13.389v3.022H55.262v5.271h8.977v3.022h-8.977v8.924z"/></symbol><symbol id="pick-up-point" viewBox="0 0 80 80"><title>pick-up-point</title><path d="M53.5 60.4c1.1 0 2-.9 2-2s-.9-2-2-2-2 .9-2 2 .9 2 2 2zM32.3 40.2H16.8c-1.1 0-2 .9-2 2v15.6c0 1.1.9 2 2 2h15.6c1.1 0 2-.9 2-2V42.2c-.1-1.1-1-2-2.1-2zm-2 15.6H18.8V44.2h11.6v11.6z"/><path d="M78.4 24.1c0-2.1-.5-4.2-1.4-6L70.9 5.4c-.4-.7-1.1-1.2-1.9-1.2H11c-.8 0-1.5.4-1.9 1.2L3 18c-.9 1.9-1.4 3.9-1.4 6 0 3.7 2.2 6.9 5.3 8.4h-.2v41.2c0 1.1 1 2 2.1 2h33.3c.1 0 .3 0 .4-.1v.1h18.1v-.1c.1 0 .2.1.3 0h10.4c1.1 0 2.1-.9 2.1-2v-41H73c3.2-1.5 5.3-4.7 5.4-8.4zM30.7 24c0 .1-.1.2-.1.4-.1 2.8-2.3 5-5 5-2.9.1-5.2-2.2-5.3-5l3.6-16.1h7.8l-1 15.7zm4.9-15.7h8.7l.9 15.9v.2c-.1 2.8-2.3 5-5 5-2.9.1-5.2-2.2-5.3-5v-.2l.7-15.9zM49.2 24l-.8-15.7h7.8l3.6 16v.1c-.1 2.8-2.3 5-5 5-2.9.1-5.2-2.2-5.3-5-.2-.2-.2-.3-.3-.4zM6.8 19.7l5.5-11.5h7.4l-3.5 15.6c0 .1-.1.3-.1.4v.7c-.4 2.8-3 4.7-5.8 4.4-2.6-.4-4.6-2.7-4.5-5.3 0-1.4.4-2.9 1-4.3zm51.9 52H44.2V44.6h14.6v27.1zm4.2 0V42.6c0-1.1-1-2-2.1-2H42.1c-1.1 0-2.1.9-2.1 2v29.2H10.8V33.4c2.8 0 5.5-1.2 7.4-3.4.4.5.9 1 1.4 1.4 4 3.1 9.8 2.5 13.1-1.4.4.5.9 1 1.4 1.4 4 3.1 9.8 2.5 13.1-1.4 1.8 2.1 4.5 3.4 7.3 3.4s5.5-1.2 7.3-3.4c1.8 2.2 4.6 3.4 7.4 3.4v38.3h-6.3zm6.3-42.3H69c-2.8 0-5.1-2.2-5.2-5 0-.2-.1-.3-.1-.4L60.3 8.3h7.4l5.5 11.5c.7 1.3 1 2.8 1 4.3 0 2.8-2.2 5.2-5 5.3z"/></symbol><symbol id="plus-sign" viewBox="0 0 80 80"><title>plus-sign</title><path d="M40 79.74c-10.614 0-20.595-4.134-28.101-11.639-15.495-15.495-15.495-40.708 0-56.203C19.404 4.394 29.384.26 39.998.26c10.615 0 20.596 4.134 28.103 11.641 15.494 15.495 15.494 40.705.001 56.199C60.596 75.606 50.616 79.74 40 79.74zm-.002-76.48c-9.813 0-19.039 3.821-25.977 10.76-14.325 14.326-14.325 37.635 0 51.961C20.96 72.919 30.187 76.74 40 76.74s19.041-3.822 25.98-10.762C72.908 59.05 76.722 49.825 76.722 40c0-9.825-3.816-19.051-10.744-25.979C59.039 7.082 49.812 3.26 39.998 3.26z"/><path d="M65.751 41.785l-.004-4-23.768.017-.017-23.769-4 .004.017 23.768-23.769.017.004 4 23.768-.017.017 23.769 4-.004-.017-23.768z"/></symbol><symbol id="promo" viewBox="0 0 75 75"><title>promo</title><path d="M39.68 1.05a2.79 2.79 0 00-4.36 0L18 22.94a5.7 5.7 0 00-1.31 3.67v42.87A5.37 5.37 0 0021.88 75h31.24a5.37 5.37 0 005.21-5.52V26.61A5.7 5.7 0 0057 22.94z"/><circle fill="currentColor" cx="37.5" cy="10.97" r="3.47"/><circle fill="currentColor" cx="28.47" cy="42.36" r="4.86"/><circle fill="currentColor" cx="46.53" cy="57.38" r="4.86"/><path fill="currentColor" d="M30.39 62.17a2.72 2.72 0 01-1.58-.5 2.78 2.78 0 01-.71-3.86l14.23-20.57a2.78 2.78 0 114.57 3.16L32.67 61a2.77 2.77 0 01-2.28 1.17z"/></symbol><symbol id="question-circle" viewBox="0 0 80 80"><title>question-circle</title><path d="M40.001 79.739C18.088 79.739.26 61.911.26 39.998.26 18.087 18.088.26 40.001.26 61.913.26 79.74 18.087 79.74 39.998c0 21.913-17.827 39.741-39.739 39.741zm0-76.479C19.742 3.26 3.26 19.741 3.26 39.998c0 20.259 16.482 36.741 36.741 36.741 20.258 0 36.739-16.482 36.739-36.741 0-20.257-16.481-36.738-36.739-36.738z"/><path d="M43.472 60.589h-6.514v-7.696h6.514v7.696zm-.616-11.619H37.52l-.024-.976c-.173-7.083 1.919-9.025 6.5-13.279 2.134-2.019 3.174-4.049 3.174-6.2 0-3.566-2.874-6.256-6.686-6.256-2.271 0-4.093.684-5.415 2.032-1.497 1.526-2.292 3.917-2.237 6.729l.02 1.02H27.44l.007-1.007c.06-8.402 5.117-13.622 13.199-13.622 7.013 0 11.91 4.5 11.91 10.942 0 4.543-2.398 7.426-4.99 9.864-.549.549-1.052 1.038-1.497 1.471-2.998 2.914-3.056 2.97-3.187 8.306l-.026.976z"/></symbol><symbol id="question-sign" viewBox="0 0 80 80"><title>question-sign</title><path d="M40.001.76C18.329.76.76 18.327.76 39.998c0 21.672 17.57 39.241 39.241 39.241 21.67 0 39.24-17.569 39.24-39.241C79.24 18.327 61.671.76 40.001.76zM43 61h-6v-8h6v8zm4.564-22.782c-.549.549-1.052 1.038-1.497 1.471-2.998 2.914-3.056 2.985-3.187 8.321l-.024.99H37.52l-.024-.991c-.173-7.083 1.919-9.033 6.5-13.287 2.134-2.019 3.174-4.053 3.174-6.204 0-3.566-2.874-6.258-6.686-6.258-2.271 0-4.093.683-5.415 2.031-1.497 1.526-2.292 3.896-2.237 6.709l.019 1h-5.412l.007-.987c.06-8.402 5.117-13.612 13.199-13.612 7.013 0 11.91 4.505 11.91 10.947 0 4.543-2.399 7.431-4.991 9.87z"/></symbol><symbol id="question-single" viewBox="0 0 80 80"><title>question-single</title><path d="M43.1 71h-5.7c-1 0-1.8-.8-1.8-1.8V62c0-1.2.9-2.1 2.1-2.1H43c1.1 0 2 .9 2 2v7.2c0 1.1-.8 1.9-1.9 1.9zm-.4-16.7h-4.9c-.8 0-1.4-.6-1.4-1.4v0c-.2-10.2 2.8-13 9.3-19.1 3.1-2.9 4.6-5.8 4.6-8.9 0-5.1-4.1-9-9.6-9-3.3 0-5.9 1-7.8 2.9-2.1 2.2-3.3 5.6-3.2 9.7v0c0 .8-.6 1.5-1.4 1.5h-4.9c-.8 0-1.4-.6-1.4-1.4h0C22.1 16.5 29.3 9 40.9 9 51 9 58 15.5 58 24.7c0 6.5-3.4 10.7-7.2 14.2L48.7 41c-4.3 4.2-4.4 4.3-4.6 11.9h0c0 .8-.6 1.4-1.4 1.4z" fill="none" stroke="#141412" stroke-width="3" stroke-miterlimit="10"/></symbol><symbol id="remove-circle" viewBox="0 0 80 80"><title>remove-circle</title><path d="M40.001 79.739C18.088 79.739.26 61.911.26 39.998.26 18.087 18.088.261 40.001.261c21.912 0 39.739 17.826 39.739 39.737 0 21.913-17.827 39.741-39.739 39.741zm0-76.478c-20.259 0-36.741 16.48-36.741 36.737 0 20.259 16.482 36.741 36.741 36.741 20.258 0 36.739-16.482 36.739-36.741 0-20.257-16.481-36.737-36.739-36.737z"/><path d="M56.667 59.499L20.2 23.082l2.827-2.831 36.467 36.417-2.827 2.831z"/><path d="M23.055 59.522l-2.831-2.827L56.64 20.228l2.831 2.827-36.416 36.467z"/></symbol><symbol id="remove-sign" viewBox="0 0 80 80"><title>remove-sign</title><path d="M40.001.76C18.329.76.76 18.327.76 39.998c0 21.672 17.57 39.241 39.241 39.241 21.67 0 39.24-17.569 39.24-39.241C79.24 18.327 61.671.76 40.001.76zm16.666 58.739L39.849 42.704 23.055 59.522l-2.831-2.827 16.794-16.818L20.2 23.082l2.827-2.831 16.818 16.795L56.64 20.228l2.831 2.827-16.795 16.818 16.818 16.795-2.827 2.831z"/></symbol><symbol id="remove" viewBox="0 0 80 80"><title>remove</title><path d="M2.886 1.756l75.227 75.12-1.364 1.366L1.522 3.122z"/><path d="M76.75 79.658l-.708-.706L.107 3.122 2.884.342l.708.706 75.934 75.83z"/><g><path d="M76.696 1.704l1.365 1.364L2.94 78.296l-1.366-1.364z"/><path d="M2.938 79.71l-2.78-2.776.706-.708L76.694.29l2.781 2.776-.706.708z"/></g></symbol><symbol id="round" viewBox="0 0 80 80"><title>round</title><path d="M40 54.216c-12.107 0-21.957-9.85-21.957-21.957S27.893 10.302 40 10.302s21.957 9.85 21.957 21.957S52.107 54.216 40 54.216z"/></symbol><symbol id="sav" viewBox="0 0 40 40"><title>sav</title><path data-name="Tracé 47" d="M32.36 12.76v-2.3C32.36 10.35 31.9 0 19.6 0 7.07 0 7 10.46 7 10.92v1.26a5.74 5.74 0 00-3.67 1.5A4.61 4.61 0 002 16.78v7c0 3.68 5.63 4.49 5.86 4.6l1 .12V10.92c0-.92.34-9 10.8-9s10.81 8.28 10.81 8.63v16.81s.11 4.36-2.07 6.66a4.25 4.25 0 01-2.53 1.38 3 3 0 00-2.3-1.15 2.88 2.88 0 102.87 2.88 6.62 6.62 0 003.34-2 11.48 11.48 0 002.53-6.43A5.91 5.91 0 0038 23.91v-6.44c0-3.33-3.46-4.47-5.64-4.71z"/></symbol><symbol id="search" viewBox="0 0 80 80"><title>search</title><path d="M34.232 68.283C15.857 68.283.333 52.76.333 34.385S15.857.485 34.232.485s33.9 15.525 33.9 33.9-15.525 33.898-33.9 33.898zm0-60.725c-14.792 0-26.826 12.034-26.826 26.827 0 14.792 12.034 26.826 26.826 26.826s26.826-12.034 26.826-26.826c.001-14.793-12.034-26.827-26.826-26.827z"/><path d="M74.286 79.699l-22.19-22.19c-.239-.239-.481-.687-.275-1.459.438-1.638 2.962-4.315 4.109-4.623.415-.113.661.055.771.164l23.198 23.197-5.613 4.911z"/></symbol><symbol id="secure" viewBox="0 0 80 80"><title>secure</title><path d="M66.6 30.2h-4.9v-6.5C61.7 11.2 51.5 1 39 1S16.3 11.2 16.3 23.7v6.5h-4.9c-.9 0-1.6.7-1.6 1.6v40.6c0 3.6 2.9 6.5 6.5 6.5h45.5c3.6 0 6.5-2.9 6.5-6.5V31.9c-.1-.9-.8-1.7-1.7-1.7zm-22.7 34c.1.5-.1.9-.4 1.3-.3.3-.7.5-1.2.5h-6.5c-.5 0-.9-.2-1.2-.5-.3-.3-.5-.8-.4-1.3l1-9.2a6.31 6.31 0 01-2.7-5.2c0-3.6 2.9-6.5 6.5-6.5s6.5 2.9 6.5 6.5c0 2.1-1 4-2.7 5.2l1.1 9.2zm8.1-34H26v-6.5c0-7.2 5.8-13 13-13s13 5.8 13 13v6.5z"/></symbol><symbol id="shop" viewBox="0 0 80 80"><title>shop</title><path d="M79.5 25.7L63.7 3.8c-.3-.3-.7-.6-1.1-.6H17.3c-.5 0-.9.2-1.2.6L.5 25.7c-.5.9-.5 1.9-.2 2.8.9 3.3 3.1 6.1 6.1 7.6l.3.2v41.9c0 .8.6 1.4 1.4 1.4h63.7c.8 0 1.4-.6 1.4-1.4v-42l.3-.2c3-1.5 5.3-4.3 6.1-7.6.4-.8.4-1.8-.1-2.7zM63.2 48.8v27.9H50.1V48.8h13.1zm1.4-2.8H48.7c-.8 0-1.4.6-1.4 1.4v29.3H9.5V37l.6.1c4 .4 7.9-1.5 10.2-4.9l.4-.7.4.7c3.4 5.1 10.3 6.5 15.3 3.1 1.2-.8 2.2-1.8 3-3.1l.4-.7.4.7c3.4 5.1 10.3 6.5 15.3 3.1 1.2-.8 2.2-1.8 3-3.1l.4-.7.4.7c2.2 3.4 6.2 5.3 10.2 4.9l.6-.1v39.7H66V47.4c0-.8-.6-1.4-1.4-1.4zm-7.2-17.3c-1.5 4.3-6.2 6.6-10.5 5.1-2.4-.8-4.3-2.7-5.1-5.1l-.2-.7h16.1l-.3.7zm-19.2 0c-1.5 4.3-6.2 6.6-10.5 5.1-2.4-.8-4.2-2.7-5.1-5.1l-.3-.7h16.1l-.2.7zm21.9-3.4L53.2 6h8.7l13.8 19.2-15.6.1zm-18.8 0V6h9l6.8 19.2-15.8.1zm-18.5 0L29.6 6h9v19.2l-15.8.1zM26.7 6l-6.9 19.2H4.2L18.1 6h8.6zm-7.5 22l-.2.7c-1.4 4.1-5.6 6.4-9.8 5.4-2.7-.7-4.9-2.7-5.8-5.4l-.3-.7h16.1zm41.8.7l-.2-.7h16.1l-.2.7c-1.5 4.3-6.2 6.6-10.5 5.1-2.5-.8-4.4-2.7-5.2-5.1z"/><path d="M35.3 46H19.4c-.7 0-1.3.7-1.3 1.4v15.3c0 .8.6 1.4 1.4 1.4h15.9c.8 0 1.4-.6 1.4-1.4V47.4c0-.8-.6-1.4-1.5-1.4.1 0 .1 0 0 0zM20.8 61.4V48.8H34v12.6H20.8zm36.8 6.9c.3 0 .7-.1.9-.3.5-.6.6-1.8.5-4v-1.5c-.1-.8-.7-1.4-1.5-1.3-.7.1-1.2.6-1.3 1.3V64c-.1 2.3 0 3.5.5 4 .3.1.6.3.9.3z"/></symbol><symbol id="shopping-cart" viewBox="0 0 80 80"><title>shopping-cart</title><path d="M77.4 20.1l-61.7-7.9-1.4-9.9c-.1-.6-.6-1-1.2-1H2.3c-.6.2-.9.9-.8 1.5.2.4.5.7.9.9h9.7l6 41.6-4.2 9.2c-.4.9-.5 2-.2 3 .5 1.6 2 2.6 3.6 2.6H72c.3-.1.6-.3.7-.6.2-.3.2-.6.1-.9-.1-.4-.4-.7-.8-.8H17.6c-.4 0-.9-.2-1.2-.5-.3-.3-.5-.7-.5-1.2 0-.3.1-.5.2-.8l4-8.7h52.2c2 0 3.6-1.5 3.8-3.4l2.4-21.8c-.1-.6-.5-1.1-1.1-1.3zM20 41.7l-3.9-27.1 3.9.5v26.6zm2.4-26.3l4.7.6v28.3h-4.7V15.4zm7.2.9l4.7.6v27.4h-4.7v-28zm7.1.9l4.7.6v26.5h-4.7V17.2zm7.1.9l4.7.6v25.6h-4.7V18.1zm7.2.9l4.7.6v24.7H51V19zm7.1.9l4.7.6v23.7h-4.7V19.9zm7.1 1l4.7.6v22.8h-4.7V20.9zm7.1.9l4.1.5-2.4 22h-1.6l-.1-22.5zm-8 44.3c-3.5 0-6.3 2.8-6.3 6.3s2.8 6.3 6.3 6.3 6.3-2.8 6.3-6.3-2.9-6.3-6.3-6.3zm0 9.6c-1.9 0-3.4-1.5-3.4-3.4s1.5-3.4 3.4-3.4 3.4 1.5 3.4 3.4-1.5 3.4-3.4 3.4zM24 66.1c-3.5 0-6.3 2.8-6.3 6.3s2.8 6.3 6.3 6.3 6.3-2.8 6.3-6.3c-.1-3.5-2.9-6.3-6.3-6.3zm0 9.6c-1.9 0-3.4-1.5-3.4-3.4s1.5-3.4 3.4-3.4 3.4 1.5 3.4 3.4c-.1 1.9-1.6 3.4-3.4 3.4z"/></symbol><symbol id="star" viewBox="0 0 80 80"><title>star</title><path d="M41.805 3.864l7.971 24.532a1.898 1.898 0 001.805 1.311h25.795c1.838 0 2.602 2.352 1.115 3.433L57.622 48.301a1.897 1.897 0 00-.689 2.121l7.971 24.532c.568 1.748-1.433 3.202-2.92 2.121l-20.869-15.16a1.899 1.899 0 00-2.231 0L18.016 77.077c-1.487 1.08-3.488-.373-2.92-2.121l7.971-24.532a1.897 1.897 0 00-.689-2.121L1.51 33.14c-1.487-1.08-.723-3.433 1.115-3.433H28.42c.822 0 1.551-.529 1.805-1.311l7.971-24.532c.567-1.749 3.041-1.749 3.609 0z"/></symbol><symbol id="tag" viewBox="0 0 80 80"><title>tag</title><path d="M42.567 78.037L1.963 37.433c-.933-.933-1.4-2.334-1.4-3.734V5.696c0-2.8 2.334-5.134 5.134-5.134H33.7c1.4 0 2.8.467 3.734 1.4l40.604 40.604c.933.933 1.4 2.334 1.4 3.734s-.467 2.8-1.4 3.734L50.034 78.037c-.933.933-2.334 1.4-3.734 1.4-.933.001-2.333-.466-3.733-1.4zM6.163 5.696c-.467 0-.467 0-.467.467v28.47L46.3 75.237h.467l28.47-28.47v-.933L34.166 4.763l-28.003.933z"/><path d="M15.964 22.031c-1.867-1.867-1.867-4.667 0-6.534s4.667-1.867 6.534 0 1.867 4.667 0 6.534c-.933.933-1.867 1.4-3.267 1.4s-2.333-.466-3.267-1.4z"/></symbol><symbol id="th" viewBox="0 0 80 80"><title>th</title><path d="M1.427 1.427h21.3v21.3h-21.3zm28.137 0h21.3v21.3h-21.3zm28.136 0H79v21.3H57.7zM29.564 29.564h21.3v21.3h-21.3zm0 28.136h21.3V79h-21.3zM57.7 29.564H79v21.3H57.7zm0 28.136H79V79H57.7zM1.427 29.564h21.3v21.3h-21.3zm0 28.136h21.3V79h-21.3z"/></symbol><symbol id="time" viewBox="0 0 80 80"><title>time</title><path d="M40 80C17.9 80 0 62.1 0 40c0-10.6 4.2-20.8 11.7-28.3 15.6-15.6 40.9-15.6 56.6 0s15.6 40.9 0 56.6C60.8 75.8 50.6 80 40 80zm0-77C19.6 3 3 19.6 3 40c0 9.8 3.9 19.2 10.8 26.1 14.6 14.3 38 14.1 52.3-.4 14.2-14.4 14.2-37.5 0-51.9C59.2 6.9 49.8 3 40 3z"/><path d="M36.2 40H8.8v-4h23.5V5.9h3.9V40z" transform="translate(5.389 3.626)"/></symbol><symbol id="tote-bag" viewBox="0 0 80 80"><title>tote-bag</title><path d="M68.1 55.5V30.6h-9.4C58.1 15.8 49.9 2.5 40 2.5S21.9 15.8 21.3 30.6H10c.7-14.2 8.3-26.2 16.9-26.2 1.3 0 2.6.3 3.9.8.5-.5 1.1-.9 1.7-1.3-1.8-.9-3.6-1.4-5.5-1.4-9.9 0-18.1 13.3-18.7 28.1H2.5v46.9h65.6v-8.1l-1.9 2.9v3.3H17.5V32.5h48.7v22.2l1.9.8zm-63.7-23h5.1v39.4l-.3.2-4.8 2.4v-42zm1.9 43.1l3.7-1.9 3.7 1.9H6.3zm9.3-1.1l-4.8-2.4-.3-.2V32.5h5.1v42zm30-43.9c-.4-9.9-4.2-19.2-9.7-24.2-.6.3-1.1.6-1.6 1 5.2 4.5 9 13.3 9.5 23.2H23.1C23.7 16.4 31.4 4.4 40 4.4s16.2 12.1 16.9 26.2H45.6z"/><path d="M77.5 60.8l-19-8.4 6.7 19.7 3.6-5.6 5.2 5.7 1.4-1.3 1.4-1.3-5.2-5.7zM51.326 45.35l.736-.677 4.67 5.08-.737.677zm-4.966 8.13l.297-.955 6.587 2.054-.297.954zm13.206-12.79l.977-.216 1.497 6.735-.976.217z"/></symbol><symbol id="truck" viewBox="0 0 80 80"><title>truck</title><path d="M72.9 40.4s-3.5-1.7-4.3-2.1c-.5-.2-.9-1.1-1.2-1.5-.2-.3-4.4-7-6-9.3-2-2.9-4.3-2.9-4.4-2.9H11c-1.2 0-2.1.3-2.7 1.1-.9.9-.8 2-.8 2.1V48c0 3.8 2.3 4.9 2.6 4.9h3.7v-2.3h-3.2c-.2-.2-.6-.6-.8-1.5h3.8v-2.4H9.8v-.2h2.7v-6l-.5-.3c-1.4-.9-2-1.4-2.3-1.5v-11s0-.3.2-.5.6-.3 1.1-.3h46.1s1.2 0 2.4 1.8c1.5 2.3 5.8 9.2 5.8 9.2.2.3.9 1.8 2.1 2.4.6.3 2.7 1.4 3.8 1.8v4.6h-4.1V49h4.1v1.5h-3.7v2.3h3.1c2.1 0 2.7-1.4 2.9-1.5l.2-10.8-.8-.1zM9.8 41.6c.2 0 .2.2.3.2v2.4h-.3v-2.6z"/><path d="M51.9 41.3H55v2.3h-3.1zm-23.8 9.3h25.5v2.3H28.1zm-7.9-4c-3.2 0-5.8 2.6-5.8 5.8 0 3.2 2.6 5.8 5.8 5.8s5.8-2.6 5.8-5.8c0-3.2-2.6-5.8-5.8-5.8zm0 9.3c-2 0-3.5-1.5-3.5-3.5s1.5-3.5 3.5-3.5 3.5 1.5 3.5 3.5-1.7 3.5-3.5 3.5zm40.2-9.3c-3.2 0-5.8 2.6-5.8 5.8 0 3.2 2.6 5.8 5.8 5.8 3.2 0 5.8-2.6 5.8-5.8 0-3.2-2.4-5.8-5.8-5.8zm0 9.3c-2 0-3.5-1.5-3.5-3.5s1.5-3.5 3.5-3.5 3.5 1.5 3.5 3.5-1.5 3.5-3.5 3.5zM58 28.3H47.8v11.6h16.8L58 28.3zm-7.8 2.4h6.4l4 6.9H50.2v-6.9z"/></symbol><symbol id="user-connect" viewBox="0 0 80 80"><title>user-connect</title><path d="M55.5 57.9c.5-.5.7-1.1.5-1.7-.2-1.5-.2-3.1.1-4.7.2-.9-.4-1.8-1.2-2.2-1.1-.4-2.1-.8-3.2-1.3-1.7-1-2.8-2.9-2.6-4.9 0-.2.2-.5.3-.7 3.7-5.5 6.1-11.8 6.9-18.4.6-3.6.6-7.3 0-10.9-1.1-6.2-5-10-11.2-10.9-1.4-.2-2.8-.3-4.2-.3h-.4c-1.4 0-2.8.1-4.2.3-6.4.9-10.3 4.7-11.4 11-.6 3.6-.6 7.3 0 10.9.8 6.6 3.2 12.9 6.9 18.4.2.2.3.4.3.7.1 2-.9 3.9-2.6 4.9-1.8.8-3.6 1.5-5.4 2.1-4.8 1.7-9.7 3.3-14.2 5.9-2.8 1.6-5.1 4.1-6.4 7.1s-2 6.3-2.2 9.6v1.4c0 1.2 1 2.1 2.1 2.1h41.8c1.1 0 2-.9 2-2 0-.3-.1-.6-.2-.8-1.1-2.8-.9-6.2 1.2-8.3l7.3-7.3zM44.9 74.3H3.2V73c.1-3.1.8-6.1 2-8.9 1.1-2.6 3.1-4.8 5.6-6.2 4.1-2.2 8.4-4 12.9-5.4l1-.3c2.2-.7 3.9-1.4 5.6-2.2 2.6-1.4 4.1-4.2 3.9-7.1v-.2c-.1-.5-.4-1.1-.7-1.5-3.4-5.2-5.6-11.2-6.4-17.4-.6-3.4-.6-6.8 0-10.2 1-5.4 4.2-8.5 9.5-9.2 1.2-.3 2.5-.4 3.8-.4h.3c1.3 0 2.6.1 3.9.3 5.3.7 8.5 3.9 9.5 9.2.6 3.4.6 6.8 0 10.2C53.3 30 51 36 47.5 41.3c-.3.4-.6 1-.7 1.5v.2c-.2 2.9 1.3 5.7 3.9 7.1 1 .4 2 .9 3.2 1.3-.3 1.7-.3 3.5 0 5.2l-7.3 7.3c-2.5 2.5-3.2 6.6-1.7 10.4zm32.2-27c-3-3-7.6-3.6-11.3-1.8-4.7 2.5-6.5 8.3-4 13L51.6 68.8c-1 1-1 2.5 0 3.5l.3.4 1.8 1.8 1.2 1.2c.9 1 2.5 1 3.5 0 1-.9 1-2.5 0-3.5L57.2 71l2.2-2.2 1.2 1.2.2.2.1.1c1.1.9 2.6.8 3.5-.3.9-1.1.8-2.6-.3-3.5l-1.2-1.2 2.8-2.8c3.8 2.1 8.4 1.4 11.4-1.6 3.7-3.8 3.7-9.8 0-13.6zm-7.9 7.9c-2.1.1-3.9-1.7-3.9-3.8-.1-2.1 1.7-3.9 3.8-3.9 2.1-.1 3.9 1.7 3.9 3.8 0 2.1-1.7 3.9-3.8 3.9z"/></symbol><symbol id="user" viewBox="0 0 80 80"><title>user</title><path d="M40.3 53.9c-.7 0-2.5 0-3.6-.5-2.2-.7-4-2.4-6.2-5.4-1.6-2.2-3.1-4.9-4.2-7.8-.7-.2-1.3-.9-1.4-1.4-.5-2.5-.9-4.8-.9-7.5 0-.5.5-1.3 1.1-1.6 0-5.3.5-10.9 4.2-14.5 2.5-2.5 6.2-3.8 11.2-3.8s8.7 1.3 11.2 3.8c3.6 3.6 4.2 9.4 4.2 14.5.5.4 1.1 1.1 1.1 1.6 0 2.5-.4 4.9-.9 7.2-.2.5-.7 1.3-1.4 1.4-1.3 2.9-2.5 5.6-4.2 7.8-2.2 3.1-4 4.7-6.2 5.4-1.5.8-3.3.8-4 .8zM25.8 31.4c0 2.4.4 4.5.9 6.7 0 0 .2.2.4.2h.5l.2.5c1.1 3.1 2.5 5.6 4.2 7.8 2 2.7 3.6 4.2 5.4 4.9 1.3.4 4.7.4 6 0 1.8-.7 3.4-2.2 5.3-4.9 1.6-2.2 3.1-4.7 4.2-7.8l.2-.5h.5c.2 0 .4-.2.4-.4.5-2.2.9-4.3.9-6.7 0-.2-.4-.4-.4-.4h-.9l.2-.7c0-4.9-.4-10.5-3.6-13.8-2.2-2.2-5.4-3.3-10-3.3s-7.8 1.1-10 3.3c-3.3 3.3-3.6 8.9-3.6 13.8v.9h-.9c.3.3.1.4.1.4zm0 .2zm35.7 25.9c-.5-.4-1.1-.9-1.8-1.3-.7-.5-8.5-4.7-8.7-4.3l.2 2.5c8.9 3.3 14.3 8.1 17.4 15H71c.4-.2-3.6-6.2-4-6.5-1.5-2.3-3.5-3.9-5.5-5.4zM9.7 69.3h2.4c3.1-6.9 8.7-11.6 17.4-15l.2-2.5c-9.9 3.7-16.4 9.5-20 17.5z"/></symbol></svg>